STARTFONT 2.3
FONT -FontForge-Source Code Pro-Book-R-Normal--18-180-72-72-M-110-ISO10646-1
SIZE 18 72 72  2
FONTBOUNDINGBOX 19 27 -4 -8
COMMENT "Generated by fontforge, http://fontforge.sourceforge.net"
COMMENT "Copyright 2010, 2012 Adobe Systems Incorporated (http://www.adobe.com/), with Reserved Font Name `Source'."
STARTPROPERTIES 41
FOUNDRY "FontForge"
FAMILY_NAME "Source Code Pro"
WEIGHT_NAME "Book"
SLANT "R"
SETWIDTH_NAME "Normal"
ADD_STYLE_NAME ""
PIXEL_SIZE 18
POINT_SIZE 180
RESOLUTION_X 72
RESOLUTION_Y 72
SPACING "M"
AVERAGE_WIDTH 110
CHARSET_REGISTRY "ISO10646"
CHARSET_ENCODING "1"
FONTNAME_REGISTRY ""
CHARSET_COLLECTIONS "ASCII ISOLatin1Encoding ISO8859-2 ISO8859-5 ISO8859-7 ISO8859-9 ISO8859-4 ISO10646-1"
BITS_PER_PIXEL 2
FONT_NAME "SourceCodePro-Regular"
FACE_NAME "Source Code Pro"
COPYRIGHT "Copyright 2010, 2012 Adobe Systems Incorporated (http://www.adobe.com/), with Reserved Font Name `Source'."
FONT_VERSION "2.030;PS 1.000;hotconv 16.6.51;makeotf.lib2.5.65220"
FONT_ASCENT 13
FONT_DESCENT 5
UNDERLINE_POSITION -2
UNDERLINE_THICKNESS 1
X_HEIGHT 8
CAP_HEIGHT 11
RAW_ASCENT 750
RAW_DESCENT 250
NORM_SPACE 11
RELATIVE_WEIGHT 40
RELATIVE_SETWIDTH 50
SUPERSCRIPT_X 0
SUPERSCRIPT_Y 6
SUPERSCRIPT_SIZE 10
SUBSCRIPT_X 0
SUBSCRIPT_Y 1
SUBSCRIPT_SIZE 10
FIGURE_WIDTH 11
AVG_LOWERCASE_WIDTH 110
AVG_UPPERCASE_WIDTH 110
ENDPROPERTIES
CHARS 1564
STARTCHAR space
ENCODING 32
SWIDTH 600 0
DWIDTH 11 0
BBX 1 1 0 0
BITMAP
00
ENDCHAR
STARTCHAR exclam
ENCODING 33
SWIDTH 600 0
DWIDTH 11 0
BBX 3 12 4 0
BITMAP
70
70
70
70
70
30
30
00
00
B4
F8
B4
ENDCHAR
STARTCHAR quotedbl
ENCODING 34
SWIDTH 600 0
DWIDTH 11 0
BBX 7 6 2 6
BITMAP
B4B4
B474
B474
7074
7070
7030
ENDCHAR
STARTCHAR numbersign
ENCODING 35
SWIDTH 600 0
DWIDTH 11 0
BBX 9 11 1 0
BITMAP
030900
060C00
060C00
3E5F40
091800
091800
7EB900
0D6A00
0C2400
183000
183000
ENDCHAR
STARTCHAR dollar
ENCODING 36
SWIDTH 600 0
DWIDTH 11 0
BBX 8 15 1 -2
BITMAP
00C0
00C0
0BF8
2D0A
3800
2D00
0BD0
00BD
000B
0007
780A
1BF8
00C0
00C0
00C0
ENDCHAR
STARTCHAR percent
ENCODING 37
SWIDTH 600 0
DWIDTH 11 0
BBX 11 12 0 0
BITMAP
1F4000
75D020
6090A0
609280
75D600
1F4000
000BD0
001870
022434
092434
281870
600BD0
ENDCHAR
STARTCHAR ampersand
ENCODING 38
SWIDTH 600 0
DWIDTH 11 0
BBX 10 12 0 0
BITMAP
02F400
0A1C00
091C00
0A2800
07B000
078020
1EC070
38B0A0
742DC0
340B80
2D1FE0
0BE460
ENDCHAR
STARTCHAR quotesingle
ENCODING 39
SWIDTH 600 0
DWIDTH 11 0
BBX 3 6 4 6
BITMAP
B4
B4
74
74
70
30
ENDCHAR
STARTCHAR parenleft
ENCODING 40
SWIDTH 600 0
DWIDTH 11 0
BBX 6 16 3 -3
BITMAP
0090
0280
0B00
1D00
2800
3400
3400
7000
7000
3400
3400
2800
1D00
0B00
0280
0090
ENDCHAR
STARTCHAR parenright
ENCODING 41
SWIDTH 600 0
DWIDTH 11 0
BBX 5 16 2 -3
BITMAP
6000
3800
0D00
0700
0340
0280
01C0
01C0
01C0
01C0
0280
0340
0700
0D00
3800
6000
ENDCHAR
STARTCHAR asterisk
ENCODING 42
SWIDTH 600 0
DWIDTH 11 0
BBX 8 8 1 2
BITMAP
0080
00C0
10C1
6EEE
03E0
0770
0D28
1808
ENDCHAR
STARTCHAR plus
ENCODING 43
SWIDTH 600 0
DWIDTH 11 0
BBX 9 9 1 1
BITMAP
008000
01C000
01C000
01C000
7FFF40
01C000
01C000
01C000
008000
ENDCHAR
STARTCHAR comma
ENCODING 44
SWIDTH 600 0
DWIDTH 11 0
BBX 4 7 3 -4
BITMAP
2D
3F
2F
07
0A
2C
60
ENDCHAR
STARTCHAR hyphen
ENCODING 45
SWIDTH 600 0
DWIDTH 11 0
BBX 9 1 1 5
BITMAP
7FFF40
ENDCHAR
STARTCHAR period
ENCODING 46
SWIDTH 600 0
DWIDTH 11 0
BBX 3 3 4 0
BITMAP
B4
F8
B4
ENDCHAR
STARTCHAR slash
ENCODING 47
SWIDTH 600 0
DWIDTH 11 0
BBX 7 16 2 -3
BITMAP
0018
0034
0070
00A0
00D0
01C0
0280
0340
0700
0A00
1C00
2800
3400
7000
A000
D000
ENDCHAR
STARTCHAR zero
ENCODING 48
SWIDTH 600 0
DWIDTH 11 0
BBX 9 11 1 0
BITMAP
0BF400
2D1D00
740700
B04340
A2D340
A1D380
A00340
B00340
740700
2D1D00
0BF400
ENDCHAR
STARTCHAR one
ENCODING 49
SWIDTH 600 0
DWIDTH 11 0
BBX 9 11 1 0
BITMAP
06E000
1AE000
00E000
00E000
00E000
00E000
00E000
00E000
00E000
00E000
7FFF80
ENDCHAR
STARTCHAR two
ENCODING 50
SWIDTH 600 0
DWIDTH 11 0
BBX 9 11 1 0
BITMAP
1BE400
742D00
000A00
000A00
000D00
002C00
007400
01D000
0B4000
2D0000
BFFF40
ENDCHAR
STARTCHAR three
ENCODING 51
SWIDTH 600 0
DWIDTH 11 0
BBX 9 11 1 0
BITMAP
1BE400
741D00
000B00
000A00
006D00
07F400
001E00
000740
000740
A41E00
2BE400
ENDCHAR
STARTCHAR four
ENCODING 52
SWIDTH 600 0
DWIDTH 11 0
BBX 10 11 0 0
BITMAP
000F00
002B00
00A700
01C700
074700
0D0700
280700
7FFFE0
000700
000700
000700
ENDCHAR
STARTCHAR five
ENCODING 53
SWIDTH 600 0
DWIDTH 11 0
BBX 9 11 1 0
BITMAP
2FFE00
280000
380000
340000
3BF800
241E00
000740
000340
000740
A41E00
2BE400
ENDCHAR
STARTCHAR six
ENCODING 54
SWIDTH 600 0
DWIDTH 11 0
BBX 9 11 1 0
BITMAP
06FD00
1E0600
380000
700000
B2F900
B90B00
B00340
700380
340340
2D0A00
06F800
ENDCHAR
STARTCHAR seven
ENCODING 55
SWIDTH 600 0
DWIDTH 11 0
BBX 9 11 1 0
BITMAP
BFFF80
000A00
001C00
003400
007000
00E000
01D000
01C000
028000
028000
038000
ENDCHAR
STARTCHAR eight
ENCODING 56
SWIDTH 600 0
DWIDTH 11 0
BBX 9 11 1 0
BITMAP
0BF400
291A00
340700
280700
0A5E00
1FF800
786900
A00740
A00380
740B40
1BF900
ENDCHAR
STARTCHAR nine
ENCODING 57
SWIDTH 600 0
DWIDTH 11 0
BBX 9 11 1 0
BITMAP
1BE400
741D00
A00B00
A00740
741B40
1BE740
000340
000700
000A00
646C00
2FE000
ENDCHAR
STARTCHAR colon
ENCODING 58
SWIDTH 600 0
DWIDTH 11 0
BBX 3 9 4 0
BITMAP
B4
F8
B4
00
00
00
B4
F8
B4
ENDCHAR
STARTCHAR semicolon
ENCODING 59
SWIDTH 600 0
DWIDTH 11 0
BBX 4 13 3 -4
BITMAP
2D
3E
2D
00
00
00
2D
3F
2F
07
0A
2C
60
ENDCHAR
STARTCHAR less
ENCODING 60
SWIDTH 600 0
DWIDTH 11 0
BBX 7 9 2 1
BITMAP
0018
00B4
0780
6900
E000
6900
0780
00B4
0018
ENDCHAR
STARTCHAR equal
ENCODING 61
SWIDTH 600 0
DWIDTH 11 0
BBX 9 5 1 3
BITMAP
7FFF40
000000
000000
000000
7FFF40
ENDCHAR
STARTCHAR greater
ENCODING 62
SWIDTH 600 0
DWIDTH 11 0
BBX 7 9 2 1
BITMAP
8000
7400
0B40
01E0
0038
01E0
0B40
7400
8000
ENDCHAR
STARTCHAR question
ENCODING 63
SWIDTH 600 0
DWIDTH 11 0
BBX 7 12 2 0
BITMAP
2F90
A074
0038
0074
01D0
0740
0A00
0000
0000
0B00
0F40
0B00
ENDCHAR
STARTCHAR at
ENCODING 64
SWIDTH 600 0
DWIDTH 11 0
BBX 9 14 1 -3
BITMAP
06F900
1D0700
340180
A00180
D06F80
C1D180
C34180
C28780
C1B980
900000
600000
340000
1D0600
06F900
ENDCHAR
STARTCHAR A
ENCODING 65
SWIDTH 600 0
DWIDTH 11 0
BBX 10 12 0 0
BITMAP
00B400
00E800
01DC00
028D00
034A00
070700
0A0340
0FFF80
1C01C0
2800D0
3800A0
740070
ENDCHAR
STARTCHAR B
ENCODING 66
SWIDTH 600 0
DWIDTH 11 0
BBX 9 12 1 0
BITMAP
7FF800
741E00
740700
740700
741E00
7FF800
740B40
740280
740280
740380
741B40
7FF800
ENDCHAR
STARTCHAR C
ENCODING 67
SWIDTH 600 0
DWIDTH 11 0
BBX 9 12 1 0
BITMAP
02FE00
1E0640
380000
700000
B00000
A00000
A00000
B00000
700000
380000
1E0680
02FE00
ENDCHAR
STARTCHAR D
ENCODING 68
SWIDTH 600 0
DWIDTH 11 0
BBX 9 12 1 0
BITMAP
7FE400
702D00
700740
700380
700280
7002C0
7002C0
700280
700380
700B00
702D00
7FE400
ENDCHAR
STARTCHAR E
ENCODING 69
SWIDTH 600 0
DWIDTH 11 0
BBX 8 12 2 0
BITMAP
FFFD
E000
E000
E000
E000
FFF4
E000
E000
E000
E000
E000
FFFE
ENDCHAR
STARTCHAR F
ENCODING 70
SWIDTH 600 0
DWIDTH 11 0
BBX 8 12 2 0
BITMAP
BFFE
B000
B000
B000
B000
B000
BFF8
B000
B000
B000
B000
B000
ENDCHAR
STARTCHAR G
ENCODING 71
SWIDTH 600 0
DWIDTH 11 0
BBX 9 12 1 0
BITMAP
06FD00
1D0700
740000
B00000
E00000
E00000
E03F80
E00280
B00280
740280
1D0780
06F900
ENDCHAR
STARTCHAR H
ENCODING 72
SWIDTH 600 0
DWIDTH 11 0
BBX 9 12 1 0
BITMAP
B00340
B00340
B00340
B00340
B00340
BFFF40
B00340
B00340
B00340
B00340
B00340
B00340
ENDCHAR
STARTCHAR I
ENCODING 73
SWIDTH 600 0
DWIDTH 11 0
BBX 8 12 1 0
BITMAP
7FFF
01C0
01C0
01C0
01C0
01C0
01C0
01C0
01C0
01C0
01C0
7FFF
ENDCHAR
STARTCHAR J
ENCODING 74
SWIDTH 600 0
DWIDTH 11 0
BBX 8 12 1 0
BITMAP
2FFF
000B
000B
000B
000B
000B
000B
000B
000A
100E
742D
1BE4
ENDCHAR
STARTCHAR K
ENCODING 75
SWIDTH 600 0
DWIDTH 11 0
BBX 10 12 1 0
BITMAP
740780
740E00
742C00
74B400
75D000
7BE000
7E7400
782C00
741D00
740B00
740380
7402D0
ENDCHAR
STARTCHAR L
ENCODING 76
SWIDTH 600 0
DWIDTH 11 0
BBX 8 12 2 0
BITMAP
B000
B000
B000
B000
B000
B000
B000
B000
B000
B000
B000
BFFE
ENDCHAR
STARTCHAR M
ENCODING 77
SWIDTH 600 0
DWIDTH 11 0
BBX 9 12 1 0
BITMAP
B40780
B80B80
AC0E80
AD1A80
AA2780
A73380
A3A380
A2D380
A18380
A00380
A00380
A00380
ENDCHAR
STARTCHAR N
ENCODING 78
SWIDTH 600 0
DWIDTH 11 0
BBX 9 12 1 0
BITMAP
B40340
BC0340
AD0340
AB0340
B34340
B2C340
B0D340
B0B340
B03740
B02B40
B00F40
B00B40
ENDCHAR
STARTCHAR O
ENCODING 79
SWIDTH 600 0
DWIDTH 11 0
BBX 9 12 1 0
BITMAP
0BE400
2D1E00
700740
A00380
E00280
D002C0
D002C0
E00280
A00380
740740
2D1E00
0BE400
ENDCHAR
STARTCHAR P
ENCODING 80
SWIDTH 600 0
DWIDTH 11 0
BBX 8 12 2 0
BITMAP
FFE4
D02D
D00E
D00A
D00E
D06C
FFE0
D000
D000
D000
D000
D000
ENDCHAR
STARTCHAR Q
ENCODING 81
SWIDTH 600 0
DWIDTH 11 0
BBX 9 15 1 -3
BITMAP
0BF400
2D1E00
740740
A00380
E00280
D002C0
D002C0
E00280
A00380
740740
2D1E00
0BF400
00E000
007400
001B80
ENDCHAR
STARTCHAR R
ENCODING 82
SWIDTH 600 0
DWIDTH 11 0
BBX 9 12 1 0
BITMAP
7FF800
741B00
740340
740380
740340
741B00
7FF800
747400
742C00
741D00
740B00
740380
ENDCHAR
STARTCHAR S
ENCODING 83
SWIDTH 600 0
DWIDTH 11 0
BBX 9 12 1 0
BITMAP
06F900
2D0700
340000
380000
2E0000
0BE400
00BE00
000B40
000380
100380
B80B00
1BF800
ENDCHAR
STARTCHAR T
ENCODING 84
SWIDTH 600 0
DWIDTH 11 0
BBX 10 12 0 0
BITMAP
7FFFF0
007000
007000
007000
007000
007000
007000
007000
007000
007000
007000
007000
ENDCHAR
STARTCHAR U
ENCODING 85
SWIDTH 600 0
DWIDTH 11 0
BBX 9 12 1 0
BITMAP
B00340
B00340
B00340
B00340
B00340
B00340
B00340
B00340
700340
740700
2D1E00
0BE400
ENDCHAR
STARTCHAR V
ENCODING 86
SWIDTH 600 0
DWIDTH 11 0
BBX 9 12 1 0
BITMAP
E002C0
A00380
700740
340B00
280E00
2C1D00
1D1C00
0E2800
0B3400
07B000
03E000
02D000
ENDCHAR
STARTCHAR W
ENCODING 87
SWIDTH 600 0
DWIDTH 11 0
BBX 11 12 0 0
BITMAP
B00038
B00074
700074
747470
34B870
38E8A0
38DCA0
29CDA0
2A8AD0
1F4AD0
1F47C0
0F03C0
ENDCHAR
STARTCHAR X
ENCODING 88
SWIDTH 600 0
DWIDTH 11 0
BBX 9 12 1 0
BITMAP
B00740
380A00
1D1D00
0A2800
07B000
02E000
03E000
077400
0D2800
2C1D00
740B00
A00380
ENDCHAR
STARTCHAR Y
ENCODING 89
SWIDTH 600 0
DWIDTH 11 0
BBX 9 12 1 0
BITMAP
E002C0
B00340
380A00
2C0D00
0D2800
077400
03E000
01D000
01C000
01C000
01C000
01C000
ENDCHAR
STARTCHAR Z
ENCODING 90
SWIDTH 600 0
DWIDTH 11 0
BBX 9 12 1 0
BITMAP
7FFF80
000B00
001D00
002800
007400
00E000
02C000
074000
0E0000
2C0000
740000
BFFF80
ENDCHAR
STARTCHAR bracketleft
ENCODING 91
SWIDTH 600 0
DWIDTH 11 0
BBX 5 16 4 -3
BITMAP
FFC0
D000
D000
D000
D000
D000
D000
D000
D000
D000
D000
D000
D000
D000
D000
FFC0
ENDCHAR
STARTCHAR backslash
ENCODING 92
SWIDTH 600 0
DWIDTH 11 0
BBX 7 16 2 -3
BITMAP
D000
A000
7000
3400
2800
1C00
0A00
0700
0340
0280
01C0
00D0
00A0
0070
0034
0018
ENDCHAR
STARTCHAR bracketright
ENCODING 93
SWIDTH 600 0
DWIDTH 11 0
BBX 6 16 1 -3
BITMAP
7FE0
0060
0060
0060
0060
0060
0060
0060
0060
0060
0060
0060
0060
0060
0060
7FE0
ENDCHAR
STARTCHAR asciicircum
ENCODING 94
SWIDTH 600 0
DWIDTH 11 0
BBX 7 7 2 5
BITMAP
0740
0E80
1DC0
2890
3460
7034
9028
ENDCHAR
STARTCHAR underscore
ENCODING 95
SWIDTH 600 0
DWIDTH 11 0
BBX 9 1 1 -2
BITMAP
FFFF80
ENDCHAR
STARTCHAR grave
ENCODING 96
SWIDTH 600 0
DWIDTH 11 0
BBX 4 4 3 10
BITMAP
50
B4
2C
09
ENDCHAR
STARTCHAR a
ENCODING 97
SWIDTH 600 0
DWIDTH 11 0
BBX 9 9 1 0
BITMAP
1BF800
241E00
000700
01BF40
2E4740
740740
B00740
741B40
1FD340
ENDCHAR
STARTCHAR b
ENCODING 98
SWIDTH 600 0
DWIDTH 11 0
BBX 9 13 1 0
BITMAP
700000
700000
700000
700000
76F800
791B00
740340
700380
700380
700380
740740
791E00
72F800
ENDCHAR
STARTCHAR c
ENCODING 99
SWIDTH 600 0
DWIDTH 11 0
BBX 9 9 1 0
BITMAP
06FE00
1E0640
380000
700000
B00000
700000
380000
1E0640
06FD00
ENDCHAR
STARTCHAR d
ENCODING 100
SWIDTH 600 0
DWIDTH 11 0
BBX 8 13 1 0
BITMAP
0007
0007
0007
0007
0BE7
3D1F
B007
A007
E007
E007
B007
381F
1BE3
ENDCHAR
STARTCHAR e
ENCODING 101
SWIDTH 600 0
DWIDTH 11 0
BBX 9 9 1 0
BITMAP
06F800
2D0A00
740340
B00280
BFFF80
B00000
740000
2D0600
06F900
ENDCHAR
STARTCHAR f
ENCODING 102
SWIDTH 600 0
DWIDTH 11 0
BBX 9 13 2 0
BITMAP
01BE40
078100
0B0000
0A0000
FFFD00
0A0000
0A0000
0A0000
0A0000
0A0000
0A0000
0A0000
0A0000
ENDCHAR
STARTCHAR g
ENCODING 103
SWIDTH 600 0
DWIDTH 11 0
BBX 9 13 1 -4
BITMAP
0BFFC0
2D2D00
340E00
340A00
281D00
1FF400
340000
340000
2FFE40
7002C0
A001C0
740780
1BF900
ENDCHAR
STARTCHAR h
ENCODING 104
SWIDTH 600 0
DWIDTH 11 0
BBX 9 13 1 0
BITMAP
700000
700000
700000
700000
71F900
790B00
740740
700340
700340
700340
700340
700340
700340
ENDCHAR
STARTCHAR i
ENCODING 105
SWIDTH 600 0
DWIDTH 11 0
BBX 7 13 1 0
BITMAP
00B4
00B4
0000
0000
7FF0
0070
0070
0070
0070
0070
0070
0070
0070
ENDCHAR
STARTCHAR j
ENCODING 106
SWIDTH 600 0
DWIDTH 11 0
BBX 7 17 1 -4
BITMAP
00B4
00B4
0000
0000
7FF0
0070
0070
0070
0070
0070
0070
0070
0070
0070
0070
41E0
BF80
ENDCHAR
STARTCHAR k
ENCODING 107
SWIDTH 600 0
DWIDTH 11 0
BBX 8 13 2 0
BITMAP
D000
D000
D000
D000
D01D
D074
D1D0
D780
EEC0
F4A0
E074
D01D
D00B
ENDCHAR
STARTCHAR l
ENCODING 108
SWIDTH 600 0
DWIDTH 11 0
BBX 9 13 1 0
BITMAP
BFC000
02C000
02C000
02C000
02C000
02C000
02C000
02C000
02C000
02C000
01C000
01D000
007F40
ENDCHAR
STARTCHAR m
ENCODING 109
SWIDTH 600 0
DWIDTH 11 0
BBX 9 9 1 0
BITMAP
DB5F40
F1E2C0
E0D1C0
E0D1C0
E0D1C0
E0D1C0
E0D1C0
E0D1C0
E0D1C0
ENDCHAR
STARTCHAR n
ENCODING 110
SWIDTH 600 0
DWIDTH 11 0
BBX 9 9 1 0
BITMAP
71F900
790B00
740740
700340
700340
700340
700340
700340
700340
ENDCHAR
STARTCHAR o
ENCODING 111
SWIDTH 600 0
DWIDTH 11 0
BBX 9 9 1 0
BITMAP
0BF400
291E00
B00740
A00380
E00380
A00380
700740
291E00
0BF400
ENDCHAR
STARTCHAR p
ENCODING 112
SWIDTH 600 0
DWIDTH 11 0
BBX 9 13 1 -4
BITMAP
72F800
791B00
740340
700380
700380
700380
700740
791E00
76F800
700000
700000
700000
700000
ENDCHAR
STARTCHAR q
ENCODING 113
SWIDTH 600 0
DWIDTH 11 0
BBX 8 13 1 -4
BITMAP
0BE7
3D1F
B007
A007
E007
E007
B007
381F
1BE7
0007
0007
0007
0007
ENDCHAR
STARTCHAR r
ENCODING 114
SWIDTH 600 0
DWIDTH 11 0
BBX 8 9 2 0
BITMAP
71BD
7640
7800
7000
7000
7000
7000
7000
7000
ENDCHAR
STARTCHAR s
ENCODING 115
SWIDTH 600 0
DWIDTH 11 0
BBX 9 9 1 0
BITMAP
0BF900
381A00
340000
2E4000
06F900
001B40
000340
740B00
1BF900
ENDCHAR
STARTCHAR t
ENCODING 116
SWIDTH 600 0
DWIDTH 11 0
BBX 9 12 1 0
BITMAP
034000
034000
074000
BFFF40
074000
074000
074000
074000
074000
034000
028040
00BF40
ENDCHAR
STARTCHAR u
ENCODING 117
SWIDTH 600 0
DWIDTH 11 0
BBX 8 9 1 0
BITMAP
B007
B007
B007
B007
B007
B007
700B
782B
1F93
ENDCHAR
STARTCHAR v
ENCODING 118
SWIDTH 600 0
DWIDTH 11 0
BBX 9 9 1 0
BITMAP
E00280
700340
340B00
280D00
1D1C00
0A2800
073400
03B000
02D000
ENDCHAR
STARTCHAR w
ENCODING 119
SWIDTH 600 0
DWIDTH 11 0
BBX 11 9 0 0
BITMAP
A01028
B0B434
70A870
34DC70
39DCA0
298DA0
1E8AD0
1F47C0
0F07C0
ENDCHAR
STARTCHAR x
ENCODING 120
SWIDTH 600 0
DWIDTH 11 0
BBX 9 9 1 0
BITMAP
740B00
2C1D00
0A2800
03B000
02D000
07B000
0D2800
280E00
700740
ENDCHAR
STARTCHAR y
ENCODING 121
SWIDTH 600 0
DWIDTH 11 0
BBX 9 13 1 -4
BITMAP
E00280
700340
340700
1C0A00
0D1C00
0A2800
033400
02B000
00E000
01D000
028000
074000
B90000
ENDCHAR
STARTCHAR z
ENCODING 122
SWIDTH 600 0
DWIDTH 11 0
BBX 9 9 1 0
BITMAP
3FFF40
001E00
003800
00B000
02D000
074000
1E0000
380000
BFFF80
ENDCHAR
STARTCHAR braceleft
ENCODING 123
SWIDTH 600 0
DWIDTH 11 0
BBX 7 16 2 -3
BITMAP
01FC
0740
0700
0700
0700
0700
0A00
F800
1A00
0700
0700
0700
0700
0700
0740
01FC
ENDCHAR
STARTCHAR bar
ENCODING 124
SWIDTH 600 0
DWIDTH 11 0
BBX 2 18 4 -5
BITMAP
70
70
70
70
70
70
70
70
70
70
70
70
70
70
70
70
70
70
ENDCHAR
STARTCHAR braceright
ENCODING 125
SWIDTH 600 0
DWIDTH 11 0
BBX 8 16 1 -3
BITMAP
7E40
01C0
00C0
00C0
00C0
00C0
00E0
007E
00E0
00C0
00C0
00C0
00C0
00D0
02C0
7E40
ENDCHAR
STARTCHAR asciitilde
ENCODING 126
SWIDTH 600 0
DWIDTH 11 0
BBX 9 2 1 5
BITMAP
2F8240
61BD00
ENDCHAR
STARTCHAR uni00A0
ENCODING 160
SWIDTH 600 0
DWIDTH 11 0
BBX 1 1 0 0
BITMAP
00
ENDCHAR
STARTCHAR exclamdown
ENCODING 161
SWIDTH 600 0
DWIDTH 11 0
BBX 3 13 4 -4
BITMAP
B4
F8
B4
00
00
30
30
70
70
70
70
70
70
ENDCHAR
STARTCHAR cent
ENCODING 162
SWIDTH 600 0
DWIDTH 11 0
BBX 7 13 2 -1
BITMAP
0180
0180
0BE4
3994
B180
E180
E180
E180
B180
3998
0BE4
0180
0180
ENDCHAR
STARTCHAR sterling
ENCODING 163
SWIDTH 600 0
DWIDTH 11 0
BBX 9 11 1 0
BITMAP
02FE00
0E0640
1C0000
1C0000
0D0000
BFFC00
070000
070000
0A0000
1C0000
7FFF80
ENDCHAR
STARTCHAR currency
ENCODING 164
SWIDTH 600 0
DWIDTH 11 0
BBX 9 9 1 1
BITMAP
900140
7BEB40
2D1D00
340A00
340B00
340A00
2D1D00
76EB40
900140
ENDCHAR
STARTCHAR yen
ENCODING 165
SWIDTH 600 0
DWIDTH 11 0
BBX 9 11 1 0
BITMAP
A00380
340B00
1C0D00
0A2800
077000
6BFA40
56D500
6AEA40
56D500
01C000
01C000
ENDCHAR
STARTCHAR brokenbar
ENCODING 166
SWIDTH 600 0
DWIDTH 11 0
BBX 2 18 4 -5
BITMAP
70
70
70
70
70
70
70
70
00
00
70
70
70
70
70
70
70
70
ENDCHAR
STARTCHAR section
ENCODING 167
SWIDTH 600 0
DWIDTH 11 0
BBX 8 13 1 -1
BITMAP
07F8
0D18
1D00
0F40
29F4
701E
7007
2D07
07ED
0078
001C
2428
1BE0
ENDCHAR
STARTCHAR dieresis
ENCODING 168
SWIDTH 600 0
DWIDTH 11 0
BBX 6 2 2 11
BITMAP
74B0
74B0
ENDCHAR
STARTCHAR copyright
ENCODING 169
SWIDTH 600 0
DWIDTH 11 0
BBX 11 11 0 0
BITMAP
02FD00
0D0280
2400A0
61FD30
534024
570024
530024
21ED30
2410A0
0D0280
02FD00
ENDCHAR
STARTCHAR ordfeminine
ENCODING 170
SWIDTH 600 0
DWIDTH 11 0
BBX 5 6 3 7
BITMAP
6F40
51C0
2BC0
A5C0
D1C0
7D80
ENDCHAR
STARTCHAR guillemotleft
ENCODING 171
SWIDTH 600 0
DWIDTH 11 0
BBX 8 7 1 1
BITMAP
0606
1D1D
7438
B070
7438
1D1D
0606
ENDCHAR
STARTCHAR logicalnot
ENCODING 172
SWIDTH 600 0
DWIDTH 11 0
BBX 9 5 1 1
BITMAP
7FFF40
000340
000340
000340
000100
ENDCHAR
STARTCHAR uni00AD
ENCODING 173
SWIDTH 600 0
DWIDTH 11 0
BBX 9 1 1 5
BITMAP
7FFF40
ENDCHAR
STARTCHAR registered
ENCODING 174
SWIDTH 600 0
DWIDTH 11 0
BBX 7 7 2 6
BITMAP
1F90
6060
8898
8F88
8898
6460
1B90
ENDCHAR
STARTCHAR macron
ENCODING 175
SWIDTH 600 0
DWIDTH 11 0
BBX 5 1 3 11
BITMAP
FF80
ENDCHAR
STARTCHAR degree
ENCODING 176
SWIDTH 600 0
DWIDTH 11 0
BBX 5 4 3 8
BITMAP
2E00
9280
9280
6E00
ENDCHAR
STARTCHAR plusminus
ENCODING 177
SWIDTH 600 0
DWIDTH 11 0
BBX 9 10 1 0
BITMAP
01C000
01C000
01C000
7FFF40
01C000
01C000
01C000
01C000
000000
7FFF40
ENDCHAR
STARTCHAR two.sups
ENCODING 178
SWIDTH 600 0
DWIDTH 11 0
BBX 5 7 3 7
BITMAP
7E00
8280
0280
0340
0900
7400
FFC0
ENDCHAR
STARTCHAR three.sups
ENCODING 179
SWIDTH 600 0
DWIDTH 11 0
BBX 6 7 2 7
BITMAP
1F80
24A0
00A0
0B80
0070
6470
1F90
ENDCHAR
STARTCHAR acute
ENCODING 180
SWIDTH 600 0
DWIDTH 11 0
BBX 4 4 4 10
BITMAP
09
1D
74
50
ENDCHAR
STARTCHAR uni00B5
ENCODING 181
SWIDTH 600 0
DWIDTH 11 0
BBX 9 13 1 -4
BITMAP
700B00
700B00
700B00
700B00
700B00
700B00
700B00
782B00
7BD380
700000
700000
700000
700000
ENDCHAR
STARTCHAR paragraph
ENCODING 182
SWIDTH 600 0
DWIDTH 11 0
BBX 8 13 1 -1
BITMAP
0BDA
3FDA
BFDA
BFDA
BFDA
7FDA
2FDA
069A
000A
000A
000A
000A
000A
ENDCHAR
STARTCHAR periodcentered
ENCODING 183
SWIDTH 600 0
DWIDTH 11 0
BBX 3 3 4 5
BITMAP
B4
F8
B4
ENDCHAR
STARTCHAR cedilla
ENCODING 184
SWIDTH 600 0
DWIDTH 11 0
BBX 4 5 3 -5
BITMAP
18
2D
0A
0A
78
ENDCHAR
STARTCHAR one.sups
ENCODING 185
SWIDTH 600 0
DWIDTH 11 0
BBX 6 7 3 7
BITMAP
6E00
0A00
0A00
0A00
0A00
0A00
FFE0
ENDCHAR
STARTCHAR ordmasculine
ENCODING 186
SWIDTH 600 0
DWIDTH 11 0
BBX 6 6 2 7
BITMAP
1B80
34B0
6030
6030
34B0
1B80
ENDCHAR
STARTCHAR guillemotright
ENCODING 187
SWIDTH 600 0
DWIDTH 11 0
BBX 8 7 2 1
BITMAP
8080
B070
282C
0D0D
282C
B070
8080
ENDCHAR
STARTCHAR onequarter
ENCODING 188
SWIDTH 600 0
DWIDTH 11 0
BBX 11 11 0 0
BITMAP
1F0020
0700A0
070280
070600
070000
000200
000600
020950
091C90
281FF4
600090
ENDCHAR
STARTCHAR onehalf
ENCODING 189
SWIDTH 600 0
DWIDTH 11 0
BBX 10 11 0 0
BITMAP
1F0020
0700A0
070280
070600
070000
000BD0
0008A0
020060
0901D0
280740
600FF0
ENDCHAR
STARTCHAR threequarters
ENCODING 190
SWIDTH 600 0
DWIDTH 11 0
BBX 10 12 1 0
BITMAP
BD0000
4A0090
0A01C0
2D0740
470900
BD0000
000800
001800
062540
1C7240
707FD0
900240
ENDCHAR
STARTCHAR questiondown
ENCODING 191
SWIDTH 600 0
DWIDTH 11 0
BBX 7 13 2 -4
BITMAP
0780
0BC0
0780
0000
0000
0340
0740
1E00
3800
B000
A000
7424
1FE0
ENDCHAR
STARTCHAR Agrave
ENCODING 192
SWIDTH 600 0
DWIDTH 11 0
BBX 10 16 0 0
BITMAP
018000
01E000
002400
000000
00B400
00E800
01DC00
028D00
034A00
070700
0A0340
0FFF80
1C01C0
2800D0
3800A0
740070
ENDCHAR
STARTCHAR Aacute
ENCODING 193
SWIDTH 600 0
DWIDTH 11 0
BBX 10 16 0 0
BITMAP
000900
002800
006000
000000
00B400
00E800
01DC00
028D00
034A00
070700
0A0340
0FFF80
1C01C0
2800D0
3800A0
740070
ENDCHAR
STARTCHAR Acircumflex
ENCODING 194
SWIDTH 600 0
DWIDTH 11 0
BBX 10 15 0 0
BITMAP
00B800
029D00
020200
00B400
00E800
01DC00
028D00
034A00
070700
0A0340
0FFF80
1C01C0
2800D0
3800A0
740070
ENDCHAR
STARTCHAR Atilde
ENCODING 195
SWIDTH 600 0
DWIDTH 11 0
BBX 10 15 0 0
BITMAP
07E240
092E00
000000
00B400
00E800
01DC00
028D00
034A00
070700
0A0340
0FFF80
1C01C0
2800D0
3800A0
740070
ENDCHAR
STARTCHAR Adieresis
ENCODING 196
SWIDTH 600 0
DWIDTH 11 0
BBX 10 15 0 0
BITMAP
034A00
034A00
000000
00B400
00E800
01DC00
028D00
034A00
070700
0A0340
0FFF80
1C01C0
2800D0
3800A0
740070
ENDCHAR
STARTCHAR Aring
ENCODING 197
SWIDTH 600 0
DWIDTH 11 0
BBX 10 16 0 0
BITMAP
00B800
018C00
018800
00B800
00B400
00E800
01DC00
028D00
034A00
070700
0A0340
0FFF80
1C01C0
2800D0
3800A0
740070
ENDCHAR
STARTCHAR AE
ENCODING 198
SWIDTH 600 0
DWIDTH 11 0
BBX 11 12 0 0
BITMAP
007FF4
00FC00
01DC00
029C00
035C00
071FE0
0E1C00
1FFC00
281C00
341C00
701C00
A01FF8
ENDCHAR
STARTCHAR Ccedilla
ENCODING 199
SWIDTH 600 0
DWIDTH 11 0
BBX 9 17 1 -5
BITMAP
02FE00
1E0640
380000
700000
B00000
A00000
A00000
B00000
700000
380000
1E0680
02FE00
006000
00B400
002800
002800
01E000
ENDCHAR
STARTCHAR Egrave
ENCODING 200
SWIDTH 600 0
DWIDTH 11 0
BBX 8 16 2 0
BITMAP
0900
0B40
0180
0000
FFFD
E000
E000
E000
E000
FFF4
E000
E000
E000
E000
E000
FFFE
ENDCHAR
STARTCHAR Eacute
ENCODING 201
SWIDTH 600 0
DWIDTH 11 0
BBX 8 16 2 0
BITMAP
0060
01D0
0240
0000
FFFD
E000
E000
E000
E000
FFF4
E000
E000
E000
E000
E000
FFFE
ENDCHAR
STARTCHAR Ecircumflex
ENCODING 202
SWIDTH 600 0
DWIDTH 11 0
BBX 8 15 2 0
BITMAP
07C0
0DB0
1424
FFFD
E000
E000
E000
E000
FFF4
E000
E000
E000
E000
E000
FFFE
ENDCHAR
STARTCHAR Edieresis
ENCODING 203
SWIDTH 600 0
DWIDTH 11 0
BBX 8 15 2 0
BITMAP
1C34
1C34
0000
FFFD
E000
E000
E000
E000
FFF4
E000
E000
E000
E000
E000
FFFE
ENDCHAR
STARTCHAR Igrave
ENCODING 204
SWIDTH 600 0
DWIDTH 11 0
BBX 8 16 1 0
BITMAP
0600
0780
0090
0000
7FFF
01C0
01C0
01C0
01C0
01C0
01C0
01C0
01C0
01C0
01C0
7FFF
ENDCHAR
STARTCHAR Iacute
ENCODING 205
SWIDTH 600 0
DWIDTH 11 0
BBX 8 16 1 0
BITMAP
0024
00A0
0180
0000
7FFF
01C0
01C0
01C0
01C0
01C0
01C0
01C0
01C0
01C0
01C0
7FFF
ENDCHAR
STARTCHAR Icircumflex
ENCODING 206
SWIDTH 600 0
DWIDTH 11 0
BBX 8 15 1 0
BITMAP
02E0
0A74
0808
7FFF
01C0
01C0
01C0
01C0
01C0
01C0
01C0
01C0
01C0
01C0
7FFF
ENDCHAR
STARTCHAR Idieresis
ENCODING 207
SWIDTH 600 0
DWIDTH 11 0
BBX 8 15 1 0
BITMAP
0D28
0D28
0000
7FFF
01C0
01C0
01C0
01C0
01C0
01C0
01C0
01C0
01C0
01C0
7FFF
ENDCHAR
STARTCHAR Eth
ENCODING 208
SWIDTH 600 0
DWIDTH 11 0
BBX 10 12 0 0
BITMAP
1FF900
1C0B40
1C01D0
1C00E0
1C00A0
BFE0B0
1C00B0
1C00A0
1C00E0
1C02C0
1C0B40
1FF900
ENDCHAR
STARTCHAR Ntilde
ENCODING 209
SWIDTH 600 0
DWIDTH 11 0
BBX 9 15 1 0
BITMAP
0B8600
18BD00
000000
B40340
BC0340
AD0340
AB0340
B34340
B2C340
B0D340
B0B340
B03740
B02B40
B00F40
B00B40
ENDCHAR
STARTCHAR Ograve
ENCODING 210
SWIDTH 600 0
DWIDTH 11 0
BBX 9 16 1 0
BITMAP
060000
078000
009000
000000
0BE400
2D1E00
700740
A00380
E00280
D002C0
D002C0
E00280
A00380
740740
2D1E00
0BE400
ENDCHAR
STARTCHAR Oacute
ENCODING 211
SWIDTH 600 0
DWIDTH 11 0
BBX 9 16 1 0
BITMAP
002400
00A000
018000
000000
0BE400
2D1E00
700740
A00380
E00280
D002C0
D002C0
E00280
A00380
740740
2D1E00
0BE400
ENDCHAR
STARTCHAR Ocircumflex
ENCODING 212
SWIDTH 600 0
DWIDTH 11 0
BBX 9 15 1 0
BITMAP
02E000
0A7400
080800
0BE400
2D1E00
700740
A00380
E00280
D002C0
D002C0
E00280
A00380
740740
2D1E00
0BE400
ENDCHAR
STARTCHAR Otilde
ENCODING 213
SWIDTH 600 0
DWIDTH 11 0
BBX 9 15 1 0
BITMAP
1F8900
24B800
000000
0BE400
2D1E00
700740
A00380
E00280
D002C0
D002C0
E00280
A00380
740740
2D1E00
0BE400
ENDCHAR
STARTCHAR Odieresis
ENCODING 214
SWIDTH 600 0
DWIDTH 11 0
BBX 9 15 1 0
BITMAP
0D2800
0D2800
000000
0BE400
2D1E00
700740
A00380
E00280
D002C0
D002C0
E00280
A00380
740740
2D1E00
0BE400
ENDCHAR
STARTCHAR multiply
ENCODING 215
SWIDTH 600 0
DWIDTH 11 0
BBX 7 7 2 2
BITMAP
D018
7474
1ED0
0B40
1ED0
7474
9018
ENDCHAR
STARTCHAR Oslash
ENCODING 216
SWIDTH 600 0
DWIDTH 11 0
BBX 9 12 1 0
BITMAP
0BE680
2D1F40
700F40
A02B80
E07280
D0D2C0
D282C0
E70280
BD0380
780740
BD1E00
DBE400
ENDCHAR
STARTCHAR Ugrave
ENCODING 217
SWIDTH 600 0
DWIDTH 11 0
BBX 9 16 1 0
BITMAP
060000
078000
009000
000000
B00340
B00340
B00340
B00340
B00340
B00340
B00340
B00340
700340
740700
2D1E00
0BE400
ENDCHAR
STARTCHAR Uacute
ENCODING 218
SWIDTH 600 0
DWIDTH 11 0
BBX 9 16 1 0
BITMAP
002400
00A000
018000
000000
B00340
B00340
B00340
B00340
B00340
B00340
B00340
B00340
700340
740700
2D1E00
0BE400
ENDCHAR
STARTCHAR Ucircumflex
ENCODING 219
SWIDTH 600 0
DWIDTH 11 0
BBX 9 15 1 0
BITMAP
02E000
0A7400
080800
B00340
B00340
B00340
B00340
B00340
B00340
B00340
B00340
700340
740700
2D1E00
0BE400
ENDCHAR
STARTCHAR Udieresis
ENCODING 220
SWIDTH 600 0
DWIDTH 11 0
BBX 9 15 1 0
BITMAP
0D2800
0D2800
000000
B00340
B00340
B00340
B00340
B00340
B00340
B00340
B00340
700340
740700
2D1E00
0BE400
ENDCHAR
STARTCHAR Yacute
ENCODING 221
SWIDTH 600 0
DWIDTH 11 0
BBX 9 16 1 0
BITMAP
002400
00A000
018000
000000
E002C0
B00340
380A00
2C0D00
0D2800
077400
03E000
01D000
01C000
01C000
01C000
01C000
ENDCHAR
STARTCHAR Thorn
ENCODING 222
SWIDTH 600 0
DWIDTH 11 0
BBX 9 12 1 0
BITMAP
740000
740000
7FF900
740B40
740380
740280
740380
740B40
7FF900
740000
740000
740000
ENDCHAR
STARTCHAR germandbls
ENCODING 223
SWIDTH 600 0
DWIDTH 11 0
BBX 9 13 1 0
BITMAP
0BE000
282C00
741C00
702C00
707400
70A000
70E000
707800
701B40
7002C0
7001C0
7042C0
70BE00
ENDCHAR
STARTCHAR agrave
ENCODING 224
SWIDTH 600 0
DWIDTH 11 0
BBX 9 14 1 0
BITMAP
060000
078000
01D000
006000
000000
1BF800
241E00
000700
01BF40
2E4740
740740
B00740
741B40
1FD340
ENDCHAR
STARTCHAR aacute
ENCODING 225
SWIDTH 600 0
DWIDTH 11 0
BBX 9 14 1 0
BITMAP
001800
003800
00A000
008000
000000
1BF800
241E00
000700
01BF40
2E4740
740740
B00740
741B40
1FD340
ENDCHAR
STARTCHAR acircumflex
ENCODING 226
SWIDTH 600 0
DWIDTH 11 0
BBX 9 13 1 0
BITMAP
01F000
076800
090900
000000
1BF800
241E00
000700
01BF40
2E4740
740740
B00740
741B40
1FD340
ENDCHAR
STARTCHAR atilde
ENCODING 227
SWIDTH 600 0
DWIDTH 11 0
BBX 9 13 1 0
BITMAP
010100
0ED600
187D00
000000
1BF800
241E00
000700
01BF40
2E4740
740740
B00740
741B40
1FD340
ENDCHAR
STARTCHAR adieresis
ENCODING 228
SWIDTH 600 0
DWIDTH 11 0
BBX 9 13 1 0
BITMAP
0A1D00
0A1D00
000000
000000
1BF800
241E00
000700
01BF40
2E4740
740740
B00740
741B40
1FD340
ENDCHAR
STARTCHAR aring
ENCODING 229
SWIDTH 600 0
DWIDTH 11 0
BBX 9 14 1 0
BITMAP
02E000
031800
031800
02F400
000000
1BF800
241E00
000700
01BF40
2E4740
740740
B00740
741B40
1FD340
ENDCHAR
STARTCHAR ae
ENCODING 230
SWIDTH 600 0
DWIDTH 11 0
BBX 11 9 0 0
BITMAP
2F87D0
20AC74
007428
06F028
2D7FF8
B03000
A03400
70AD10
2F4BE4
ENDCHAR
STARTCHAR ccedilla
ENCODING 231
SWIDTH 600 0
DWIDTH 11 0
BBX 9 14 1 -5
BITMAP
06FE00
1E0640
380000
700000
B00000
700000
380000
1E0640
06FD00
006000
00B400
002800
006400
01E000
ENDCHAR
STARTCHAR egrave
ENCODING 232
SWIDTH 600 0
DWIDTH 11 0
BBX 9 14 1 0
BITMAP
060000
074000
01D000
006000
000000
06F800
2D0A00
740340
B00280
BFFF80
B00000
740000
2D0600
06F900
ENDCHAR
STARTCHAR eacute
ENCODING 233
SWIDTH 600 0
DWIDTH 11 0
BBX 9 14 1 0
BITMAP
001800
003800
00E000
018000
000000
06F800
2D0A00
740340
B00280
BFFF80
B00000
740000
2D0600
06F900
ENDCHAR
STARTCHAR ecircumflex
ENCODING 234
SWIDTH 600 0
DWIDTH 11 0
BBX 9 13 1 0
BITMAP
01E000
076800
080900
000000
06F800
2D0A00
740340
B00280
BFFF80
B00000
740000
2D0600
06F900
ENDCHAR
STARTCHAR edieresis
ENCODING 235
SWIDTH 600 0
DWIDTH 11 0
BBX 9 13 1 0
BITMAP
0A1D00
0A1D00
000000
000000
06F800
2D0A00
740340
B00280
BFFF80
B00000
740000
2D0600
06F900
ENDCHAR
STARTCHAR igrave
ENCODING 236
SWIDTH 600 0
DWIDTH 11 0
BBX 6 14 1 0
BITMAP
0240
02C0
00A0
0020
0000
7FF0
0070
0070
0070
0070
0070
0070
0070
0070
ENDCHAR
STARTCHAR iacute
ENCODING 237
SWIDTH 600 0
DWIDTH 11 0
BBX 8 14 1 0
BITMAP
0009
002D
0074
0090
0000
7FF0
0070
0070
0070
0070
0070
0070
0070
0070
ENDCHAR
STARTCHAR icircumflex
ENCODING 238
SWIDTH 600 0
DWIDTH 11 0
BBX 8 13 1 0
BITMAP
00F4
029D
0606
0000
7FF0
0070
0070
0070
0070
0070
0070
0070
0070
ENDCHAR
STARTCHAR idieresis
ENCODING 239
SWIDTH 600 0
DWIDTH 11 0
BBX 8 13 1 0
BITMAP
074A
074A
0000
0000
7FF0
0070
0070
0070
0070
0070
0070
0070
0070
ENDCHAR
STARTCHAR eth
ENCODING 240
SWIDTH 600 0
DWIDTH 11 0
BBX 9 13 1 0
BITMAP
0A0200
06EE00
06F400
0E1D00
000A00
0BE740
381B40
A00380
E00280
E00380
B00740
391E00
0BF400
ENDCHAR
STARTCHAR ntilde
ENCODING 241
SWIDTH 600 0
DWIDTH 11 0
BBX 9 13 1 0
BITMAP
010100
0ED600
187D00
000000
71F900
790B00
740740
700340
700340
700340
700340
700340
700340
ENDCHAR
STARTCHAR ograve
ENCODING 242
SWIDTH 600 0
DWIDTH 11 0
BBX 9 14 1 0
BITMAP
050000
0B4000
02C000
009000
000000
0BF400
291E00
B00740
A00380
E00380
A00380
700740
291E00
0BF400
ENDCHAR
STARTCHAR oacute
ENCODING 243
SWIDTH 600 0
DWIDTH 11 0
BBX 9 14 1 0
BITMAP
002400
007400
01D000
014000
000000
0BF400
291E00
B00740
A00380
E00380
A00380
700740
291E00
0BF400
ENDCHAR
STARTCHAR ocircumflex
ENCODING 244
SWIDTH 600 0
DWIDTH 11 0
BBX 9 13 1 0
BITMAP
02E000
0A7400
080800
000000
0BF400
291E00
B00740
A00380
E00380
A00380
700740
291E00
0BF400
ENDCHAR
STARTCHAR otilde
ENCODING 245
SWIDTH 600 0
DWIDTH 11 0
BBX 9 13 1 0
BITMAP
050400
1E8900
247800
000000
0BF400
291E00
B00740
A00380
E00380
A00380
700740
291E00
0BF400
ENDCHAR
STARTCHAR odieresis
ENCODING 246
SWIDTH 600 0
DWIDTH 11 0
BBX 9 13 1 0
BITMAP
1D2C00
1D2C00
000000
000000
0BF400
291E00
B00740
A00380
E00380
A00380
700740
291E00
0BF400
ENDCHAR
STARTCHAR divide
ENCODING 247
SWIDTH 600 0
DWIDTH 11 0
BBX 9 9 1 1
BITMAP
01D000
01D000
000000
000000
7FFF40
000000
000000
01D000
01D000
ENDCHAR
STARTCHAR oslash
ENCODING 248
SWIDTH 600 0
DWIDTH 11 0
BBX 9 9 1 0
BITMAP
0BF640
291F00
B02F40
A07380
E1D380
A74380
7D0740
3D1E00
ABF400
ENDCHAR
STARTCHAR ugrave
ENCODING 249
SWIDTH 600 0
DWIDTH 11 0
BBX 8 14 1 0
BITMAP
0900
0B00
02C0
0090
0000
B007
B007
B007
B007
B007
B007
700B
782B
1F93
ENDCHAR
STARTCHAR uacute
ENCODING 250
SWIDTH 600 0
DWIDTH 11 0
BBX 8 14 1 0
BITMAP
0024
0074
01D0
0240
0000
B007
B007
B007
B007
B007
B007
700B
782B
1F93
ENDCHAR
STARTCHAR ucircumflex
ENCODING 251
SWIDTH 600 0
DWIDTH 11 0
BBX 8 13 1 0
BITMAP
02D0
0A74
1808
0000
B007
B007
B007
B007
B007
B007
700B
782B
1F93
ENDCHAR
STARTCHAR udieresis
ENCODING 252
SWIDTH 600 0
DWIDTH 11 0
BBX 8 13 1 0
BITMAP
1D28
1D28
0000
0000
B007
B007
B007
B007
B007
B007
700B
782B
1F93
ENDCHAR
STARTCHAR yacute
ENCODING 253
SWIDTH 600 0
DWIDTH 11 0
BBX 9 18 1 -4
BITMAP
002400
007800
00E000
018000
000000
E00280
700340
340700
1C0A00
0D1C00
0A2800
033400
02B000
00E000
01D000
028000
074000
B90000
ENDCHAR
STARTCHAR thorn
ENCODING 254
SWIDTH 600 0
DWIDTH 11 0
BBX 9 17 1 -4
BITMAP
700000
700000
700000
700000
76F800
791B00
740740
700380
700380
700380
700740
791E00
76F800
700000
700000
700000
700000
ENDCHAR
STARTCHAR ydieresis
ENCODING 255
SWIDTH 600 0
DWIDTH 11 0
BBX 9 17 1 -4
BITMAP
0D2C00
0E2C00
000000
000000
E00280
700340
340700
1C0A00
0D1C00
0A2800
033400
02B000
00E000
01D000
028000
074000
B90000
ENDCHAR
STARTCHAR Amacron
ENCODING 256
SWIDTH 600 0
DWIDTH 11 0
BBX 10 14 0 0
BITMAP
03FE00
000000
00B400
00E800
01DC00
028D00
034A00
070700
0A0340
0FFF80
1C01C0
2800D0
3800A0
740070
ENDCHAR
STARTCHAR amacron
ENCODING 257
SWIDTH 600 0
DWIDTH 11 0
BBX 9 12 1 0
BITMAP
0BFC00
000000
000000
1BF800
241E00
000700
01BF40
2E4740
740740
B00740
741B40
1FD340
ENDCHAR
STARTCHAR Abreve
ENCODING 258
SWIDTH 600 0
DWIDTH 11 0
BBX 10 16 0 0
BITMAP
020300
034A00
01B800
000000
00B400
00E800
01DC00
028D00
034A00
070700
0A0340
0FFF80
1C01C0
2800D0
3800A0
740070
ENDCHAR
STARTCHAR abreve
ENCODING 259
SWIDTH 600 0
DWIDTH 11 0
BBX 9 13 1 0
BITMAP
0C0900
0A1C00
02F400
000000
1BF800
241E00
000700
01BF40
2E4740
740740
B00740
741B40
1FD340
ENDCHAR
STARTCHAR Aogonek
ENCODING 260
SWIDTH 600 0
DWIDTH 11 0
BBX 11 16 0 -4
BITMAP
00B400
00E800
01DC00
028D00
034A00
070700
0A0340
0FFF80
1C01C0
2800D0
3800A0
740070
0000A0
000180
000280
0001F8
ENDCHAR
STARTCHAR aogonek
ENCODING 261
SWIDTH 600 0
DWIDTH 11 0
BBX 9 13 1 -4
BITMAP
1BF800
241E00
000700
01BF40
2E4740
740740
B00740
741F40
1FE740
000900
001800
002800
001F80
ENDCHAR
STARTCHAR Cacute
ENCODING 262
SWIDTH 600 0
DWIDTH 11 0
BBX 9 16 1 0
BITMAP
000800
007800
009000
000000
02FE00
1E0640
380000
700000
B00000
A00000
A00000
B00000
700000
380000
1E0680
02FE00
ENDCHAR
STARTCHAR cacute
ENCODING 263
SWIDTH 600 0
DWIDTH 11 0
BBX 9 14 1 0
BITMAP
000900
002D00
007400
009000
000000
06FE00
1E0640
380000
700000
B00000
700000
380000
1E0640
06FD00
ENDCHAR
STARTCHAR Ccircumflex
ENCODING 264
SWIDTH 600 0
DWIDTH 11 0
BBX 9 15 1 0
BITMAP
00F400
029D00
060600
02FE00
1E0640
380000
700000
B00000
A00000
A00000
B00000
700000
380000
1E0680
02FE00
ENDCHAR
STARTCHAR ccircumflex
ENCODING 265
SWIDTH 600 0
DWIDTH 11 0
BBX 9 13 1 0
BITMAP
00F400
029D00
060600
000000
06FE00
1E0640
380000
700000
B00000
700000
380000
1E0640
06FD00
ENDCHAR
STARTCHAR Cdotaccent
ENCODING 266
SWIDTH 600 0
DWIDTH 11 0
BBX 9 15 1 0
BITMAP
00B000
00B000
000000
02FE00
1E0640
380000
700000
B00000
A00000
A00000
B00000
700000
380000
1E0680
02FE00
ENDCHAR
STARTCHAR cdotaccent
ENCODING 267
SWIDTH 600 0
DWIDTH 11 0
BBX 9 13 1 0
BITMAP
00B400
00B400
000000
000000
06FE00
1E0640
380000
700000
B00000
700000
380000
1E0640
06FD00
ENDCHAR
STARTCHAR Ccaron
ENCODING 268
SWIDTH 600 0
DWIDTH 11 0
BBX 9 15 1 0
BITMAP
060600
029D00
00F400
02FE00
1E0640
380000
700000
B00000
A00000
A00000
B00000
700000
380000
1E0680
02FE00
ENDCHAR
STARTCHAR ccaron
ENCODING 269
SWIDTH 600 0
DWIDTH 11 0
BBX 9 13 1 0
BITMAP
060600
029D00
00F400
000000
06FE00
1E0640
380000
700000
B00000
700000
380000
1E0640
06FD00
ENDCHAR
STARTCHAR Dcaron
ENCODING 270
SWIDTH 600 0
DWIDTH 11 0
BBX 9 15 1 0
BITMAP
080800
0A7400
02E000
7FE400
702D00
700740
700380
700280
7002C0
7002C0
700280
700380
700B00
702D00
7FE400
ENDCHAR
STARTCHAR dcaron
ENCODING 271
SWIDTH 600 0
DWIDTH 11 0
BBX 10 15 1 0
BITMAP
000070
000070
000A30
000A30
000A30
000A00
1BDA00
382E00
B00A00
E00A00
D00A00
E00A00
A00E00
782E00
1B9A00
ENDCHAR
STARTCHAR Dcroat
ENCODING 272
SWIDTH 600 0
DWIDTH 11 0
BBX 10 12 0 0
BITMAP
1FF900
1C0B40
1C01D0
1C00E0
1C00A0
BFE0B0
1C00B0
1C00A0
1C00E0
1C02C0
1C0B40
1FF900
ENDCHAR
STARTCHAR dcroat
ENCODING 273
SWIDTH 600 0
DWIDTH 11 0
BBX 10 13 1 0
BITMAP
000700
000700
02FFD0
000700
000700
0BE700
391B00
B00700
E00700
E00700
B00700
781F00
1BE700
ENDCHAR
STARTCHAR Emacron
ENCODING 274
SWIDTH 600 0
DWIDTH 11 0
BBX 8 14 2 0
BITMAP
1FF4
0000
FFFD
E000
E000
E000
E000
FFF4
E000
E000
E000
E000
E000
FFFE
ENDCHAR
STARTCHAR emacron
ENCODING 275
SWIDTH 600 0
DWIDTH 11 0
BBX 9 12 1 0
BITMAP
0BFC00
000000
000000
06F800
2D0A00
740340
B00280
BFFF80
B00000
740000
2D0600
06F900
ENDCHAR
STARTCHAR Ebreve
ENCODING 276
SWIDTH 600 0
DWIDTH 11 0
BBX 8 16 2 0
BITMAP
2414
1834
07D0
0000
FFFD
E000
E000
E000
E000
FFF4
E000
E000
E000
E000
E000
FFFE
ENDCHAR
STARTCHAR ebreve
ENCODING 277
SWIDTH 600 0
DWIDTH 11 0
BBX 9 13 1 0
BITMAP
0C0900
0A1C00
02E400
000000
06F800
2D0A00
740340
B00280
BFFF80
B00000
740000
2D0600
06F900
ENDCHAR
STARTCHAR Edotaccent
ENCODING 278
SWIDTH 600 0
DWIDTH 11 0
BBX 8 15 2 0
BITMAP
0380
0380
0000
FFFD
E000
E000
E000
E000
FFF4
E000
E000
E000
E000
E000
FFFE
ENDCHAR
STARTCHAR edotaccent
ENCODING 279
SWIDTH 600 0
DWIDTH 11 0
BBX 9 13 1 0
BITMAP
01E000
01E000
000000
000000
06F800
2D0A00
740340
B00280
BFFF80
B00000
740000
2D0600
06F900
ENDCHAR
STARTCHAR Eogonek
ENCODING 280
SWIDTH 600 0
DWIDTH 11 0
BBX 8 16 2 -4
BITMAP
FFFD
E000
E000
E000
E000
FFF4
E000
E000
E000
E000
E000
FFFE
0028
0060
0060
003E
ENDCHAR
STARTCHAR eogonek
ENCODING 281
SWIDTH 600 0
DWIDTH 11 0
BBX 9 13 1 -4
BITMAP
06F800
2D0A00
740340
B00280
BFFF80
B00000
740000
2D0600
06FE00
002800
003000
007000
002E00
ENDCHAR
STARTCHAR Ecaron
ENCODING 282
SWIDTH 600 0
DWIDTH 11 0
BBX 8 15 2 0
BITMAP
1424
0DB0
07C0
FFFD
E000
E000
E000
E000
FFF4
E000
E000
E000
E000
E000
FFFE
ENDCHAR
STARTCHAR ecaron
ENCODING 283
SWIDTH 600 0
DWIDTH 11 0
BBX 9 13 1 0
BITMAP
080900
076800
01E000
000000
06F800
2D0A00
740340
B00280
BFFF80
B00000
740000
2D0600
06F900
ENDCHAR
STARTCHAR Gcircumflex
ENCODING 284
SWIDTH 600 0
DWIDTH 11 0
BBX 9 15 1 0
BITMAP
01F000
036C00
050900
06FD00
1D0700
740000
B00000
E00000
E00000
E03F80
E00280
B00280
740280
1D0780
06F900
ENDCHAR
STARTCHAR gcircumflex
ENCODING 285
SWIDTH 600 0
DWIDTH 11 0
BBX 9 17 1 -4
BITMAP
02E000
076800
080800
000000
0BFFC0
2D2D00
340E00
340A00
281D00
1FF400
340000
340000
2FFE40
7002C0
A001C0
740780
1BF900
ENDCHAR
STARTCHAR Gbreve
ENCODING 286
SWIDTH 600 0
DWIDTH 11 0
BBX 9 16 1 0
BITMAP
090500
060D00
02F400
000000
06FD00
1D0700
740000
B00000
E00000
E00000
E03F80
E00280
B00280
740280
1D0780
06F900
ENDCHAR
STARTCHAR gbreve
ENCODING 287
SWIDTH 600 0
DWIDTH 11 0
BBX 9 17 1 -4
BITMAP
180900
0D1C00
06E400
000000
0BFFC0
2D2D00
340E00
340A00
281D00
1FF400
340000
340000
2FFE40
7002C0
A001C0
740780
1BF900
ENDCHAR
STARTCHAR Gdotaccent
ENCODING 288
SWIDTH 600 0
DWIDTH 11 0
BBX 9 15 1 0
BITMAP
00E000
00E000
000000
06FD00
1D0700
740000
B00000
E00000
E00000
E03F80
E00280
B00280
740280
1D0780
06F900
ENDCHAR
STARTCHAR gdotaccent
ENCODING 289
SWIDTH 600 0
DWIDTH 11 0
BBX 9 17 1 -4
BITMAP
01D000
01D000
000000
000000
0BFFC0
2D2D00
340E00
340A00
281D00
1FF400
340000
340000
2FFE40
7002C0
A001C0
740780
1BF900
ENDCHAR
STARTCHAR uni0122
ENCODING 290
SWIDTH 600 0
DWIDTH 11 0
BBX 9 16 1 -4
BITMAP
06FD00
1D0700
740000
B00000
E00000
E00000
E03F80
E00280
B00280
740280
1D0780
06F900
000000
00E000
007400
02E000
ENDCHAR
STARTCHAR uni0123
ENCODING 291
SWIDTH 600 0
DWIDTH 11 0
BBX 9 18 1 -4
BITMAP
00B000
028000
024000
019000
000000
0BFFC0
2D2D00
340E00
340A00
281D00
1FF400
340000
340000
2FFE40
7002C0
A001C0
740780
1BF900
ENDCHAR
STARTCHAR Hcircumflex
ENCODING 292
SWIDTH 600 0
DWIDTH 11 0
BBX 9 15 1 0
BITMAP
02E000
0A7400
080800
B00340
B00340
B00340
B00340
B00340
BFFF40
B00340
B00340
B00340
B00340
B00340
B00340
ENDCHAR
STARTCHAR hcircumflex
ENCODING 293
SWIDTH 600 0
DWIDTH 11 0
BBX 10 16 0 0
BITMAP
2E0000
A74000
818000
1C0000
1C0000
1C0000
1C0000
1C7E40
1E42C0
1D01D0
1C00D0
1C00D0
1C00D0
1C00D0
1C00D0
1C00D0
ENDCHAR
STARTCHAR Hbar
ENCODING 294
SWIDTH 600 0
DWIDTH 11 0
BBX 11 12 0 0
BITMAP
2C00D0
2C00D0
BFFFF8
2C00D0
2C00D0
2FFFD0
2C00D0
2C00D0
2C00D0
2C00D0
2C00D0
2C00D0
ENDCHAR
STARTCHAR hbar
ENCODING 295
SWIDTH 600 0
DWIDTH 11 0
BBX 10 13 0 0
BITMAP
1C0000
1C0000
BFFC00
1C0000
1C0000
1C7E40
1E42C0
1D01D0
1C00D0
1C00D0
1C00D0
1C00D0
1C00D0
ENDCHAR
STARTCHAR Itilde
ENCODING 296
SWIDTH 600 0
DWIDTH 11 0
BBX 8 15 1 0
BITMAP
1F89
24B8
0000
7FFF
01C0
01C0
01C0
01C0
01C0
01C0
01C0
01C0
01C0
01C0
7FFF
ENDCHAR
STARTCHAR itilde
ENCODING 297
SWIDTH 600 0
DWIDTH 11 0
BBX 9 13 1 0
BITMAP
014100
06A340
092E00
000000
7FF000
007000
007000
007000
007000
007000
007000
007000
007000
ENDCHAR
STARTCHAR Imacron
ENCODING 298
SWIDTH 600 0
DWIDTH 11 0
BBX 8 14 1 0
BITMAP
0FF8
0000
7FFF
01C0
01C0
01C0
01C0
01C0
01C0
01C0
01C0
01C0
01C0
7FFF
ENDCHAR
STARTCHAR imacron
ENCODING 299
SWIDTH 600 0
DWIDTH 11 0
BBX 8 12 1 0
BITMAP
03FE
0000
0000
7FF0
0070
0070
0070
0070
0070
0070
0070
0070
ENDCHAR
STARTCHAR Ibreve
ENCODING 300
SWIDTH 600 0
DWIDTH 11 0
BBX 8 16 1 0
BITMAP
080C
0D28
06E0
0000
7FFF
01C0
01C0
01C0
01C0
01C0
01C0
01C0
01C0
01C0
01C0
7FFF
ENDCHAR
STARTCHAR ibreve
ENCODING 301
SWIDTH 600 0
DWIDTH 11 0
BBX 8 13 1 0
BITMAP
0603
034A
01F8
0000
7FF0
0070
0070
0070
0070
0070
0070
0070
0070
ENDCHAR
STARTCHAR Iogonek
ENCODING 302
SWIDTH 600 0
DWIDTH 11 0
BBX 8 16 1 -4
BITMAP
7FFF
01C0
01C0
01C0
01C0
01C0
01C0
01C0
01C0
01C0
01C0
7FFF
0180
0300
0700
02E0
ENDCHAR
STARTCHAR iogonek
ENCODING 303
SWIDTH 600 0
DWIDTH 11 0
BBX 7 17 1 -4
BITMAP
00B4
00B4
0000
0000
7FF0
0070
0070
0070
0070
0070
0070
0070
0070
0090
0180
0180
00B8
ENDCHAR
STARTCHAR Idotaccent
ENCODING 304
SWIDTH 600 0
DWIDTH 11 0
BBX 8 15 1 0
BITMAP
01D0
01D0
0000
7FFF
01C0
01C0
01C0
01C0
01C0
01C0
01C0
01C0
01C0
01C0
7FFF
ENDCHAR
STARTCHAR dotlessi
ENCODING 305
SWIDTH 600 0
DWIDTH 11 0
BBX 6 9 1 0
BITMAP
7FF0
0070
0070
0070
0070
0070
0070
0070
0070
ENDCHAR
STARTCHAR IJ
ENCODING 306
SWIDTH 600 0
DWIDTH 11 0
BBX 7 15 2 -3
BITMAP
E028
E028
E028
E028
E028
E028
E028
E028
E028
E028
E028
E028
0028
0038
03E0
ENDCHAR
STARTCHAR ij
ENCODING 307
SWIDTH 600 0
DWIDTH 11 0
BBX 8 17 2 -4
BITMAP
E02D
E02D
0000
0000
D01C
D01C
D01C
D01C
D01C
D01C
D01C
D01C
D01C
001C
001C
0028
01F4
ENDCHAR
STARTCHAR Jcircumflex
ENCODING 308
SWIDTH 600 0
DWIDTH 11 0
BBX 8 15 1 0
BITMAP
01F0
0368
0909
2FFF
000B
000B
000B
000B
000B
000B
000B
000A
100E
742D
1BE4
ENDCHAR
STARTCHAR jcircumflex
ENCODING 309
SWIDTH 600 0
DWIDTH 11 0
BBX 8 17 1 -4
BITMAP
00F4
029D
0606
0000
7FF0
0070
0070
0070
0070
0070
0070
0070
0070
0070
0070
41E0
BF80
ENDCHAR
STARTCHAR uni0136
ENCODING 310
SWIDTH 600 0
DWIDTH 11 0
BBX 10 16 1 -4
BITMAP
740780
740E00
742C00
74B400
75D000
7BE000
7E7400
782C00
741D00
740B00
740380
7402D0
000000
00A000
003400
02E000
ENDCHAR
STARTCHAR uni0137
ENCODING 311
SWIDTH 600 0
DWIDTH 11 0
BBX 8 17 2 -4
BITMAP
D000
D000
D000
D000
D01D
D074
D1D0
D780
EEC0
F4A0
E074
D01D
D00B
0000
0280
01D0
0B80
ENDCHAR
STARTCHAR kgreenlandic
ENCODING 312
SWIDTH 600 0
DWIDTH 11 0
BBX 8 9 2 0
BITMAP
D01D
D074
D1D0
D780
EFC0
F8E0
E078
D01D
D00B
ENDCHAR
STARTCHAR Lacute
ENCODING 313
SWIDTH 600 0
DWIDTH 11 0
BBX 8 16 2 0
BITMAP
0900
2800
6000
0000
B000
B000
B000
B000
B000
B000
B000
B000
B000
B000
B000
BFFE
ENDCHAR
STARTCHAR lacute
ENCODING 314
SWIDTH 600 0
DWIDTH 11 0
BBX 9 17 1 0
BITMAP
002000
01E000
024000
000000
BFC000
02C000
02C000
02C000
02C000
02C000
02C000
02C000
02C000
02C000
01C000
01D000
007F40
ENDCHAR
STARTCHAR uni013B
ENCODING 315
SWIDTH 600 0
DWIDTH 11 0
BBX 8 16 2 -4
BITMAP
B000
B000
B000
B000
B000
B000
B000
B000
B000
B000
B000
BFFE
0000
0290
00A0
0780
ENDCHAR
STARTCHAR uni013C
ENCODING 316
SWIDTH 600 0
DWIDTH 11 0
BBX 9 17 1 -4
BITMAP
BFC000
02C000
02C000
02C000
02C000
02C000
02C000
02C000
02C000
02C000
01C000
01D000
007F40
000000
003800
001D00
00B800
ENDCHAR
STARTCHAR Lcaron
ENCODING 317
SWIDTH 600 0
DWIDTH 11 0
BBX 8 14 2 0
BITMAP
0070
0030
B030
B030
B030
B000
B000
B000
B000
B000
B000
B000
B000
BFFE
ENDCHAR
STARTCHAR lcaron
ENCODING 318
SWIDTH 600 0
DWIDTH 11 0
BBX 9 15 1 0
BITMAP
000A00
000A00
BFC900
02C900
02C900
02C000
02C000
02C000
02C000
02C000
02C000
02C000
01C000
01D000
007F40
ENDCHAR
STARTCHAR Ldot
ENCODING 319
SWIDTH 600 0
DWIDTH 11 0
BBX 8 12 2 0
BITMAP
B000
B000
B000
B000
B02D
B02D
B000
B000
B000
B000
B000
BFFE
ENDCHAR
STARTCHAR ldot
ENCODING 320
SWIDTH 600 0
DWIDTH 11 0
BBX 12 13 0 0
BITMAP
7FD000
01D000
01D000
01D000
01D000
01D02D
01D02D
01D000
01D000
01D000
00D000
00E040
006F80
ENDCHAR
STARTCHAR Lslash
ENCODING 321
SWIDTH 600 0
DWIDTH 11 0
BBX 10 12 0 0
BITMAP
0B0000
0B0000
0B0000
0B0000
0B0700
0B7900
0BD000
7F0000
5B0000
0B0000
0B0000
0BFFE0
ENDCHAR
STARTCHAR lslash
ENCODING 322
SWIDTH 600 0
DWIDTH 11 0
BBX 9 13 1 0
BITMAP
BFC000
02C000
02C000
02C100
02DE00
02F400
1FC000
26C000
02C000
02C000
01C000
01D000
007F40
ENDCHAR
STARTCHAR Nacute
ENCODING 323
SWIDTH 600 0
DWIDTH 11 0
BBX 9 16 1 0
BITMAP
002400
00B400
018000
000000
B40340
BC0340
AD0340
AB0340
B34340
B2C340
B0D340
B0B340
B03740
B02B40
B00F40
B00B40
ENDCHAR
STARTCHAR nacute
ENCODING 324
SWIDTH 600 0
DWIDTH 11 0
BBX 9 14 1 0
BITMAP
001800
003800
00A000
008000
000000
71F900
790B00
740740
700340
700340
700340
700340
700340
700340
ENDCHAR
STARTCHAR uni0145
ENCODING 325
SWIDTH 600 0
DWIDTH 11 0
BBX 9 16 1 -4
BITMAP
B40340
BC0340
AD0340
AB0340
B34340
B2C340
B0D340
B0B340
B03740
B02B40
B00F40
B00B40
000000
01D000
00A000
079000
ENDCHAR
STARTCHAR uni0146
ENCODING 326
SWIDTH 600 0
DWIDTH 11 0
BBX 9 13 1 -4
BITMAP
71F900
790B00
740740
700340
700340
700340
700340
700340
700340
000000
01E000
007000
039000
ENDCHAR
STARTCHAR Ncaron
ENCODING 327
SWIDTH 600 0
DWIDTH 11 0
BBX 9 15 1 0
BITMAP
080800
076800
02E000
B40340
BC0340
AD0340
AB0340
B34340
B2C340
B0D340
B0B340
B03740
B02B40
B00F40
B00B40
ENDCHAR
STARTCHAR ncaron
ENCODING 328
SWIDTH 600 0
DWIDTH 11 0
BBX 9 13 1 0
BITMAP
090900
076800
01E000
000000
71F900
790B00
740740
700340
700340
700340
700340
700340
700340
ENDCHAR
STARTCHAR napostrophe
ENCODING 329
SWIDTH 600 0
DWIDTH 11 0
BBX 12 13 -1 0
BITMAP
2C0000
7E0000
3E0000
0A0000
0D62F8
34791D
10740E
00700A
00700A
00700A
00700A
00700A
00700A
ENDCHAR
STARTCHAR Eng
ENCODING 330
SWIDTH 600 0
DWIDTH 11 0
BBX 9 12 1 0
BITMAP
72F800
791A00
740740
700380
700280
7002C0
7002C0
700280
700280
700340
700B00
707D00
ENDCHAR
STARTCHAR eng
ENCODING 331
SWIDTH 600 0
DWIDTH 11 0
BBX 9 13 1 -4
BITMAP
71F900
790B00
740740
700340
700340
700340
700340
700340
700340
000340
000340
000700
007D00
ENDCHAR
STARTCHAR Omacron
ENCODING 332
SWIDTH 600 0
DWIDTH 11 0
BBX 9 14 1 0
BITMAP
0FF800
000000
0BE400
2D1E00
700740
A00380
E00280
D002C0
D002C0
E00280
A00380
740740
2D1E00
0BE400
ENDCHAR
STARTCHAR omacron
ENCODING 333
SWIDTH 600 0
DWIDTH 11 0
BBX 9 12 1 0
BITMAP
0FF800
000000
000000
0BF400
291E00
B00740
A00380
E00380
A00380
700740
291E00
0BF400
ENDCHAR
STARTCHAR Obreve
ENCODING 334
SWIDTH 600 0
DWIDTH 11 0
BBX 9 16 1 0
BITMAP
080C00
0D2800
06E000
000000
0BE400
2D1E00
700740
A00380
E00280
D002C0
D002C0
E00280
A00380
740740
2D1E00
0BE400
ENDCHAR
STARTCHAR obreve
ENCODING 335
SWIDTH 600 0
DWIDTH 11 0
BBX 9 13 1 0
BITMAP
180C00
0D2800
06E000
000000
0BF400
291E00
B00740
A00380
E00380
A00380
700740
291E00
0BF400
ENDCHAR
STARTCHAR Ohungarumlaut
ENCODING 336
SWIDTH 600 0
DWIDTH 11 0
BBX 9 16 1 0
BITMAP
018600
034D00
052400
000000
0BE400
2D1E00
700740
A00380
E00280
D002C0
D002C0
E00280
A00380
740740
2D1E00
0BE400
ENDCHAR
STARTCHAR ohungarumlaut
ENCODING 337
SWIDTH 600 0
DWIDTH 11 0
BBX 9 13 1 0
BITMAP
018600
024C00
061400
000000
0BF400
291E00
B00740
A00380
E00380
A00380
700740
291E00
0BF400
ENDCHAR
STARTCHAR OE
ENCODING 338
SWIDTH 600 0
DWIDTH 11 0
BBX 11 12 0 0
BITMAP
02FFF4
0E1C00
281C00
341C00
741C00
701FE0
701C00
741C00
341C00
281C00
0E1C00
02FFF8
ENDCHAR
STARTCHAR oe
ENCODING 339
SWIDTH 600 0
DWIDTH 11 0
BBX 11 9 0 0
BITMAP
1F87D0
349D34
B07828
A03428
A03FF8
A03400
707800
349D10
1F87E4
ENDCHAR
STARTCHAR Racute
ENCODING 340
SWIDTH 600 0
DWIDTH 11 0
BBX 9 16 1 0
BITMAP
002400
00A000
018000
000000
7FF800
741B00
740340
740380
740340
741B00
7FF800
747400
742C00
741D00
740B00
740380
ENDCHAR
STARTCHAR racute
ENCODING 341
SWIDTH 600 0
DWIDTH 11 0
BBX 8 14 2 0
BITMAP
0024
00B4
01D0
0240
0000
71BD
7640
7800
7000
7000
7000
7000
7000
7000
ENDCHAR
STARTCHAR uni0156
ENCODING 342
SWIDTH 600 0
DWIDTH 11 0
BBX 9 16 1 -4
BITMAP
7FF800
741B00
740340
740380
740340
741B00
7FF800
747400
742C00
741D00
740B00
740380
000000
00E000
007000
039000
ENDCHAR
STARTCHAR uni0157
ENCODING 343
SWIDTH 600 0
DWIDTH 11 0
BBX 8 13 2 -4
BITMAP
71BD
7640
7800
7000
7000
7000
7000
7000
7000
0000
7400
1C00
E400
ENDCHAR
STARTCHAR Rcaron
ENCODING 344
SWIDTH 600 0
DWIDTH 11 0
BBX 9 15 1 0
BITMAP
080800
077400
02E000
7FF800
741B00
740340
740380
740340
741B00
7FF800
747400
742C00
741D00
740B00
740380
ENDCHAR
STARTCHAR rcaron
ENCODING 345
SWIDTH 600 0
DWIDTH 11 0
BBX 8 13 2 0
BITMAP
1818
0A74
03D0
0000
71BD
7640
7800
7000
7000
7000
7000
7000
7000
ENDCHAR
STARTCHAR Sacute
ENCODING 346
SWIDTH 600 0
DWIDTH 11 0
BBX 9 16 1 0
BITMAP
002400
00B400
018000
000000
06F900
2D0700
340000
380000
2E0000
0BE400
00BE00
000B40
000380
100380
B80B00
1BF800
ENDCHAR
STARTCHAR sacute
ENCODING 347
SWIDTH 600 0
DWIDTH 11 0
BBX 9 14 1 0
BITMAP
002400
007400
01E000
018000
000000
0BF900
381A00
340000
2E4000
06F900
001B40
000340
740B00
1BF900
ENDCHAR
STARTCHAR Scircumflex
ENCODING 348
SWIDTH 600 0
DWIDTH 11 0
BBX 9 15 1 0
BITMAP
01E000
076800
090800
06F900
2D0700
340000
380000
2E0000
0BE400
00BE00
000B40
000380
100380
B80B00
1BF800
ENDCHAR
STARTCHAR scircumflex
ENCODING 349
SWIDTH 600 0
DWIDTH 11 0
BBX 9 13 1 0
BITMAP
02E000
0A7400
080800
000000
0BF900
381A00
340000
2E4000
06F900
001B40
000340
740B00
1BF900
ENDCHAR
STARTCHAR uni015E
ENCODING 350
SWIDTH 600 0
DWIDTH 11 0
BBX 9 17 1 -5
BITMAP
06F900
2D0700
340000
380000
2E0000
0BE400
00BE00
000B40
000380
100380
B80B00
1BF800
008000
01E000
007000
007000
039000
ENDCHAR
STARTCHAR uni015F
ENCODING 351
SWIDTH 600 0
DWIDTH 11 0
BBX 9 14 1 -5
BITMAP
0BF900
381A00
340000
2E4000
06F900
001B40
000340
740B00
1BF900
00C000
01E000
007000
007000
039000
ENDCHAR
STARTCHAR Scaron
ENCODING 352
SWIDTH 600 0
DWIDTH 11 0
BBX 9 15 1 0
BITMAP
090800
076800
01E000
06F900
2D0700
340000
380000
2E0000
0BE400
00BE00
000B40
000380
100380
B80B00
1BF800
ENDCHAR
STARTCHAR scaron
ENCODING 353
SWIDTH 600 0
DWIDTH 11 0
BBX 9 13 1 0
BITMAP
080800
0A7400
02E000
000000
0BF900
381A00
340000
2E4000
06F900
001B40
000340
740B00
1BF900
ENDCHAR
STARTCHAR uni0162
ENCODING 354
SWIDTH 600 0
DWIDTH 11 0
BBX 10 17 0 -5
BITMAP
7FFFF0
007000
007000
007000
007000
007000
007000
007000
007000
007000
007000
007000
006000
00B400
002800
002800
01E000
ENDCHAR
STARTCHAR uni0163
ENCODING 355
SWIDTH 600 0
DWIDTH 11 0
BBX 9 17 1 -5
BITMAP
034000
034000
074000
BFFF40
074000
074000
074000
074000
074000
034000
028040
00BF40
002400
003800
001D00
001D00
00A400
ENDCHAR
STARTCHAR Tcaron
ENCODING 356
SWIDTH 600 0
DWIDTH 11 0
BBX 10 15 0 0
BITMAP
020200
029D00
00B800
7FFFF0
007000
007000
007000
007000
007000
007000
007000
007000
007000
007000
007000
ENDCHAR
STARTCHAR tcaron
ENCODING 357
SWIDTH 600 0
DWIDTH 11 0
BBX 9 15 1 0
BITMAP
000D00
000D00
000D00
034D00
034D00
074000
BFFF40
074000
074000
074000
074000
074000
034000
028040
00BF40
ENDCHAR
STARTCHAR Tbar
ENCODING 358
SWIDTH 600 0
DWIDTH 11 0
BBX 10 12 0 0
BITMAP
7FFFF0
007000
007000
007000
007000
0FFF80
007000
007000
007000
007000
007000
007000
ENDCHAR
STARTCHAR tbar
ENCODING 359
SWIDTH 600 0
DWIDTH 11 0
BBX 9 12 1 0
BITMAP
020000
034000
074000
BFFF40
074000
074000
074000
BFFF00
074000
074000
038040
00BF40
ENDCHAR
STARTCHAR Utilde
ENCODING 360
SWIDTH 600 0
DWIDTH 11 0
BBX 9 15 1 0
BITMAP
1F8900
24B800
000000
B00340
B00340
B00340
B00340
B00340
B00340
B00340
B00340
700340
740700
2D1E00
0BE400
ENDCHAR
STARTCHAR utilde
ENCODING 361
SWIDTH 600 0
DWIDTH 11 0
BBX 8 13 1 0
BITMAP
0504
1A89
24B8
0000
B007
B007
B007
B007
B007
B007
700B
782B
1F93
ENDCHAR
STARTCHAR Umacron
ENCODING 362
SWIDTH 600 0
DWIDTH 11 0
BBX 9 14 1 0
BITMAP
0FF800
000000
B00340
B00340
B00340
B00340
B00340
B00340
B00340
B00340
700340
740700
2D1E00
0BE400
ENDCHAR
STARTCHAR umacron
ENCODING 363
SWIDTH 600 0
DWIDTH 11 0
BBX 8 12 1 0
BITMAP
0FF8
0000
0000
B007
B007
B007
B007
B007
B007
700B
782B
1F93
ENDCHAR
STARTCHAR Ubreve
ENCODING 364
SWIDTH 600 0
DWIDTH 11 0
BBX 9 16 1 0
BITMAP
080C00
0D2800
06E000
000000
B00340
B00340
B00340
B00340
B00340
B00340
B00340
B00340
700340
740700
2D1E00
0BE400
ENDCHAR
STARTCHAR ubreve
ENCODING 365
SWIDTH 600 0
DWIDTH 11 0
BBX 8 13 1 0
BITMAP
180C
0D28
07E0
0000
B007
B007
B007
B007
B007
B007
700B
782B
1F93
ENDCHAR
STARTCHAR Uring
ENCODING 366
SWIDTH 600 0
DWIDTH 11 0
BBX 9 16 1 0
BITMAP
02E000
063000
062000
02E000
B00340
B00340
B00340
B00340
B00340
B00340
B00340
B00340
700340
740700
2D1E00
0BE400
ENDCHAR
STARTCHAR uring
ENCODING 367
SWIDTH 600 0
DWIDTH 11 0
BBX 8 14 1 0
BITMAP
02E0
0A24
0A24
02E0
0000
B007
B007
B007
B007
B007
B007
700B
782B
1F93
ENDCHAR
STARTCHAR Uhungarumlaut
ENCODING 368
SWIDTH 600 0
DWIDTH 11 0
BBX 9 16 1 0
BITMAP
018600
034D00
052400
000000
B00340
B00340
B00340
B00340
B00340
B00340
B00340
B00340
700340
740700
2D1E00
0BE400
ENDCHAR
STARTCHAR uhungarumlaut
ENCODING 369
SWIDTH 600 0
DWIDTH 11 0
BBX 8 13 1 0
BITMAP
0189
024C
0624
0000
B007
B007
B007
B007
B007
B007
700B
782B
1F93
ENDCHAR
STARTCHAR Uogonek
ENCODING 370
SWIDTH 600 0
DWIDTH 11 0
BBX 9 16 1 -4
BITMAP
B00340
B00340
B00340
B00340
B00340
B00340
B00340
B00340
700340
740700
2D1E00
0BF400
018000
030000
034000
02E000
ENDCHAR
STARTCHAR uogonek
ENCODING 371
SWIDTH 600 0
DWIDTH 11 0
BBX 9 13 1 -4
BITMAP
B00700
B00700
B00700
B00700
B00700
B00700
700B00
782B00
1F9300
000900
002400
002400
001F40
ENDCHAR
STARTCHAR Wcircumflex
ENCODING 372
SWIDTH 600 0
DWIDTH 11 0
BBX 11 15 0 0
BITMAP
00B800
029D00
020200
B00038
B00074
700074
747470
34B870
38E8A0
38DCA0
29CDA0
2A8AD0
1F4AD0
1F47C0
0F03C0
ENDCHAR
STARTCHAR wcircumflex
ENCODING 373
SWIDTH 600 0
DWIDTH 11 0
BBX 11 13 0 0
BITMAP
00B800
029D00
020200
000000
A01028
B0B434
70A870
34DC70
39DCA0
298DA0
1E8AD0
1F47C0
0F07C0
ENDCHAR
STARTCHAR Ycircumflex
ENCODING 374
SWIDTH 600 0
DWIDTH 11 0
BBX 9 15 1 0
BITMAP
02E000
0A7400
080800
E002C0
B00340
380A00
2C0D00
0D2800
077400
03E000
01D000
01C000
01C000
01C000
01C000
ENDCHAR
STARTCHAR ycircumflex
ENCODING 375
SWIDTH 600 0
DWIDTH 11 0
BBX 9 17 1 -4
BITMAP
02E000
0A7400
080800
000000
E00280
700340
340700
1C0A00
0D1C00
0A2800
033400
02B000
00E000
01D000
028000
074000
B90000
ENDCHAR
STARTCHAR Ydieresis
ENCODING 376
SWIDTH 600 0
DWIDTH 11 0
BBX 9 15 1 0
BITMAP
0D2800
0D2800
000000
E002C0
B00340
380A00
2C0D00
0D2800
077400
03E000
01D000
01C000
01C000
01C000
01C000
ENDCHAR
STARTCHAR Zacute
ENCODING 377
SWIDTH 600 0
DWIDTH 11 0
BBX 9 16 1 0
BITMAP
001800
00B400
018000
000000
7FFF80
000B00
001D00
002800
007400
00E000
02C000
074000
0E0000
2C0000
740000
BFFF80
ENDCHAR
STARTCHAR zacute
ENCODING 378
SWIDTH 600 0
DWIDTH 11 0
BBX 9 14 1 0
BITMAP
001800
003800
00A000
008000
000000
3FFF40
001E00
003800
00B000
02D000
074000
1E0000
380000
BFFF80
ENDCHAR
STARTCHAR Zdotaccent
ENCODING 379
SWIDTH 600 0
DWIDTH 11 0
BBX 9 15 1 0
BITMAP
01E000
01E000
000000
7FFF80
000B00
001D00
002800
007400
00E000
02C000
074000
0E0000
2C0000
740000
BFFF80
ENDCHAR
STARTCHAR zdotaccent
ENCODING 380
SWIDTH 600 0
DWIDTH 11 0
BBX 9 13 1 0
BITMAP
01E000
01E000
000000
000000
3FFF40
001E00
003800
00B000
02D000
074000
1E0000
380000
BFFF80
ENDCHAR
STARTCHAR Zcaron
ENCODING 381
SWIDTH 600 0
DWIDTH 11 0
BBX 9 15 1 0
BITMAP
090800
076800
01E000
7FFF80
000B00
001D00
002800
007400
00E000
02C000
074000
0E0000
2C0000
740000
BFFF80
ENDCHAR
STARTCHAR zcaron
ENCODING 382
SWIDTH 600 0
DWIDTH 11 0
BBX 9 13 1 0
BITMAP
090900
076800
01F000
000000
3FFF40
001E00
003800
00B000
02D000
074000
1E0000
380000
BFFF80
ENDCHAR
STARTCHAR longs
ENCODING 383
SWIDTH 600 0
DWIDTH 11 0
BBX 9 13 2 0
BITMAP
01BE40
078100
0B0000
0A0000
FE0000
0A0000
0A0000
0A0000
0A0000
0A0000
0A0000
0A0000
0A0000
ENDCHAR
STARTCHAR uni0180
ENCODING 384
SWIDTH 600 0
DWIDTH 11 0
BBX 10 13 0 0
BITMAP
1C0000
1C0000
BFFC00
1C0000
1C0000
1DBE00
1E42C0
1D00E0
1C00E0
1C00E0
1C01D0
1E4780
1DBE00
ENDCHAR
STARTCHAR uni018A
ENCODING 394
SWIDTH 600 0
DWIDTH 11 0
BBX 11 12 0 0
BITMAP
0BF900
39D780
71D0D0
A1D0B0
A1D070
75D074
19D074
01D070
01D0B0
01D0E0
01D680
01FE00
ENDCHAR
STARTCHAR uni018F
ENCODING 399
SWIDTH 600 0
DWIDTH 11 0
BBX 9 12 1 0
BITMAP
0BF400
181E00
000740
000380
000280
0002C0
FFFFC0
E00280
A00380
700700
2D1D00
0BE400
ENDCHAR
STARTCHAR uni0192
ENCODING 402
SWIDTH 600 0
DWIDTH 11 0
BBX 9 14 1 -2
BITMAP
002F40
007400
00E000
00D000
01D000
1FFE00
01C000
02C000
028000
028000
034000
034000
0B0000
F80000
ENDCHAR
STARTCHAR uni0193
ENCODING 403
SWIDTH 600 0
DWIDTH 11 0
BBX 10 14 1 0
BITMAP
0002D0
000700
06FF00
1D0700
740000
B00000
E00000
E00000
E03F80
E00280
B00280
740280
1D0780
06F900
ENDCHAR
STARTCHAR Ohorn
ENCODING 416
SWIDTH 600 0
DWIDTH 11 0
BBX 9 15 1 0
BITMAP
000180
0001C0
0001C0
0BEA40
2D1E00
700740
A00380
E002C0
D002C0
D002C0
E00280
A00380
740700
2D1E00
0BE400
ENDCHAR
STARTCHAR ohorn
ENCODING 417
SWIDTH 600 0
DWIDTH 11 0
BBX 9 12 1 0
BITMAP
000180
0001C0
000180
0BFA00
291E00
B00740
A00380
E00380
A00380
700740
291E00
0BF400
ENDCHAR
STARTCHAR Uhorn
ENCODING 431
SWIDTH 600 0
DWIDTH 11 0
BBX 11 15 1 0
BITMAP
000020
000034
000070
B003D0
B00340
B00340
B00340
B00340
B00340
B00340
B00340
700340
740700
2D1E00
0BF800
ENDCHAR
STARTCHAR uhorn
ENCODING 432
SWIDTH 600 0
DWIDTH 11 0
BBX 10 12 1 0
BITMAP
000060
0000A0
0001E0
B00780
B00700
B00700
B00700
B00700
B00700
700B00
782B00
1F9300
ENDCHAR
STARTCHAR uni01C2
ENCODING 450
SWIDTH 600 0
DWIDTH 11 0
BBX 9 17 1 -4
BITMAP
01C000
01C000
01C000
01C000
01C000
01C000
7FFF40
01C000
01C000
7FFF40
01C000
01C000
01C000
01C000
01C000
01C000
01C000
ENDCHAR
STARTCHAR uni01CD
ENCODING 461
SWIDTH 600 0
DWIDTH 11 0
BBX 10 15 0 0
BITMAP
020200
029D00
00B800
00B400
00E800
01DC00
028D00
034A00
070700
0A0340
0FFF80
1C01C0
2800D0
3800A0
740070
ENDCHAR
STARTCHAR uni01CE
ENCODING 462
SWIDTH 600 0
DWIDTH 11 0
BBX 9 13 1 0
BITMAP
090900
076800
01F000
000000
1BF800
241E00
000700
01BF40
2E4740
740740
B00740
741B40
1FD340
ENDCHAR
STARTCHAR uni01CF
ENCODING 463
SWIDTH 600 0
DWIDTH 11 0
BBX 8 15 1 0
BITMAP
0808
0A74
02E0
7FFF
01C0
01C0
01C0
01C0
01C0
01C0
01C0
01C0
01C0
01C0
7FFF
ENDCHAR
STARTCHAR uni01D0
ENCODING 464
SWIDTH 600 0
DWIDTH 11 0
BBX 8 13 1 0
BITMAP
0606
029D
00F4
0000
7FF0
0070
0070
0070
0070
0070
0070
0070
0070
ENDCHAR
STARTCHAR uni01D1
ENCODING 465
SWIDTH 600 0
DWIDTH 11 0
BBX 9 15 1 0
BITMAP
080800
0A7400
02E000
0BE400
2D1E00
700740
A00380
E00280
D002C0
D002C0
E00280
A00380
740740
2D1E00
0BE400
ENDCHAR
STARTCHAR uni01D2
ENCODING 466
SWIDTH 600 0
DWIDTH 11 0
BBX 9 13 1 0
BITMAP
080800
0A7400
02E000
000000
0BF400
291E00
B00740
A00380
E00380
A00380
700740
291E00
0BF400
ENDCHAR
STARTCHAR uni01D3
ENCODING 467
SWIDTH 600 0
DWIDTH 11 0
BBX 9 15 1 0
BITMAP
080800
0A7400
02E000
B00340
B00340
B00340
B00340
B00340
B00340
B00340
B00340
700340
740700
2D1E00
0BE400
ENDCHAR
STARTCHAR uni01D4
ENCODING 468
SWIDTH 600 0
DWIDTH 11 0
BBX 8 13 1 0
BITMAP
1808
0A74
02D0
0000
B007
B007
B007
B007
B007
B007
700B
782B
1F93
ENDCHAR
STARTCHAR uni01D5
ENCODING 469
SWIDTH 600 0
DWIDTH 11 0
BBX 9 17 1 0
BITMAP
0FF800
000000
0D1C00
0D1C00
000000
B00340
B00340
B00340
B00340
B00340
B00340
B00340
B00340
700340
740700
2D1E00
0BE400
ENDCHAR
STARTCHAR uni01D6
ENCODING 470
SWIDTH 600 0
DWIDTH 11 0
BBX 8 14 1 0
BITMAP
0FF8
0000
0D28
0D28
0000
B007
B007
B007
B007
B007
B007
700B
782B
1F93
ENDCHAR
STARTCHAR uni01D7
ENCODING 471
SWIDTH 600 0
DWIDTH 11 0
BBX 9 18 1 0
BITMAP
002000
00A000
008000
0D1C00
0D1C00
000000
B00340
B00340
B00340
B00340
B00340
B00340
B00340
B00340
700340
740700
2D1E00
0BE400
ENDCHAR
STARTCHAR uni01D8
ENCODING 472
SWIDTH 600 0
DWIDTH 11 0
BBX 8 15 1 0
BITMAP
0060
0090
0180
0D28
0D28
0000
B007
B007
B007
B007
B007
B007
700B
782B
1F93
ENDCHAR
STARTCHAR uni01D9
ENCODING 473
SWIDTH 600 0
DWIDTH 11 0
BBX 9 17 1 0
BITMAP
092400
02E000
0D1C00
0D1C00
000000
B00340
B00340
B00340
B00340
B00340
B00340
B00340
B00340
700340
740700
2D1E00
0BE400
ENDCHAR
STARTCHAR uni01DA
ENCODING 474
SWIDTH 600 0
DWIDTH 11 0
BBX 8 15 1 0
BITMAP
0924
02D0
0000
0D28
0D28
0000
B007
B007
B007
B007
B007
B007
700B
782B
1F93
ENDCHAR
STARTCHAR uni01DB
ENCODING 475
SWIDTH 600 0
DWIDTH 11 0
BBX 9 18 1 0
BITMAP
060000
034000
008000
0D1C00
0D1C00
000000
B00340
B00340
B00340
B00340
B00340
B00340
B00340
B00340
700340
740700
2D1E00
0BE400
ENDCHAR
STARTCHAR uni01DC
ENCODING 476
SWIDTH 600 0
DWIDTH 11 0
BBX 8 15 1 0
BITMAP
0200
0240
0080
0D28
0D28
0000
B007
B007
B007
B007
B007
B007
700B
782B
1F93
ENDCHAR
STARTCHAR uni01E2
ENCODING 482
SWIDTH 600 0
DWIDTH 11 0
BBX 11 14 0 0
BITMAP
003FF0
000000
007FF4
00FC00
01DC00
029C00
035C00
071FE0
0E1C00
1FFC00
281C00
341C00
701C00
A01FF8
ENDCHAR
STARTCHAR uni01E3
ENCODING 483
SWIDTH 600 0
DWIDTH 11 0
BBX 11 12 0 0
BITMAP
02FF00
000000
000000
2F87D0
20AC74
007428
06F028
2D7FF8
B03000
A03400
70AD10
2F4BE4
ENDCHAR
STARTCHAR Gcaron
ENCODING 486
SWIDTH 600 0
DWIDTH 11 0
BBX 9 15 1 0
BITMAP
050900
036C00
01F000
06FD00
1D0700
740000
B00000
E00000
E00000
E03F80
E00280
B00280
740280
1D0780
06F900
ENDCHAR
STARTCHAR gcaron
ENCODING 487
SWIDTH 600 0
DWIDTH 11 0
BBX 9 17 1 -4
BITMAP
080800
076800
02E000
000000
0BFFC0
2D2D00
340E00
340A00
281D00
1FF400
340000
340000
2FFE40
7002C0
A001C0
740780
1BF900
ENDCHAR
STARTCHAR uni01EA
ENCODING 490
SWIDTH 600 0
DWIDTH 11 0
BBX 9 16 1 -4
BITMAP
0BE400
2D1E00
700740
A00380
E00280
D002C0
D002C0
E00280
A00380
700740
2D1D00
0BF400
018000
030000
034000
02E000
ENDCHAR
STARTCHAR uni01EB
ENCODING 491
SWIDTH 600 0
DWIDTH 11 0
BBX 9 13 1 -4
BITMAP
0BF400
291E00
B00740
A00380
E00380
A00380
700740
291E00
0BF400
018000
024000
034000
01F400
ENDCHAR
STARTCHAR uni01F4
ENCODING 500
SWIDTH 600 0
DWIDTH 11 0
BBX 9 16 1 0
BITMAP
001800
007400
009000
000000
06FD00
1D0700
740000
B00000
E00000
E00000
E03F80
E00280
B00280
740280
1D0780
06F900
ENDCHAR
STARTCHAR uni01F5
ENCODING 501
SWIDTH 600 0
DWIDTH 11 0
BBX 9 18 1 -4
BITMAP
001400
007800
00E000
018000
000000
0BFFC0
2D2D00
340E00
340A00
281D00
1FF400
340000
340000
2FFE40
7002C0
A001C0
740780
1BF900
ENDCHAR
STARTCHAR uni01F8
ENCODING 504
SWIDTH 600 0
DWIDTH 11 0
BBX 9 16 1 0
BITMAP
060000
028000
009000
000000
B40340
BC0340
AD0340
AB0340
B34340
B2C340
B0D340
B0B340
B03740
B02B40
B00F40
B00B40
ENDCHAR
STARTCHAR uni01F9
ENCODING 505
SWIDTH 600 0
DWIDTH 11 0
BBX 9 14 1 0
BITMAP
060000
078000
01D000
006000
000000
71F900
790B00
740740
700340
700340
700340
700340
700340
700340
ENDCHAR
STARTCHAR Aringacute
ENCODING 506
SWIDTH 600 0
DWIDTH 11 0
BBX 10 17 0 0
BITMAP
000800
003800
008800
018C00
00B800
00B400
00E800
01DC00
028D00
034A00
070700
0A0340
0FFF80
1C01C0
2800D0
3800A0
740070
ENDCHAR
STARTCHAR aringacute
ENCODING 507
SWIDTH 600 0
DWIDTH 11 0
BBX 9 15 1 0
BITMAP
002400
00A000
021400
031800
02F400
000000
1BF800
241E00
000700
016B40
1FAB40
740740
B00740
741B40
1FD340
ENDCHAR
STARTCHAR AEacute
ENCODING 508
SWIDTH 600 0
DWIDTH 11 0
BBX 11 16 0 0
BITMAP
000090
0002D0
000600
000000
007FF4
00FC00
01DC00
029C00
035C00
071FE0
0E1C00
1FFC00
281C00
341C00
701C00
A01FF8
ENDCHAR
STARTCHAR aeacute
ENCODING 509
SWIDTH 600 0
DWIDTH 11 0
BBX 11 14 0 0
BITMAP
000600
000E00
003800
006000
000000
2F87D0
20AC74
007428
06F028
2D7FF8
B03000
A03400
70AD10
2F4BE4
ENDCHAR
STARTCHAR Oslashacute
ENCODING 510
SWIDTH 600 0
DWIDTH 11 0
BBX 9 16 1 0
BITMAP
002400
00A000
018000
000000
0BE680
2D1F40
700F40
A02B80
E07280
D0D2C0
D282C0
E70280
BD0380
780740
BD1E00
DBE400
ENDCHAR
STARTCHAR oslashacute
ENCODING 511
SWIDTH 600 0
DWIDTH 11 0
BBX 9 14 1 0
BITMAP
002400
007400
01D000
014000
000000
0BF640
291F00
B02F40
A07380
E1D380
A74380
7D0740
3D1E00
ABF400
ENDCHAR
STARTCHAR uni0218
ENCODING 536
SWIDTH 600 0
DWIDTH 11 0
BBX 9 16 1 -4
BITMAP
06F900
2D0700
340000
380000
2E0000
0BE400
00BE00
000B40
000380
100380
B80B00
1BF800
000000
01E000
007000
039000
ENDCHAR
STARTCHAR uni0219
ENCODING 537
SWIDTH 600 0
DWIDTH 11 0
BBX 9 13 1 -4
BITMAP
0BF900
381A00
340000
2E4000
06F900
001B40
000340
740B00
1BF900
000000
01D000
007000
039000
ENDCHAR
STARTCHAR uni021A
ENCODING 538
SWIDTH 600 0
DWIDTH 11 0
BBX 10 16 0 -4
BITMAP
7FFFF0
007000
007000
007000
007000
007000
007000
007000
007000
007000
007000
007000
000000
007400
002800
01E400
ENDCHAR
STARTCHAR uni021B
ENCODING 539
SWIDTH 600 0
DWIDTH 11 0
BBX 9 16 1 -4
BITMAP
034000
034000
074000
BFFF40
074000
074000
074000
074000
074000
034000
028040
00BF40
000000
003800
001C00
00A400
ENDCHAR
STARTCHAR uni0237
ENCODING 567
SWIDTH 600 0
DWIDTH 11 0
BBX 6 13 1 -4
BITMAP
7FF0
0070
0070
0070
0070
0070
0070
0070
0070
0070
0070
41E0
BF80
ENDCHAR
STARTCHAR uni0243
ENCODING 579
SWIDTH 600 0
DWIDTH 11 0
BBX 10 12 0 0
BITMAP
0FFE00
0D06C0
0D01D0
0D01C0
0D0780
0FFE00
0D02D0
0D00A0
7FF0B0
0D00A0
0D02D0
0FFE40
ENDCHAR
STARTCHAR uni0250
ENCODING 592
SWIDTH 600 0
DWIDTH 11 0
BBX 9 9 1 0
BITMAP
71FD00
790740
740340
740740
746E00
7F9000
340000
290A00
0BF900
ENDCHAR
STARTCHAR uni0251
ENCODING 593
SWIDTH 600 0
DWIDTH 11 0
BBX 8 9 1 0
BITMAP
0BE7
3D1F
B007
A007
E007
E007
B007
381F
1BE3
ENDCHAR
STARTCHAR uni0252
ENCODING 594
SWIDTH 600 0
DWIDTH 11 0
BBX 9 9 1 0
BITMAP
72F800
791B00
740740
700380
700380
700380
740740
791E00
72F800
ENDCHAR
STARTCHAR uni0253
ENCODING 595
SWIDTH 600 0
DWIDTH 11 0
BBX 9 13 1 0
BITMAP
0BD000
380000
740000
700000
72F800
791B00
740740
700380
700380
700380
740740
791E00
76F800
ENDCHAR
STARTCHAR uni0254
ENCODING 596
SWIDTH 600 0
DWIDTH 11 0
BBX 9 9 1 0
BITMAP
2FE400
646D00
000B00
000740
000740
000740
000B00
A06D00
2FE400
ENDCHAR
STARTCHAR uni0255
ENCODING 597
SWIDTH 600 0
DWIDTH 11 0
BBX 9 11 1 -2
BITMAP
06FD00
1E0640
380000
700000
B00000
706E00
3AD280
1F4240
0EFE00
280000
240000
ENDCHAR
STARTCHAR uni0256
ENCODING 598
SWIDTH 600 0
DWIDTH 11 0
BBX 10 17 1 -4
BITMAP
000700
000700
000700
000700
0BE700
3D1F00
B00700
A00700
E00700
E00700
B00700
381F00
1BE700
000700
000700
000340
0001E0
ENDCHAR
STARTCHAR uni0257
ENCODING 599
SWIDTH 600 0
DWIDTH 11 0
BBX 10 13 1 0
BITMAP
0001E0
000740
000700
000700
0BE700
3D1F00
B00700
A00700
E00700
E00700
B00700
781F00
1BE700
ENDCHAR
STARTCHAR uni0258
ENCODING 600
SWIDTH 600 0
DWIDTH 11 0
BBX 9 9 1 0
BITMAP
0BE400
381E00
B00700
A00340
FFFF80
000340
000700
241D00
2BE400
ENDCHAR
STARTCHAR uni0259
ENCODING 601
SWIDTH 600 0
DWIDTH 11 0
BBX 9 9 1 0
BITMAP
1BE400
241E00
000740
000380
BFFF80
A00380
700740
381E00
0BF400
ENDCHAR
STARTCHAR uni025A
ENCODING 602
SWIDTH 600 0
DWIDTH 11 0
BBX 11 9 0 0
BITMAP
1BE000
147800
001ED0
007EA0
0B9E2C
780D00
701D00
382800
0BE000
ENDCHAR
STARTCHAR uni025B
ENCODING 603
SWIDTH 600 0
DWIDTH 11 0
BBX 9 9 1 0
BITMAP
0BF900
2D0600
380000
1D0000
0BF000
380000
740000
390640
0BFA00
ENDCHAR
STARTCHAR uni025C
ENCODING 604
SWIDTH 600 0
DWIDTH 11 0
BBX 9 9 1 0
BITMAP
2FE400
641E00
000A00
001D00
07F800
001B00
000740
A41B00
2BF800
ENDCHAR
STARTCHAR uni025E
ENCODING 606
SWIDTH 600 0
DWIDTH 11 0
BBX 9 9 1 0
BITMAP
06F900
2D0B00
740740
A00A00
E0BD00
A00740
B00380
2D0740
0BF900
ENDCHAR
STARTCHAR uni025F
ENCODING 607
SWIDTH 600 0
DWIDTH 11 0
BBX 9 13 1 -4
BITMAP
7FF000
007000
007000
007000
2FFFC0
007000
007000
007000
007000
007000
007000
41E000
BF8000
ENDCHAR
STARTCHAR uni0260
ENCODING 608
SWIDTH 600 0
DWIDTH 11 0
BBX 10 15 1 -4
BITMAP
0002E0
000740
0BE700
3D1F00
B00700
A00700
E00700
E00700
B00700
391F00
0BD700
000700
000B00
241E00
2BE400
ENDCHAR
STARTCHAR uni0261
ENCODING 609
SWIDTH 600 0
DWIDTH 11 0
BBX 8 13 1 -4
BITMAP
0BE7
3D1F
B007
A007
E007
E007
B007
381F
0BE7
0007
000B
241D
2BE4
ENDCHAR
STARTCHAR uni0262
ENCODING 610
SWIDTH 600 0
DWIDTH 11 0
BBX 9 9 1 0
BITMAP
06FD00
1E0600
380000
700000
B07F40
700240
740240
2D0740
06F900
ENDCHAR
STARTCHAR uni0263
ENCODING 611
SWIDTH 600 0
DWIDTH 11 0
BBX 9 13 1 -4
BITMAP
E00280
700740
340A00
2C0D00
0D1C00
0A3400
077000
02E000
02E000
077000
0A3400
0A3400
02E000
ENDCHAR
STARTCHAR uni0264
ENCODING 612
SWIDTH 600 0
DWIDTH 11 0
BBX 9 9 1 0
BITMAP
B91F40
07B400
03E000
0F7800
2C1D00
380A00
380A00
2D1D00
0BE400
ENDCHAR
STARTCHAR uni0265
ENCODING 613
SWIDTH 600 0
DWIDTH 11 0
BBX 8 13 1 -4
BITMAP
B007
B007
B007
B007
B007
B007
700B
782B
1F97
0007
0007
0007
0007
ENDCHAR
STARTCHAR uni0266
ENCODING 614
SWIDTH 600 0
DWIDTH 11 0
BBX 9 13 1 0
BITMAP
0BD000
380000
740000
700000
71F900
7A0B00
740740
700340
700340
700340
700340
700340
700340
ENDCHAR
STARTCHAR uni0267
ENCODING 615
SWIDTH 600 0
DWIDTH 11 0
BBX 9 17 1 -4
BITMAP
0BD000
380000
740000
700000
71F900
7A0B00
740740
700340
700340
700340
700340
700340
700340
000340
000340
000700
007D00
ENDCHAR
STARTCHAR uni0268
ENCODING 616
SWIDTH 600 0
DWIDTH 11 0
BBX 9 13 1 0
BITMAP
00B400
00B400
000000
000000
7FF000
007000
007000
007000
2FFFC0
007000
007000
007000
007000
ENDCHAR
STARTCHAR uni026A
ENCODING 618
SWIDTH 600 0
DWIDTH 11 0
BBX 9 9 1 0
BITMAP
7FFF40
01C000
01C000
01C000
01C000
01C000
01C000
01C000
7FFF40
ENDCHAR
STARTCHAR uni026B
ENCODING 619
SWIDTH 600 0
DWIDTH 11 0
BBX 9 13 1 0
BITMAP
BFC000
02C000
02C000
02C000
06C000
3BC900
22F800
02C000
02C000
02C000
01C000
01D000
007F40
ENDCHAR
STARTCHAR uni026C
ENCODING 620
SWIDTH 600 0
DWIDTH 11 0
BBX 9 13 1 0
BITMAP
BFC000
02C000
02C000
02C000
7EC000
A2C000
2FFD00
02C000
02C000
02C000
01C000
00D000
007F40
ENDCHAR
STARTCHAR uni026D
ENCODING 621
SWIDTH 600 0
DWIDTH 11 0
BBX 9 17 1 -4
BITMAP
BFC000
02C000
02C000
02C000
02C000
02C000
02C000
02C000
02C000
02C000
02C000
02C000
02C000
02C000
01C000
01D000
007F40
ENDCHAR
STARTCHAR uni026E
ENCODING 622
SWIDTH 600 0
DWIDTH 11 0
BBX 10 17 1 -4
BITMAP
B00000
B00000
B00000
B00000
BFFFC0
B00740
B00E00
B02C00
B07400
B0E000
B1FE00
B00780
B001C0
0001D0
0002C0
0D0740
06F900
ENDCHAR
STARTCHAR uni026F
ENCODING 623
SWIDTH 600 0
DWIDTH 11 0
BBX 10 9 0 0
BITMAP
7470A0
7470A0
7470A0
7470A0
7470A0
7470A0
7470A0
34B5E0
1E2E60
ENDCHAR
STARTCHAR uni0270
ENCODING 624
SWIDTH 600 0
DWIDTH 11 0
BBX 10 13 0 -4
BITMAP
7470A0
7470A0
7470A0
7470A0
7470A0
7470A0
7470A0
34B5E0
1F6EA0
0000A0
0000A0
0000A0
0000A0
ENDCHAR
STARTCHAR uni0271
ENCODING 625
SWIDTH 600 0
DWIDTH 11 0
BBX 9 13 1 -4
BITMAP
DB5F40
F1E2C0
E0D1C0
E0D1C0
E0D1C0
E0D1C0
E0D1C0
E0D1C0
E0D1C0
0001C0
0001C0
000280
001F40
ENDCHAR
STARTCHAR uni0272
ENCODING 626
SWIDTH 600 0
DWIDTH 11 0
BBX 10 13 0 -4
BITMAP
1C7E40
1E82C0
1D01D0
1D00D0
1D00D0
1D00D0
1D00D0
1D00D0
1D00D0
1D0000
1D0000
1C0000
F40000
ENDCHAR
STARTCHAR uni0273
ENCODING 627
SWIDTH 600 0
DWIDTH 11 0
BBX 10 13 1 -4
BITMAP
71F800
790B00
740740
700340
700340
700340
700340
700340
700340
000340
000340
000380
0001F0
ENDCHAR
STARTCHAR uni0274
ENCODING 628
SWIDTH 600 0
DWIDTH 11 0
BBX 8 9 1 0
BITMAP
7407
7D07
7A07
7347
71C7
70A7
703B
701F
700B
ENDCHAR
STARTCHAR uni0275
ENCODING 629
SWIDTH 600 0
DWIDTH 11 0
BBX 9 9 1 0
BITMAP
0BF400
391E00
B00740
A00380
FFFF80
A00280
B00340
391E00
0BF400
ENDCHAR
STARTCHAR uni0276
ENCODING 630
SWIDTH 600 0
DWIDTH 11 0
BBX 11 9 0 0
BITMAP
07FFF4
2D1C00
381C00
741C00
701FE0
741C00
341C00
2D1C00
0BFFF8
ENDCHAR
STARTCHAR uni0278
ENCODING 632
SWIDTH 600 0
DWIDTH 11 0
BBX 10 17 0 -4
BITMAP
007000
007000
007000
007000
06FE00
1E76C0
2870E0
3470B0
7470B0
3470B0
2870E0
1E76C0
06FE00
007000
007000
007000
007000
ENDCHAR
STARTCHAR uni0279
ENCODING 633
SWIDTH 600 0
DWIDTH 11 0
BBX 8 9 1 0
BITMAP
001D
001D
001D
001D
001D
001D
002D
019D
BE0D
ENDCHAR
STARTCHAR uni027A
ENCODING 634
SWIDTH 600 0
DWIDTH 11 0
BBX 8 13 1 0
BITMAP
001D
001D
001D
001D
001D
001D
001D
001D
001D
001D
002D
019D
BE0D
ENDCHAR
STARTCHAR uni027B
ENCODING 635
SWIDTH 600 0
DWIDTH 11 0
BBX 9 13 1 -4
BITMAP
00A000
00A000
00A000
00A000
00A000
00A000
00E000
02A000
BDA000
00A000
006000
007400
002F40
ENDCHAR
STARTCHAR uni027D
ENCODING 637
SWIDTH 600 0
DWIDTH 11 0
BBX 8 13 2 -4
BITMAP
71BD
7640
7800
7400
7000
7000
7000
7000
7000
7000
7400
2804
0BF4
ENDCHAR
STARTCHAR uni027E
ENCODING 638
SWIDTH 600 0
DWIDTH 11 0
BBX 8 9 2 0
BITMAP
06FD
1E00
3800
7400
7000
7000
7000
7000
7000
ENDCHAR
STARTCHAR uni0280
ENCODING 640
SWIDTH 600 0
DWIDTH 11 0
BBX 9 9 1 0
BITMAP
7FF900
740B40
740340
740B00
7FF900
743800
741D00
740A00
740740
ENDCHAR
STARTCHAR uni0281
ENCODING 641
SWIDTH 600 0
DWIDTH 11 0
BBX 8 9 1 0
BITMAP
B007
3807
1D07
0A07
1FFF
7407
B007
7407
1FFF
ENDCHAR
STARTCHAR uni0282
ENCODING 642
SWIDTH 600 0
DWIDTH 11 0
BBX 9 13 1 -4
BITMAP
0BF900
381A00
340000
2E4000
06F900
001B40
000340
B40B00
ABF900
A00000
A00000
700000
2E0000
ENDCHAR
STARTCHAR uni0283
ENCODING 643
SWIDTH 600 0
DWIDTH 11 0
BBX 9 17 1 -4
BITMAP
006F40
00E000
01D000
01C000
01C000
01C000
01C000
01C000
01C000
01C000
01C000
01C000
01C000
01C000
01C000
428000
BE0000
ENDCHAR
STARTCHAR uni0284
ENCODING 644
SWIDTH 600 0
DWIDTH 11 0
BBX 9 17 1 -4
BITMAP
006F40
00E000
01D000
01C000
01C000
01C000
01C000
01C000
7FFF40
01C000
01C000
01C000
01C000
01C000
01C000
428000
BE0000
ENDCHAR
STARTCHAR uni0287
ENCODING 647
SWIDTH 600 0
DWIDTH 11 0
BBX 9 12 1 -3
BITMAP
BF8000
41E000
00B000
007000
007000
007000
007000
007000
BFFF80
007000
007000
007000
ENDCHAR
STARTCHAR uni0288
ENCODING 648
SWIDTH 600 0
DWIDTH 11 0
BBX 9 16 1 -4
BITMAP
034000
034000
074000
BFFF40
074000
074000
074000
074000
074000
074000
074000
074000
074000
034000
029040
00BF40
ENDCHAR
STARTCHAR uni0289
ENCODING 649
SWIDTH 600 0
DWIDTH 11 0
BBX 11 9 0 0
BITMAP
1D0280
1D0280
1D0280
FFFFF8
1D0280
1D0280
0D0380
0E0B80
06F680
ENDCHAR
STARTCHAR uni028A
ENCODING 650
SWIDTH 600 0
DWIDTH 11 0
BBX 9 9 1 0
BITMAP
FD2FC0
280D00
700700
A00340
E00380
A00380
B00740
391E00
0BF400
ENDCHAR
STARTCHAR uni028B
ENCODING 651
SWIDTH 600 0
DWIDTH 11 0
BBX 9 9 1 0
BITMAP
B03D00
B00740
B00380
B00380
B00380
B00340
740700
391E00
0BF400
ENDCHAR
STARTCHAR uni028C
ENCODING 652
SWIDTH 600 0
DWIDTH 11 0
BBX 9 9 1 0
BITMAP
02D000
03A000
073400
0D2800
1C1C00
280D00
340B00
700740
E00280
ENDCHAR
STARTCHAR uni028D
ENCODING 653
SWIDTH 600 0
DWIDTH 11 0
BBX 11 9 0 0
BITMAP
0F07C0
1F47C0
2A8AD0
2A8DD0
35DCA0
34D8B0
70A870
A0B434
A05038
ENDCHAR
STARTCHAR uni028E
ENCODING 654
SWIDTH 600 0
DWIDTH 11 0
BBX 9 13 1 0
BITMAP
001B40
007400
00A000
01D000
02C000
03D000
066000
0D3400
1C2800
280D00
340A00
B00740
D00280
ENDCHAR
STARTCHAR uni028F
ENCODING 655
SWIDTH 600 0
DWIDTH 11 0
BBX 9 9 1 0
BITMAP
B00380
380B00
1C1D00
0A2800
07B000
02D000
01C000
01C000
01C000
ENDCHAR
STARTCHAR uni0290
ENCODING 656
SWIDTH 600 0
DWIDTH 11 0
BBX 10 13 1 -4
BITMAP
3FFF40
001E00
003800
00B000
02D000
074000
1E0000
380000
BFFF40
000740
000340
000380
0001F0
ENDCHAR
STARTCHAR uni0291
ENCODING 657
SWIDTH 600 0
DWIDTH 11 0
BBX 10 11 1 -2
BITMAP
3FFF00
001E00
003800
00B000
02D000
074780
1D1C90
3824D0
BFFF40
006000
00A000
ENDCHAR
STARTCHAR uni0292
ENCODING 658
SWIDTH 600 0
DWIDTH 11 0
BBX 9 13 1 -4
BITMAP
7FFF00
001D00
007400
01D000
074000
0FF800
041E00
000740
000340
000340
000700
A41D00
1BE400
ENDCHAR
STARTCHAR uni0294
ENCODING 660
SWIDTH 600 0
DWIDTH 11 0
BBX 8 13 1 0
BITMAP
1BE4
741D
000B
0007
000B
001E
0078
02E0
0280
0280
0280
0280
0280
ENDCHAR
STARTCHAR uni0295
ENCODING 661
SWIDTH 600 0
DWIDTH 11 0
BBX 9 13 1 0
BITMAP
06F900
2D0B40
740100
700000
740000
2C0000
0F4000
02D000
00D000
00D000
00D000
00D000
00D000
ENDCHAR
STARTCHAR uni0298
ENCODING 664
SWIDTH 600 0
DWIDTH 11 0
BBX 9 13 1 0
BITMAP
07E400
2D1D00
740700
B00340
A00380
E18280
D2D280
E08280
A00380
A00340
740700
2D1D00
0BF400
ENDCHAR
STARTCHAR uni0299
ENCODING 665
SWIDTH 600 0
DWIDTH 11 0
BBX 8 9 2 0
BITMAP
FFE4
E01D
E00D
E01D
FFF8
E01E
E00B
E01E
FFF8
ENDCHAR
STARTCHAR uni029C
ENCODING 668
SWIDTH 600 0
DWIDTH 11 0
BBX 8 9 1 0
BITMAP
7007
7007
7007
7007
7FFF
7007
7007
7007
7007
ENDCHAR
STARTCHAR uni029D
ENCODING 669
SWIDTH 600 0
DWIDTH 11 0
BBX 8 18 1 -5
BITMAP
00B4
00B4
0000
0000
7FF0
0070
0070
0070
0070
0070
0070
0070
0070
7EB0
D1F0
D1F8
6F5D
0009
ENDCHAR
STARTCHAR uni029E
ENCODING 670
SWIDTH 600 0
DWIDTH 11 0
BBX 8 13 1 -4
BITMAP
A00B
340B
1C0B
0A2F
03FB
02CB
0B0B
280B
E00B
000B
000B
000B
000B
ENDCHAR
STARTCHAR uni029F
ENCODING 671
SWIDTH 600 0
DWIDTH 11 0
BBX 8 9 2 0
BITMAP
7000
7000
7000
7000
7000
7000
7000
7000
7FFE
ENDCHAR
STARTCHAR uni02A1
ENCODING 673
SWIDTH 600 0
DWIDTH 11 0
BBX 9 13 1 0
BITMAP
1BE400
741E00
000B00
000700
000B00
001D00
00B400
BFFF40
028000
028000
028000
028000
028000
ENDCHAR
STARTCHAR uni02A2
ENCODING 674
SWIDTH 600 0
DWIDTH 11 0
BBX 9 13 1 0
BITMAP
0BF900
2D0B40
740100
700000
340000
2D0000
074000
7FFF40
00E000
00E000
00E000
00E000
00E000
ENDCHAR
STARTCHAR uni02A4
ENCODING 676
SWIDTH 600 0
DWIDTH 11 0
BBX 11 17 0 -4
BITMAP
007000
007000
007000
007000
1FBFF8
74F034
A070B0
E070D0
D072C0
E07340
A0B7E0
74F038
2E701C
00001C
00002C
000838
000BE0
ENDCHAR
STARTCHAR uni02A6
ENCODING 678
SWIDTH 600 0
DWIDTH 11 0
BBX 11 12 0 0
BITMAP
080000
0D0000
0D0000
BFFFE0
1D2C10
1D1C00
1D0B40
1D01D0
1D0070
0D0034
0B40B0
02FF90
ENDCHAR
STARTCHAR uni02A7
ENCODING 679
SWIDTH 600 0
DWIDTH 11 0
BBX 10 17 1 -4
BITMAP
0002E0
280B00
280A00
280A00
FFFE00
380A00
380A00
380A00
380A00
380A00
280A00
2C0A00
0BCA00
000A00
000A00
000D00
00B800
ENDCHAR
STARTCHAR h.sups
ENCODING 688
SWIDTH 600 0
DWIDTH 11 0
BBX 6 9 3 7
BITMAP
4000
D000
D000
DB80
E1C0
D0D0
D0D0
D0D0
90D0
ENDCHAR
STARTCHAR j.sups
ENCODING 690
SWIDTH 600 0
DWIDTH 11 0
BBX 5 10 2 5
BITMAP
0280
0000
3F80
0280
0280
0280
0280
0280
0240
7E00
ENDCHAR
STARTCHAR r.sups
ENCODING 691
SWIDTH 600 0
DWIDTH 11 0
BBX 5 6 4 7
BITMAP
9B80
B400
A000
A000
A000
9000
ENDCHAR
STARTCHAR w.sups
ENCODING 695
SWIDTH 600 0
DWIDTH 11 0
BBX 8 6 1 7
BITMAP
D283
92C6
6299
3669
396C
2C38
ENDCHAR
STARTCHAR y.sups
ENCODING 696
SWIDTH 600 0
DWIDTH 11 0
BBX 6 8 2 5
BITMAP
7030
2460
1890
0DC0
0680
0300
0A00
3800
ENDCHAR
STARTCHAR uni02B9
ENCODING 697
SWIDTH 600 0
DWIDTH 11 0
BBX 3 5 4 8
BITMAP
34
34
70
70
60
ENDCHAR
STARTCHAR uni02BB
ENCODING 699
SWIDTH 600 0
DWIDTH 11 0
BBX 4 7 3 6
BITMAP
01
0D
28
30
7D
3E
2D
ENDCHAR
STARTCHAR uni02BC
ENCODING 700
SWIDTH 600 0
DWIDTH 11 0
BBX 3 7 4 6
BITMAP
B4
FC
BC
1C
24
A0
40
ENDCHAR
STARTCHAR uni02BE
ENCODING 702
SWIDTH 600 0
DWIDTH 11 0
BBX 4 6 4 9
BITMAP
E4
2C
0D
0D
1C
E4
ENDCHAR
STARTCHAR uni02BF
ENCODING 703
SWIDTH 600 0
DWIDTH 11 0
BBX 4 6 3 9
BITMAP
1E
74
60
60
74
1E
ENDCHAR
STARTCHAR uni02C1
ENCODING 705
SWIDTH 600 0
DWIDTH 11 0
BBX 5 7 3 8
BITMAP
6F40
D180
C000
D000
7800
0D00
0D00
ENDCHAR
STARTCHAR circumflex
ENCODING 710
SWIDTH 600 0
DWIDTH 11 0
BBX 5 3 3 10
BITMAP
2E00
A740
8080
ENDCHAR
STARTCHAR caron
ENCODING 711
SWIDTH 600 0
DWIDTH 11 0
BBX 5 3 3 10
BITMAP
8080
A740
2E00
ENDCHAR
STARTCHAR uni02C8
ENCODING 712
SWIDTH 600 0
DWIDTH 11 0
BBX 3 6 4 7
BITMAP
74
74
70
70
70
20
ENDCHAR
STARTCHAR uni02C9
ENCODING 713
SWIDTH 600 0
DWIDTH 11 0
BBX 5 1 3 11
BITMAP
FF80
ENDCHAR
STARTCHAR uni02CA
ENCODING 714
SWIDTH 600 0
DWIDTH 11 0
BBX 4 4 4 10
BITMAP
09
1D
74
50
ENDCHAR
STARTCHAR uni02CB
ENCODING 715
SWIDTH 600 0
DWIDTH 11 0
BBX 4 4 3 10
BITMAP
50
B4
2C
09
ENDCHAR
STARTCHAR uni02CC
ENCODING 716
SWIDTH 600 0
DWIDTH 11 0
BBX 3 6 4 -5
BITMAP
30
70
70
70
74
74
ENDCHAR
STARTCHAR uni02D0
ENCODING 720
SWIDTH 600 0
DWIDTH 11 0
BBX 3 9 4 0
BITMAP
FC
B4
20
00
00
00
20
B4
FC
ENDCHAR
STARTCHAR uni02D1
ENCODING 721
SWIDTH 600 0
DWIDTH 11 0
BBX 3 3 4 6
BITMAP
FC
B4
20
ENDCHAR
STARTCHAR breve
ENCODING 728
SWIDTH 600 0
DWIDTH 11 0
BBX 6 3 2 10
BITMAP
6030
34A0
1B80
ENDCHAR
STARTCHAR dotaccent
ENCODING 729
SWIDTH 600 0
DWIDTH 11 0
BBX 3 2 4 11
BITMAP
B4
B4
ENDCHAR
STARTCHAR ring
ENCODING 730
SWIDTH 600 0
DWIDTH 11 0
BBX 5 4 3 10
BITMAP
2E00
6240
6240
2E00
ENDCHAR
STARTCHAR ogonek
ENCODING 731
SWIDTH 600 0
DWIDTH 11 0
BBX 4 4 3 -4
BITMAP
18
30
70
2E
ENDCHAR
STARTCHAR tilde
ENCODING 732
SWIDTH 600 0
DWIDTH 11 0
BBX 7 3 2 10
BITMAP
1410
7A24
91E0
ENDCHAR
STARTCHAR hungarumlaut
ENCODING 733
SWIDTH 600 0
DWIDTH 11 0
BBX 6 3 3 10
BITMAP
1860
24C0
6140
ENDCHAR
STARTCHAR uni02DE
ENCODING 734
SWIDTH 600 0
DWIDTH 11 0
BBX 5 3 2 4
BITMAP
6C00
9900
0780
ENDCHAR
STARTCHAR uni02E0
ENCODING 736
SWIDTH 600 0
DWIDTH 11 0
BBX 6 9 2 4
BITMAP
7030
24A0
18D0
0DC0
0B40
0740
0980
0D80
0B40
ENDCHAR
STARTCHAR l.sups
ENCODING 737
SWIDTH 600 0
DWIDTH 11 0
BBX 5 9 3 7
BITMAP
7C00
0C00
0C00
0C00
0C00
0C00
0C00
0D00
07C0
ENDCHAR
STARTCHAR s.sups
ENCODING 738
SWIDTH 600 0
DWIDTH 11 0
BBX 5 6 3 7
BITMAP
6F40
A140
6900
0680
51C0
7F40
ENDCHAR
STARTCHAR x.sups
ENCODING 739
SWIDTH 600 0
DWIDTH 11 0
BBX 5 6 3 7
BITMAP
A180
3740
1E00
2A00
7240
9180
ENDCHAR
STARTCHAR uni02E4
ENCODING 740
SWIDTH 600 0
DWIDTH 11 0
BBX 5 9 3 7
BITMAP
6F40
D180
C000
9000
7800
0D00
0D00
0D00
0800
ENDCHAR
STARTCHAR uni0300
ENCODING 768
SWIDTH 600 0
DWIDTH 11 0
BBX 4 4 3 10
BITMAP
50
B4
2C
09
ENDCHAR
STARTCHAR uni0301
ENCODING 769
SWIDTH 600 0
DWIDTH 11 0
BBX 4 4 4 10
BITMAP
09
1D
74
50
ENDCHAR
STARTCHAR uni0302
ENCODING 770
SWIDTH 600 0
DWIDTH 11 0
BBX 5 3 3 10
BITMAP
2E00
A740
8080
ENDCHAR
STARTCHAR uni0303
ENCODING 771
SWIDTH 600 0
DWIDTH 11 0
BBX 7 3 2 10
BITMAP
1410
7A24
91E0
ENDCHAR
STARTCHAR uni0304
ENCODING 772
SWIDTH 600 0
DWIDTH 11 0
BBX 5 1 3 11
BITMAP
FF80
ENDCHAR
STARTCHAR uni0305
ENCODING 773
SWIDTH 600 0
DWIDTH 11 0
BBX 5 1 3 11
BITMAP
FF80
ENDCHAR
STARTCHAR uni0306
ENCODING 774
SWIDTH 600 0
DWIDTH 11 0
BBX 6 3 2 10
BITMAP
6030
34A0
1B80
ENDCHAR
STARTCHAR uni0307
ENCODING 775
SWIDTH 600 0
DWIDTH 11 0
BBX 3 2 4 11
BITMAP
B4
B4
ENDCHAR
STARTCHAR uni0308
ENCODING 776
SWIDTH 600 0
DWIDTH 11 0
BBX 6 2 2 11
BITMAP
74B0
74B0
ENDCHAR
STARTCHAR uni0309
ENCODING 777
SWIDTH 600 0
DWIDTH 11 0
BBX 3 4 4 10
BITMAP
A4
28
28
60
ENDCHAR
STARTCHAR uni030A
ENCODING 778
SWIDTH 600 0
DWIDTH 11 0
BBX 5 4 3 10
BITMAP
2E00
6240
6240
2E00
ENDCHAR
STARTCHAR uni030B
ENCODING 779
SWIDTH 600 0
DWIDTH 11 0
BBX 6 3 3 10
BITMAP
1860
24C0
6140
ENDCHAR
STARTCHAR uni030C
ENCODING 780
SWIDTH 600 0
DWIDTH 11 0
BBX 5 3 3 10
BITMAP
8080
A740
2E00
ENDCHAR
STARTCHAR uni030F
ENCODING 783
SWIDTH 600 0
DWIDTH 11 0
BBX 5 3 2 10
BITMAP
9200
6280
2480
ENDCHAR
STARTCHAR uni0310
ENCODING 784
SWIDTH 600 0
DWIDTH 11 0
BBX 7 5 2 10
BITMAP
0600
0B40
6124
3470
1B80
ENDCHAR
STARTCHAR uni0311
ENCODING 785
SWIDTH 600 0
DWIDTH 11 0
BBX 6 3 2 10
BITMAP
1F80
34A0
6030
ENDCHAR
STARTCHAR uni0312
ENCODING 786
SWIDTH 600 0
DWIDTH 11 0
BBX 3 4 4 10
BITMAP
24
50
B0
70
ENDCHAR
STARTCHAR uni0313
ENCODING 787
SWIDTH 600 0
DWIDTH 11 0
BBX 3 4 4 10
BITMAP
70
74
24
50
ENDCHAR
STARTCHAR uni0318
ENCODING 792
SWIDTH 600 0
DWIDTH 11 0
BBX 3 5 4 -5
BITMAP
04
0C
FC
0C
04
ENDCHAR
STARTCHAR uni0319
ENCODING 793
SWIDTH 600 0
DWIDTH 11 0
BBX 4 5 3 -5
BITMAP
10
60
7E
60
10
ENDCHAR
STARTCHAR uni031A
ENCODING 794
SWIDTH 600 0
DWIDTH 11 0
BBX 3 3 4 10
BITMAP
FC
0C
08
ENDCHAR
STARTCHAR uni031B
ENCODING 795
SWIDTH 600 0
DWIDTH 11 0
BBX 3 4 5 8
BITMAP
18
1C
28
A0
ENDCHAR
STARTCHAR uni031C
ENCODING 796
SWIDTH 600 0
DWIDTH 11 0
BBX 3 4 4 -5
BITMAP
78
D0
D0
78
ENDCHAR
STARTCHAR uni031D
ENCODING 797
SWIDTH 600 0
DWIDTH 11 0
BBX 5 3 3 -4
BITMAP
0C00
0C00
BF40
ENDCHAR
STARTCHAR uni031E
ENCODING 798
SWIDTH 600 0
DWIDTH 11 0
BBX 5 3 3 -5
BITMAP
BF40
0C00
0C00
ENDCHAR
STARTCHAR uni031F
ENCODING 799
SWIDTH 600 0
DWIDTH 11 0
BBX 5 5 3 -5
BITMAP
0400
0C00
BF40
0C00
0400
ENDCHAR
STARTCHAR uni0320
ENCODING 800
SWIDTH 600 0
DWIDTH 11 0
BBX 5 1 3 -3
BITMAP
BF40
ENDCHAR
STARTCHAR uni0323
ENCODING 803
SWIDTH 600 0
DWIDTH 11 0
BBX 3 2 4 -3
BITMAP
B4
B4
ENDCHAR
STARTCHAR uni0324
ENCODING 804
SWIDTH 600 0
DWIDTH 11 0
BBX 6 2 2 -3
BITMAP
74B0
74B0
ENDCHAR
STARTCHAR uni0325
ENCODING 805
SWIDTH 600 0
DWIDTH 11 0
BBX 5 4 3 -5
BITMAP
2E00
6240
6240
2E00
ENDCHAR
STARTCHAR uni0326
ENCODING 806
SWIDTH 600 0
DWIDTH 11 0
BBX 4 3 3 -4
BITMAP
1D
0A
79
ENDCHAR
STARTCHAR uni0327
ENCODING 807
SWIDTH 600 0
DWIDTH 11 0
BBX 4 5 3 -5
BITMAP
18
2D
0A
0A
78
ENDCHAR
STARTCHAR uni0328
ENCODING 808
SWIDTH 600 0
DWIDTH 11 0
BBX 4 4 3 -4
BITMAP
18
30
70
2E
ENDCHAR
STARTCHAR uni0329
ENCODING 809
SWIDTH 600 0
DWIDTH 11 0
BBX 2 4 4 -5
BITMAP
30
30
70
70
ENDCHAR
STARTCHAR uni032A
ENCODING 810
SWIDTH 600 0
DWIDTH 11 0
BBX 5 3 3 -4
BITMAP
BF80
8180
8140
ENDCHAR
STARTCHAR uni032C
ENCODING 812
SWIDTH 600 0
DWIDTH 11 0
BBX 5 3 3 -4
BITMAP
8080
A740
2E00
ENDCHAR
STARTCHAR uni032E
ENCODING 814
SWIDTH 600 0
DWIDTH 11 0
BBX 6 3 2 -4
BITMAP
6030
34A0
1B80
ENDCHAR
STARTCHAR uni032F
ENCODING 815
SWIDTH 600 0
DWIDTH 11 0
BBX 6 3 2 -4
BITMAP
1F80
34A0
6030
ENDCHAR
STARTCHAR uni0330
ENCODING 816
SWIDTH 600 0
DWIDTH 11 0
BBX 7 3 2 -4
BITMAP
1410
7A24
91E0
ENDCHAR
STARTCHAR uni0331
ENCODING 817
SWIDTH 600 0
DWIDTH 11 0
BBX 5 1 3 -3
BITMAP
FF80
ENDCHAR
STARTCHAR uni0334
ENCODING 820
SWIDTH 600 0
DWIDTH 11 0
BBX 7 3 2 3
BITMAP
1404
AA18
81F4
ENDCHAR
STARTCHAR uni0339
ENCODING 825
SWIDTH 600 0
DWIDTH 11 0
BBX 3 4 4 -5
BITMAP
A0
28
28
A0
ENDCHAR
STARTCHAR uni033A
ENCODING 826
SWIDTH 600 0
DWIDTH 11 0
BBX 5 3 3 -4
BITMAP
8140
8180
BF80
ENDCHAR
STARTCHAR uni033B
ENCODING 827
SWIDTH 600 0
DWIDTH 11 0
BBX 5 3 3 -4
BITMAP
BF80
8180
BF80
ENDCHAR
STARTCHAR uni033C
ENCODING 828
SWIDTH 600 0
DWIDTH 11 0
BBX 7 2 2 -4
BITMAP
7DE0
9724
ENDCHAR
STARTCHAR uni033D
ENCODING 829
SWIDTH 600 0
DWIDTH 11 0
BBX 3 3 4 10
BITMAP
98
74
98
ENDCHAR
STARTCHAR uni0342
ENCODING 834
SWIDTH 600 0
DWIDTH 11 0
BBX 7 3 2 10
BITMAP
1410
7A24
91E0
ENDCHAR
STARTCHAR uni0345
ENCODING 837
SWIDTH 600 0
DWIDTH 11 0
BBX 3 3 4 -4
BITMAP
70
30
2C
ENDCHAR
STARTCHAR uni035F
ENCODING 863
SWIDTH 600 0
DWIDTH 11 0
BBX 19 1 -4 -3
BITMAP
7FFFFFFFF4
ENDCHAR
STARTCHAR uni0361
ENCODING 865
SWIDTH 600 0
DWIDTH 11 0
BBX 17 3 -3 11
BITMAP
01AFFE4000
1E5001B900
A000000640
ENDCHAR
STARTCHAR uni0374
ENCODING 884
SWIDTH 600 0
DWIDTH 11 0
BBX 3 4 4 8
BITMAP
34
34
70
60
ENDCHAR
STARTCHAR uni0375
ENCODING 885
SWIDTH 600 0
DWIDTH 11 0
BBX 2 4 4 0
BITMAP
30
70
70
A0
ENDCHAR
STARTCHAR uni037A
ENCODING 890
SWIDTH 600 0
DWIDTH 11 0
BBX 3 3 4 -4
BITMAP
70
30
2C
ENDCHAR
STARTCHAR uni037E
ENCODING 894
SWIDTH 600 0
DWIDTH 11 0
BBX 4 13 3 -4
BITMAP
2D
3E
2D
00
00
00
2D
3F
2F
07
0A
2C
60
ENDCHAR
STARTCHAR tonos
ENCODING 900
SWIDTH 600 0
DWIDTH 11 0
BBX 2 4 5 10
BITMAP
60
A0
D0
C0
ENDCHAR
STARTCHAR dieresistonos
ENCODING 901
SWIDTH 600 0
DWIDTH 11 0
BBX 6 4 2 10
BITMAP
0280
7270
7370
0600
ENDCHAR
STARTCHAR Alphatonos
ENCODING 902
SWIDTH 600 0
DWIDTH 11 0
BBX 10 12 0 0
BITMAP
287800
34BC00
34DD00
71CA00
628B00
034740
070340
0BFF80
0D01C0
1C00D0
2C00A0
380070
ENDCHAR
STARTCHAR anoteleia
ENCODING 903
SWIDTH 600 0
DWIDTH 11 0
BBX 3 3 4 6
BITMAP
B4
F8
B4
ENDCHAR
STARTCHAR Epsilontonos
ENCODING 904
SWIDTH 600 0
DWIDTH 11 0
BBX 10 12 0 0
BITMAP
35FFD0
35C000
71C000
61C000
61C000
01FF40
01C000
01C000
01C000
01C000
01C000
01FFE0
ENDCHAR
STARTCHAR Etatonos
ENCODING 905
SWIDTH 600 0
DWIDTH 11 0
BBX 10 12 0 0
BITMAP
36C0E0
36C0E0
72C0E0
62C0E0
62C0E0
02FFE0
02C0E0
02C0E0
02C0E0
02C0E0
02C0E0
02C0E0
ENDCHAR
STARTCHAR Iotatonos
ENCODING 906
SWIDTH 600 0
DWIDTH 11 0
BBX 9 12 0 0
BITMAP
36FFC0
342C00
702C00
602C00
602C00
002C00
002C00
002C00
002C00
002C00
002C00
02FFC0
ENDCHAR
STARTCHAR Omicrontonos
ENCODING 908
SWIDTH 600 0
DWIDTH 11 0
BBX 10 12 0 0
BITMAP
347E00
35D280
7280D0
6340A0
6700B0
0700B0
0700B0
0700A0
0340A0
0280D0
01D280
007E00
ENDCHAR
STARTCHAR Upsilontonos
ENCODING 910
SWIDTH 600 0
DWIDTH 11 0
BBX 11 12 0 0
BITMAP
29C028
28D034
34A070
307090
6035C0
001A80
000F40
000B00
000A00
000A00
000A00
000A00
ENDCHAR
STARTCHAR Omegatonos
ENCODING 911
SWIDTH 600 0
DWIDTH 11 0
BBX 10 12 0 0
BITMAP
347E00
35D280
7380D0
6340A0
6700A0
0700B0
0700A0
0740A0
0340D0
0281C0
00D280
0BE3F0
ENDCHAR
STARTCHAR iotadieresistonos
ENCODING 912
SWIDTH 600 0
DWIDTH 11 0
BBX 9 14 1 0
BITMAP
00D000
28D800
299800
024000
000000
BFC000
02C000
02C000
02C000
02C000
028000
01C000
01D100
007F40
ENDCHAR
STARTCHAR Alpha
ENCODING 913
SWIDTH 600 0
DWIDTH 11 0
BBX 10 12 0 0
BITMAP
00B400
00E800
01DC00
028D00
034A00
070700
0A0340
0FFF80
1C01C0
2800D0
3800A0
740070
ENDCHAR
STARTCHAR Beta
ENCODING 914
SWIDTH 600 0
DWIDTH 11 0
BBX 9 12 1 0
BITMAP
7FF800
741E00
740700
740700
741E00
7FF800
740B40
740280
740280
740380
741B40
7FF800
ENDCHAR
STARTCHAR Gamma
ENCODING 915
SWIDTH 600 0
DWIDTH 11 0
BBX 8 12 2 0
BITMAP
BFFE
B000
B000
B000
B000
B000
B000
B000
B000
B000
B000
B000
ENDCHAR
STARTCHAR uni0394
ENCODING 916
SWIDTH 600 0
DWIDTH 11 0
BBX 10 12 0 0
BITMAP
00B400
00E800
01DC00
028D00
034A00
070700
0A0340
0E0280
1D01C0
2C00D0
3800B0
7FFFF0
ENDCHAR
STARTCHAR Epsilon
ENCODING 917
SWIDTH 600 0
DWIDTH 11 0
BBX 8 12 2 0
BITMAP
FFFD
E000
E000
E000
E000
FFF4
E000
E000
E000
E000
E000
FFFE
ENDCHAR
STARTCHAR Zeta
ENCODING 918
SWIDTH 600 0
DWIDTH 11 0
BBX 9 12 1 0
BITMAP
7FFF80
000B00
001D00
002800
007400
00E000
02C000
074000
0E0000
2C0000
740000
BFFF80
ENDCHAR
STARTCHAR Eta
ENCODING 919
SWIDTH 600 0
DWIDTH 11 0
BBX 9 12 1 0
BITMAP
B00340
B00340
B00340
B00340
B00340
BFFF40
B00340
B00340
B00340
B00340
B00340
B00340
ENDCHAR
STARTCHAR Theta
ENCODING 920
SWIDTH 600 0
DWIDTH 11 0
BBX 9 12 1 0
BITMAP
0BE400
2D1E00
740740
A00380
E00280
D7F6C0
D002C0
E00280
A00380
740740
2D1E00
0BE400
ENDCHAR
STARTCHAR Iota
ENCODING 921
SWIDTH 600 0
DWIDTH 11 0
BBX 8 12 1 0
BITMAP
7FFF
01C0
01C0
01C0
01C0
01C0
01C0
01C0
01C0
01C0
01C0
7FFF
ENDCHAR
STARTCHAR Kappa
ENCODING 922
SWIDTH 600 0
DWIDTH 11 0
BBX 10 12 1 0
BITMAP
740780
740E00
742C00
74B400
75D000
7BE000
7E7400
782C00
741D00
740B00
740380
7402D0
ENDCHAR
STARTCHAR Lambda
ENCODING 923
SWIDTH 600 0
DWIDTH 11 0
BBX 9 12 1 0
BITMAP
02D000
03E000
077000
0A3400
0D2800
1D1C00
2C1D00
280E00
340B00
700740
A00380
D002C0
ENDCHAR
STARTCHAR Mu
ENCODING 924
SWIDTH 600 0
DWIDTH 11 0
BBX 9 12 1 0
BITMAP
B40780
B80B80
AC0E80
AD1A80
AA2780
A73380
A3A380
A2D380
A18380
A00380
A00380
A00380
ENDCHAR
STARTCHAR Nu
ENCODING 925
SWIDTH 600 0
DWIDTH 11 0
BBX 9 12 1 0
BITMAP
B40340
BC0340
AD0340
AB0340
B34340
B2C340
B0D340
B0B340
B03740
B02B40
B00F40
B00B40
ENDCHAR
STARTCHAR Xi
ENCODING 926
SWIDTH 600 0
DWIDTH 11 0
BBX 9 12 1 0
BITMAP
BFFF40
000000
000000
000000
000000
1FFD00
000000
000000
000000
000000
000000
BFFF80
ENDCHAR
STARTCHAR Omicron
ENCODING 927
SWIDTH 600 0
DWIDTH 11 0
BBX 9 12 1 0
BITMAP
0BE400
2D1E00
700740
A00380
E00280
D002C0
D002C0
E00280
A00380
740740
2D1E00
0BE400
ENDCHAR
STARTCHAR Pi
ENCODING 928
SWIDTH 600 0
DWIDTH 11 0
BBX 9 12 1 0
BITMAP
BFFF40
B00340
B00340
B00340
B00340
B00340
B00340
B00340
B00340
B00340
B00340
B00340
ENDCHAR
STARTCHAR Rho
ENCODING 929
SWIDTH 600 0
DWIDTH 11 0
BBX 8 12 2 0
BITMAP
FFE4
D02D
D00E
D00A
D00E
D06C
FFE0
D000
D000
D000
D000
D000
ENDCHAR
STARTCHAR Sigma
ENCODING 931
SWIDTH 600 0
DWIDTH 11 0
BBX 9 12 1 0
BITMAP
BFFF00
380000
1D0000
074000
02C000
00E000
00E000
028000
0B0000
1D0000
380000
BFFF80
ENDCHAR
STARTCHAR Tau
ENCODING 932
SWIDTH 600 0
DWIDTH 11 0
BBX 10 12 0 0
BITMAP
7FFFF0
007000
007000
007000
007000
007000
007000
007000
007000
007000
007000
007000
ENDCHAR
STARTCHAR Upsilon
ENCODING 933
SWIDTH 600 0
DWIDTH 11 0
BBX 9 12 1 0
BITMAP
E002C0
B00340
380A00
2C0D00
0D2800
077400
03E000
01D000
01C000
01C000
01C000
01C000
ENDCHAR
STARTCHAR Phi
ENCODING 934
SWIDTH 600 0
DWIDTH 11 0
BBX 11 12 0 0
BITMAP
007000
007000
06FE40
2D75D0
747070
707074
707074
7470B0
2D75D0
06FE40
007000
007000
ENDCHAR
STARTCHAR Chi
ENCODING 935
SWIDTH 600 0
DWIDTH 11 0
BBX 9 12 1 0
BITMAP
B00740
380A00
1D1D00
0A2800
07B000
02E000
03E000
077400
0D2800
2C1D00
740B00
A00380
ENDCHAR
STARTCHAR Psi
ENCODING 936
SWIDTH 600 0
DWIDTH 11 0
BBX 10 12 0 0
BITMAP
747070
747070
747070
7470B0
3870A0
2D75D0
06FE40
007000
007000
007000
007000
007000
ENDCHAR
STARTCHAR uni03A9
ENCODING 937
SWIDTH 600 0
DWIDTH 11 0
BBX 10 12 0 0
BITMAP
02F900
0B4780
1C01D0
2800E0
3800A0
3400B0
3400B0
3800A0
2C00D0
1D02C0
0B0740
7F4BF0
ENDCHAR
STARTCHAR Iotadieresis
ENCODING 938
SWIDTH 600 0
DWIDTH 11 0
BBX 8 15 1 0
BITMAP
0D28
0D28
0000
7FFF
01C0
01C0
01C0
01C0
01C0
01C0
01C0
01C0
01C0
01C0
7FFF
ENDCHAR
STARTCHAR Upsilondieresis
ENCODING 939
SWIDTH 600 0
DWIDTH 11 0
BBX 9 15 1 0
BITMAP
0D2800
0D2800
000000
E002C0
B00340
380A00
2C0D00
0D2800
077400
03E000
01D000
01C000
01C000
01C000
01C000
ENDCHAR
STARTCHAR alphatonos
ENCODING 940
SWIDTH 600 0
DWIDTH 11 0
BBX 10 14 1 0
BITMAP
003400
007000
00A000
009000
000000
0BE280
392B40
B00B40
E00B00
E00B00
E00A00
B00E00
786A00
1F93D0
ENDCHAR
STARTCHAR epsilontonos
ENCODING 941
SWIDTH 600 0
DWIDTH 11 0
BBX 9 14 1 0
BITMAP
002800
003400
007000
006000
000000
0BF900
2D0600
380000
2D0000
0BF400
380000
740000
390640
1BFE00
ENDCHAR
STARTCHAR etatonos
ENCODING 942
SWIDTH 600 0
DWIDTH 11 0
BBX 9 18 1 -4
BITMAP
003400
007000
006000
009000
000000
71B900
7A0B00
780700
740340
740340
740340
740340
740740
740740
000740
000740
000740
000740
ENDCHAR
STARTCHAR iotatonos
ENCODING 943
SWIDTH 600 0
DWIDTH 11 0
BBX 9 14 1 0
BITMAP
00A000
00D000
01C000
018000
000000
BFC000
02C000
02C000
02C000
02C000
028000
01C000
01D100
007F40
ENDCHAR
STARTCHAR upsilondieresistonos
ENCODING 944
SWIDTH 600 0
DWIDTH 11 0
BBX 9 14 1 0
BITMAP
009000
1CDC00
1CDC00
018000
000000
B00A00
700700
700740
700340
700340
700740
700700
381E00
0BE400
ENDCHAR
STARTCHAR alpha
ENCODING 945
SWIDTH 600 0
DWIDTH 11 0
BBX 10 9 1 0
BITMAP
0BE280
392B40
B00B40
E00B00
E00B00
E00A00
B00E00
786A00
1F93D0
ENDCHAR
STARTCHAR beta
ENCODING 946
SWIDTH 600 0
DWIDTH 11 0
BBX 9 17 1 -4
BITMAP
07E400
2D1D00
340E00
740A00
700D00
707800
71F800
700B40
700380
700280
700380
790B00
76F900
700000
700000
700000
700000
ENDCHAR
STARTCHAR gamma
ENCODING 947
SWIDTH 600 0
DWIDTH 11 0
BBX 9 13 1 -4
BITMAP
B00380
740340
2C0700
1D0A00
0A0D00
071800
037400
02E000
02C000
01C000
01C000
01C000
01C000
ENDCHAR
STARTCHAR delta
ENCODING 948
SWIDTH 600 0
DWIDTH 11 0
BBX 9 13 1 0
BITMAP
0BFA00
280600
280000
1E0000
07D000
07F800
2D1E00
700740
A00380
A00380
B00340
391A00
0BF800
ENDCHAR
STARTCHAR epsilon
ENCODING 949
SWIDTH 600 0
DWIDTH 11 0
BBX 9 9 1 0
BITMAP
0BF900
2D0600
380000
2D0000
0BF400
380000
740000
390640
1BFE00
ENDCHAR
STARTCHAR zeta
ENCODING 950
SWIDTH 600 0
DWIDTH 11 0
BBX 8 17 2 -4
BITMAP
7FFD
0028
01D0
0740
1E00
2800
7400
B000
E000
E000
B000
3D00
0BE4
006D
000D
001C
0018
ENDCHAR
STARTCHAR eta
ENCODING 951
SWIDTH 600 0
DWIDTH 11 0
BBX 9 13 1 -4
BITMAP
71B900
7A0B00
780700
740340
740340
740340
740340
740740
740740
000740
000740
000740
000740
ENDCHAR
STARTCHAR theta
ENCODING 952
SWIDTH 600 0
DWIDTH 11 0
BBX 9 13 1 0
BITMAP
07E400
1D1D00
340B00
700700
B00340
A00340
BFFF40
A00340
B00340
700700
340B00
1D1D00
07E400
ENDCHAR
STARTCHAR iota
ENCODING 953
SWIDTH 600 0
DWIDTH 11 0
BBX 9 9 1 0
BITMAP
BFC000
02C000
02C000
02C000
02C000
028000
01C000
01D100
007F40
ENDCHAR
STARTCHAR kappa
ENCODING 954
SWIDTH 600 0
DWIDTH 11 0
BBX 8 9 2 0
BITMAP
D00A
D078
D2D0
D740
EEC0
F4E0
E074
D02D
D00B
ENDCHAR
STARTCHAR lambda
ENCODING 955
SWIDTH 600 0
DWIDTH 11 0
BBX 9 13 1 0
BITMAP
BD0000
074000
02C000
00D000
00E000
02F000
037400
0B2C00
0E1D00
1C0E00
380B00
740740
B00280
ENDCHAR
STARTCHAR uni03BC
ENCODING 956
SWIDTH 600 0
DWIDTH 11 0
BBX 9 13 1 -4
BITMAP
700B00
700B00
700B00
700B00
700B00
700B00
700B00
782B00
7BD380
700000
700000
700000
700000
ENDCHAR
STARTCHAR nu
ENCODING 957
SWIDTH 600 0
DWIDTH 11 0
BBX 9 9 1 0
BITMAP
B00380
740340
2C0700
1D0A00
0A0D00
071C00
037400
02F000
02D000
ENDCHAR
STARTCHAR xi
ENCODING 958
SWIDTH 600 0
DWIDTH 11 0
BBX 9 17 1 -4
BITMAP
7FFF40
074000
0E0000
0D0000
0E0000
074000
02FD00
0E4000
2C0000
380000
380000
1E4000
06F900
001B40
000340
000740
000600
ENDCHAR
STARTCHAR omicron
ENCODING 959
SWIDTH 600 0
DWIDTH 11 0
BBX 9 9 1 0
BITMAP
0BF400
2D1E00
700740
A00380
A00380
A00380
700740
291E00
0BF400
ENDCHAR
STARTCHAR pi
ENCODING 960
SWIDTH 600 0
DWIDTH 11 0
BBX 11 9 0 0
BITMAP
7FFFF4
0A0280
0A0280
0A0280
0A0380
0A0380
0E0380
0D0280
0D01F0
ENDCHAR
STARTCHAR rho
ENCODING 961
SWIDTH 600 0
DWIDTH 11 0
BBX 9 13 1 -4
BITMAP
06F800
1D1B00
380740
740380
700380
700380
700740
791E00
76F800
700000
700000
700000
700000
ENDCHAR
STARTCHAR uni03C2
ENCODING 962
SWIDTH 600 0
DWIDTH 11 0
BBX 8 13 1 -4
BITMAP
06FD
1E06
3800
7400
7400
7400
3800
1E40
02F8
001A
0007
000A
0009
ENDCHAR
STARTCHAR sigma
ENCODING 963
SWIDTH 600 0
DWIDTH 11 0
BBX 10 9 1 0
BITMAP
0BFFD0
391D00
B00A00
A00700
E00740
A00700
B00B00
391D00
0BE400
ENDCHAR
STARTCHAR tau
ENCODING 964
SWIDTH 600 0
DWIDTH 11 0
BBX 9 9 1 0
BITMAP
BFFF80
01C000
01C000
01C000
01C000
01C000
01C000
01D000
00BD00
ENDCHAR
STARTCHAR upsilon
ENCODING 965
SWIDTH 600 0
DWIDTH 11 0
BBX 9 9 1 0
BITMAP
B00A00
700700
700740
700340
700340
700740
700700
381E00
0BE400
ENDCHAR
STARTCHAR phi
ENCODING 966
SWIDTH 600 0
DWIDTH 11 0
BBX 10 15 0 -4
BITMAP
007000
007000
06FE00
1E76C0
2870E0
3470B0
7470B0
3470B0
2870E0
1E76C0
06FE00
007000
007000
007000
007000
ENDCHAR
STARTCHAR chi
ENCODING 967
SWIDTH 600 0
DWIDTH 11 0
BBX 9 13 1 -4
BITMAP
B00740
380E00
1D1C00
0B3800
07F000
02D000
02D000
03F000
0BB800
0E2C00
2C0E00
740740
B00280
ENDCHAR
STARTCHAR psi
ENCODING 968
SWIDTH 600 0
DWIDTH 11 0
BBX 9 15 1 -4
BITMAP
01C000
01C000
D1C240
D1C380
D1C280
D1C2C0
D1C1C0
E1C280
A1C380
75DB00
1BF800
01C000
01C000
01C000
01C000
ENDCHAR
STARTCHAR omega
ENCODING 969
SWIDTH 600 0
DWIDTH 11 0
BBX 10 9 0 0
BITMAP
090180
2C01D0
3800B0
746070
707070
707070
7470B0
28B4E0
0B8B80
ENDCHAR
STARTCHAR iotadieresis
ENCODING 970
SWIDTH 600 0
DWIDTH 11 0
BBX 9 13 1 0
BITMAP
1C3800
1C3800
000000
000000
BFC000
02C000
02C000
02C000
02C000
028000
01C000
01D100
007F40
ENDCHAR
STARTCHAR upsilondieresis
ENCODING 971
SWIDTH 600 0
DWIDTH 11 0
BBX 9 13 1 0
BITMAP
1D2C00
1D2C00
000000
000000
B00A00
700700
700740
700340
700340
700740
700700
381E00
0BE400
ENDCHAR
STARTCHAR omicrontonos
ENCODING 972
SWIDTH 600 0
DWIDTH 11 0
BBX 9 14 1 0
BITMAP
006000
00A000
00D000
00C000
000000
0BF400
2D1E00
700740
A00380
A00380
A00380
700740
291E00
0BF400
ENDCHAR
STARTCHAR upsilontonos
ENCODING 973
SWIDTH 600 0
DWIDTH 11 0
BBX 9 14 1 0
BITMAP
00A000
00A000
00D000
00C000
000000
B00A00
700700
700740
700340
700340
700740
700700
381E00
0BE400
ENDCHAR
STARTCHAR omegatonos
ENCODING 974
SWIDTH 600 0
DWIDTH 11 0
BBX 10 14 0 0
BITMAP
001800
002800
003400
003000
000000
090180
2C01D0
3800B0
746070
707070
707070
7470B0
28B4E0
0B8B80
ENDCHAR
STARTCHAR uni03D0
ENCODING 976
SWIDTH 600 0
DWIDTH 11 0
BBX 9 13 1 0
BITMAP
0BE400
2D1D00
340E00
740A00
701D00
707400
7BF900
750B00
700380
700280
340380
1D0B00
06F900
ENDCHAR
STARTCHAR uni03D1
ENCODING 977
SWIDTH 600 0
DWIDTH 11 0
BBX 9 13 1 0
BITMAP
0BE400
381D00
700A00
B00700
700340
2D0340
0BFF40
000340
700340
740740
340B00
2D1D00
0BE400
ENDCHAR
STARTCHAR uni03D5
ENCODING 981
SWIDTH 600 0
DWIDTH 11 0
BBX 10 15 0 -4
BITMAP
007000
007000
06FE00
1E76C0
2870E0
3470B0
7470B0
3470B0
2870E0
1E76C0
06FE00
007000
007000
007000
007000
ENDCHAR
STARTCHAR uni03D7
ENCODING 983
SWIDTH 600 0
DWIDTH 11 0
BBX 8 12 2 -3
BITMAP
D00A
D078
D2D0
D740
EEC0
F4E0
E074
D02D
D00B
000B
002D
0074
ENDCHAR
STARTCHAR uni03D9
ENCODING 985
SWIDTH 600 0
DWIDTH 11 0
BBX 9 13 1 -4
BITMAP
0BF400
291E00
700740
A00380
E00380
A00380
700740
391E00
0BF400
01C000
01C000
01D000
01D000
ENDCHAR
STARTCHAR uni03DB
ENCODING 987
SWIDTH 600 0
DWIDTH 11 0
BBX 9 13 1 -4
BITMAP
06FF40
1E4000
380000
740000
740000
740000
380000
1E4000
02F800
001A00
000700
000A00
000900
ENDCHAR
STARTCHAR uni03DD
ENCODING 989
SWIDTH 600 0
DWIDTH 11 0
BBX 8 13 2 -4
BITMAP
7FFD
7000
7000
7000
7000
7AA4
7AA4
7000
7000
7000
7000
7000
7000
ENDCHAR
STARTCHAR uni03E1
ENCODING 993
SWIDTH 600 0
DWIDTH 11 0
BBX 9 16 1 -3
BITMAP
180000
1E0000
078000
01E000
007400
007C00
06ED00
7E4E00
640B00
006F00
06E740
0E4340
000340
000340
000340
000740
ENDCHAR
STARTCHAR uni0400
ENCODING 1024
SWIDTH 600 0
DWIDTH 11 0
BBX 8 16 2 0
BITMAP
0900
0B40
0180
0000
FFFD
E000
E000
E000
E000
FFF4
E000
E000
E000
E000
E000
FFFE
ENDCHAR
STARTCHAR uni0401
ENCODING 1025
SWIDTH 600 0
DWIDTH 11 0
BBX 8 15 2 0
BITMAP
1C34
1C34
0000
FFFD
E000
E000
E000
E000
FFF4
E000
E000
E000
E000
E000
FFFE
ENDCHAR
STARTCHAR uni0402
ENCODING 1026
SWIDTH 600 0
DWIDTH 11 0
BBX 11 12 0 0
BITMAP
FFFF40
038000
038000
038000
038000
03FF80
0381E0
038074
038034
038074
0380B0
038B90
ENDCHAR
STARTCHAR uni0403
ENCODING 1027
SWIDTH 600 0
DWIDTH 11 0
BBX 8 16 2 0
BITMAP
0090
0280
0600
0000
BFFE
B000
B000
B000
B000
B000
B000
B000
B000
B000
B000
B000
ENDCHAR
STARTCHAR uni0404
ENCODING 1028
SWIDTH 600 0
DWIDTH 11 0
BBX 9 12 1 0
BITMAP
06FE00
1E0640
380000
700000
B00000
BFF800
A00000
B00000
700000
380000
1E0680
06FE00
ENDCHAR
STARTCHAR uni0405
ENCODING 1029
SWIDTH 600 0
DWIDTH 11 0
BBX 9 12 1 0
BITMAP
06F900
2D0700
340000
380000
2E0000
0BE400
00BE00
000B40
000380
100380
B80B00
1BF800
ENDCHAR
STARTCHAR uni0406
ENCODING 1030
SWIDTH 600 0
DWIDTH 11 0
BBX 8 12 1 0
BITMAP
7FFF
01C0
01C0
01C0
01C0
01C0
01C0
01C0
01C0
01C0
01C0
7FFF
ENDCHAR
STARTCHAR uni0407
ENCODING 1031
SWIDTH 600 0
DWIDTH 11 0
BBX 8 15 1 0
BITMAP
0D28
0D28
0000
7FFF
01C0
01C0
01C0
01C0
01C0
01C0
01C0
01C0
01C0
01C0
7FFF
ENDCHAR
STARTCHAR uni0408
ENCODING 1032
SWIDTH 600 0
DWIDTH 11 0
BBX 8 12 1 0
BITMAP
2FFF
000B
000B
000B
000B
000B
000B
000B
000A
100E
742D
1BE4
ENDCHAR
STARTCHAR uni0409
ENCODING 1033
SWIDTH 600 0
DWIDTH 11 0
BBX 11 12 0 0
BITMAP
0FF400
0D3400
0D3400
0D3400
0D3400
1C3F80
1C34A0
1C3434
283434
283474
3434A0
E03F80
ENDCHAR
STARTCHAR uni040A
ENCODING 1034
SWIDTH 600 0
DWIDTH 11 0
BBX 11 12 0 0
BITMAP
707400
707400
707400
707400
707400
7FFF80
7074A0
707434
707434
707474
7074A0
707F80
ENDCHAR
STARTCHAR uni040B
ENCODING 1035
SWIDTH 600 0
DWIDTH 11 0
BBX 11 12 0 0
BITMAP
FFFF40
038000
038000
038000
038000
03FF80
0381E0
038070
038074
038074
038074
038074
ENDCHAR
STARTCHAR uni040C
ENCODING 1036
SWIDTH 600 0
DWIDTH 11 0
BBX 8 16 2 0
BITMAP
0060
02D0
0600
0000
D00B
D028
D070
D0D0
D1C0
FF80
D1C0
D0E0
D074
D02C
D00E
D00B
ENDCHAR
STARTCHAR uni040D
ENCODING 1037
SWIDTH 600 0
DWIDTH 11 0
BBX 9 16 1 0
BITMAP
060000
078000
009000
000000
B00B40
B00F40
B02F40
B03740
B0B340
B0D340
A2C340
A34340
AB0340
AD0340
BC0340
B40340
ENDCHAR
STARTCHAR uni040E
ENCODING 1038
SWIDTH 600 0
DWIDTH 11 0
BBX 9 15 1 0
BITMAP
0D1C00
07F400
000000
E00280
700340
340700
2C0E00
0D1D00
0A2800
077400
02F000
01E000
01D000
028000
2E0000
ENDCHAR
STARTCHAR uni040F
ENCODING 1039
SWIDTH 600 0
DWIDTH 11 0
BBX 9 16 1 -4
BITMAP
B00340
B00340
B00340
B00340
B00340
B00340
B00340
B00340
B00340
B00340
B00340
BFFF40
01C000
01C000
01C000
01C000
ENDCHAR
STARTCHAR uni0410
ENCODING 1040
SWIDTH 600 0
DWIDTH 11 0
BBX 10 12 0 0
BITMAP
00B400
00E800
01DC00
028D00
034A00
070700
0A0340
0FFF80
1C01C0
2800D0
3800A0
740070
ENDCHAR
STARTCHAR uni0411
ENCODING 1041
SWIDTH 600 0
DWIDTH 11 0
BBX 9 12 1 0
BITMAP
7FFF00
740000
740000
740000
740000
7FF900
740B40
740280
740280
740280
740B40
7FF900
ENDCHAR
STARTCHAR uni0412
ENCODING 1042
SWIDTH 600 0
DWIDTH 11 0
BBX 9 12 1 0
BITMAP
7FF800
741E00
740700
740700
741E00
7FF800
740B40
740280
740280
740380
741B40
7FF800
ENDCHAR
STARTCHAR uni0413
ENCODING 1043
SWIDTH 600 0
DWIDTH 11 0
BBX 8 12 2 0
BITMAP
BFFE
B000
B000
B000
B000
B000
B000
B000
B000
B000
B000
B000
ENDCHAR
STARTCHAR uni0414
ENCODING 1044
SWIDTH 600 0
DWIDTH 11 0
BBX 11 16 0 -4
BITMAP
02FFC0
0281C0
0341C0
0341C0
0701C0
0701C0
0A01C0
0A01C0
0D01C0
1D01C0
2801C0
BFFFF4
B00034
B00034
B00034
700034
ENDCHAR
STARTCHAR uni0415
ENCODING 1045
SWIDTH 600 0
DWIDTH 11 0
BBX 8 12 2 0
BITMAP
FFFD
E000
E000
E000
E000
FFF4
E000
E000
E000
E000
E000
FFFE
ENDCHAR
STARTCHAR uni0416
ENCODING 1046
SWIDTH 600 0
DWIDTH 11 0
BBX 11 12 0 0
BITMAP
E07078
2870D0
1C71C0
0D7280
0A7240
0BFF40
0D7280
1C71C0
2870D0
3470A0
707074
A07038
ENDCHAR
STARTCHAR uni0417
ENCODING 1047
SWIDTH 600 0
DWIDTH 11 0
BBX 9 12 1 0
BITMAP
1BF400
341E00
000700
000700
001E00
07F800
001B00
000380
000280
000380
B41B00
1BF800
ENDCHAR
STARTCHAR uni0418
ENCODING 1048
SWIDTH 600 0
DWIDTH 11 0
BBX 9 12 1 0
BITMAP
B00B40
B00F40
B02F40
B03740
B0B340
B0D340
A2C340
A34340
AB0340
AD0340
BC0340
B40340
ENDCHAR
STARTCHAR uni0419
ENCODING 1049
SWIDTH 600 0
DWIDTH 11 0
BBX 9 15 1 0
BITMAP
0D1C00
07F400
000000
B00B40
B00F40
B02F40
B03740
B0B340
B0D340
A2C340
A34340
AB0340
AD0340
BC0340
B40340
ENDCHAR
STARTCHAR uni041A
ENCODING 1050
SWIDTH 600 0
DWIDTH 11 0
BBX 8 12 2 0
BITMAP
D00B
D028
D070
D0D0
D1C0
FF80
D1C0
D0E0
D074
D02C
D00E
D00B
ENDCHAR
STARTCHAR uni041B
ENCODING 1051
SWIDTH 600 0
DWIDTH 11 0
BBX 10 12 0 0
BITMAP
01FFD0
0280D0
0280D0
0340D0
0340D0
0700D0
0700D0
0A00D0
0A00D0
0D00D0
1C00D0
B400D0
ENDCHAR
STARTCHAR uni041C
ENCODING 1052
SWIDTH 600 0
DWIDTH 11 0
BBX 9 12 1 0
BITMAP
B40780
B80B80
AC0E80
AD1A80
AA2780
A73380
A3A380
A2D380
A18380
A00380
A00380
A00380
ENDCHAR
STARTCHAR uni041D
ENCODING 1053
SWIDTH 600 0
DWIDTH 11 0
BBX 9 12 1 0
BITMAP
B00340
B00340
B00340
B00340
B00340
BFFF40
B00340
B00340
B00340
B00340
B00340
B00340
ENDCHAR
STARTCHAR uni041E
ENCODING 1054
SWIDTH 600 0
DWIDTH 11 0
BBX 9 12 1 0
BITMAP
0BE400
2D1E00
700740
A00380
E00280
D002C0
D002C0
E00280
A00380
740740
2D1E00
0BE400
ENDCHAR
STARTCHAR uni041F
ENCODING 1055
SWIDTH 600 0
DWIDTH 11 0
BBX 9 12 1 0
BITMAP
BFFF40
B00340
B00340
B00340
B00340
B00340
B00340
B00340
B00340
B00340
B00340
B00340
ENDCHAR
STARTCHAR uni0420
ENCODING 1056
SWIDTH 600 0
DWIDTH 11 0
BBX 8 12 2 0
BITMAP
FFE4
D02D
D00E
D00A
D00E
D06C
FFE0
D000
D000
D000
D000
D000
ENDCHAR
STARTCHAR uni0421
ENCODING 1057
SWIDTH 600 0
DWIDTH 11 0
BBX 9 12 1 0
BITMAP
02FE00
1E0640
380000
700000
B00000
A00000
A00000
B00000
700000
380000
1E0680
02FE00
ENDCHAR
STARTCHAR uni0422
ENCODING 1058
SWIDTH 600 0
DWIDTH 11 0
BBX 10 12 0 0
BITMAP
7FFFF0
007000
007000
007000
007000
007000
007000
007000
007000
007000
007000
007000
ENDCHAR
STARTCHAR uni0423
ENCODING 1059
SWIDTH 600 0
DWIDTH 11 0
BBX 9 12 1 0
BITMAP
E00280
700340
340700
2C0E00
0D1D00
0A2800
077400
02F000
01E000
01D000
028000
2E0000
ENDCHAR
STARTCHAR uni0424
ENCODING 1060
SWIDTH 600 0
DWIDTH 11 0
BBX 11 12 0 0
BITMAP
007000
007000
06FE40
2D75E0
747070
707074
707074
747070
2D75D0
06FE40
007000
007000
ENDCHAR
STARTCHAR uni0425
ENCODING 1061
SWIDTH 600 0
DWIDTH 11 0
BBX 9 12 1 0
BITMAP
B00740
380A00
1D1D00
0A2800
07B000
02E000
03E000
077400
0D2800
2C1D00
740B00
A00380
ENDCHAR
STARTCHAR uni0426
ENCODING 1062
SWIDTH 600 0
DWIDTH 11 0
BBX 10 16 1 -4
BITMAP
B00740
B00740
B00740
B00740
B00740
B00740
B00740
B00740
B00740
B00740
B00740
BFFFE0
0000A0
0000A0
000090
000090
ENDCHAR
STARTCHAR uni0427
ENCODING 1063
SWIDTH 600 0
DWIDTH 11 0
BBX 9 12 1 0
BITMAP
A00740
A00740
A00740
A00740
B00740
780740
1BFF40
000740
000740
000740
000740
000740
ENDCHAR
STARTCHAR uni0428
ENCODING 1064
SWIDTH 600 0
DWIDTH 11 0
BBX 10 12 0 0
BITMAP
707070
707070
707070
707070
707070
707070
707070
707070
707070
707070
707070
7FFFF0
ENDCHAR
STARTCHAR uni0429
ENCODING 1065
SWIDTH 600 0
DWIDTH 11 0
BBX 11 16 0 -4
BITMAP
70A0A0
70A0A0
70A0A0
70A0A0
70A0A0
70A0A0
70A0A0
70A0A0
70A0A0
70A0A0
70A0A0
7FFFF8
000028
000028
000028
000028
ENDCHAR
STARTCHAR uni042A
ENCODING 1066
SWIDTH 600 0
DWIDTH 11 0
BBX 11 12 0 0
BITMAP
BFC000
01C000
01C000
01C000
01C000
01FE40
01C1E0
01C074
01C034
01C070
01C1E0
01FF40
ENDCHAR
STARTCHAR uni042B
ENCODING 1067
SWIDTH 600 0
DWIDTH 11 0
BBX 9 12 1 0
BITMAP
D00280
D00280
D00280
D00280
D00280
FE4280
D1D280
D07280
D07280
D0A280
EAD280
FE4280
ENDCHAR
STARTCHAR uni042C
ENCODING 1068
SWIDTH 600 0
DWIDTH 11 0
BBX 9 12 1 0
BITMAP
740000
740000
740000
740000
740000
7FF900
740B40
740380
740280
740380
741B40
7FF900
ENDCHAR
STARTCHAR uni042D
ENCODING 1069
SWIDTH 600 0
DWIDTH 11 0
BBX 9 12 1 0
BITMAP
2FE000
A42D00
000B00
000740
000340
0FFF80
000380
000340
000740
000A00
E42D00
2FE000
ENDCHAR
STARTCHAR uni042E
ENCODING 1070
SWIDTH 600 0
DWIDTH 11 0
BBX 10 12 0 0
BITMAP
742F40
74B1D0
74D0A0
75D0B0
75C070
7FC070
75C070
75C070
74D0B0
74D0A0
7471D0
742F40
ENDCHAR
STARTCHAR uni042F
ENCODING 1071
SWIDTH 600 0
DWIDTH 11 0
BBX 8 12 1 0
BITMAP
1BFF
780B
B00B
A00B
B00B
780B
1BFF
0B0B
1D0B
280B
740B
E00B
ENDCHAR
STARTCHAR uni0430
ENCODING 1072
SWIDTH 600 0
DWIDTH 11 0
BBX 9 9 1 0
BITMAP
1BF800
241E00
000700
01BF40
2E4740
740740
B00740
741B40
1FD340
ENDCHAR
STARTCHAR uni0431
ENCODING 1073
SWIDTH 600 0
DWIDTH 11 0
BBX 9 13 1 0
BITMAP
005A00
07E900
1D0000
380000
700000
B6F800
B91E00
B00740
B00380
700340
340740
2D1E00
07F400
ENDCHAR
STARTCHAR uni0432
ENCODING 1074
SWIDTH 600 0
DWIDTH 11 0
BBX 8 9 2 0
BITMAP
FFE4
D02C
D00D
D02C
FFF4
D01D
D00E
D01D
FFE4
ENDCHAR
STARTCHAR uni0433
ENCODING 1075
SWIDTH 600 0
DWIDTH 11 0
BBX 8 9 2 0
BITMAP
7FFD
7000
7000
7000
7000
7000
7000
7000
7000
ENDCHAR
STARTCHAR uni0434
ENCODING 1076
SWIDTH 600 0
DWIDTH 11 0
BBX 10 13 0 -4
BITMAP
07FF80
070280
070280
0A0280
0A0280
0A0280
0D0280
1C0280
7FFFF0
740070
740070
340070
340070
ENDCHAR
STARTCHAR uni0435
ENCODING 1077
SWIDTH 600 0
DWIDTH 11 0
BBX 9 9 1 0
BITMAP
06F800
2D0A00
740340
B00280
BFFF80
B00000
740000
2D0600
06F900
ENDCHAR
STARTCHAR uni0436
ENCODING 1078
SWIDTH 600 0
DWIDTH 11 0
BBX 11 9 0 0
BITMAP
A07074
2870D0
0C71C0
0A7280
0BFF40
0D72C0
2C70D0
3470B0
B07034
ENDCHAR
STARTCHAR uni0437
ENCODING 1079
SWIDTH 600 0
DWIDTH 11 0
BBX 9 9 1 0
BITMAP
2FE400
641E00
000A00
001D00
07F800
001B00
000740
A41B00
2BF800
ENDCHAR
STARTCHAR uni0438
ENCODING 1080
SWIDTH 600 0
DWIDTH 11 0
BBX 8 9 1 0
BITMAP
740B
741F
743B
74A7
75C7
7747
7A07
7C07
7407
ENDCHAR
STARTCHAR uni0439
ENCODING 1081
SWIDTH 600 0
DWIDTH 11 0
BBX 8 13 1 0
BITMAP
0C0D
0E1C
02E4
0000
740B
741F
743B
74A7
75C7
7747
7A07
7C07
7407
ENDCHAR
STARTCHAR uni043A
ENCODING 1082
SWIDTH 600 0
DWIDTH 11 0
BBX 8 9 2 0
BITMAP
D01E
D034
D060
D0D0
FFC0
D0E0
D074
D02C
D00E
ENDCHAR
STARTCHAR uni043B
ENCODING 1083
SWIDTH 600 0
DWIDTH 11 0
BBX 9 9 0 0
BITMAP
03FFC0
0302C0
0702C0
0702C0
0602C0
0A02C0
0A02C0
0D02C0
7802C0
ENDCHAR
STARTCHAR uni043C
ENCODING 1084
SWIDTH 600 0
DWIDTH 11 0
BBX 9 9 1 0
BITMAP
F00780
F80B80
EC0E80
ED1A80
EA3680
E77280
E2E280
E1D280
E00280
ENDCHAR
STARTCHAR uni043D
ENCODING 1085
SWIDTH 600 0
DWIDTH 11 0
BBX 8 9 1 0
BITMAP
7007
7007
7007
7007
7FFF
7007
7007
7007
7007
ENDCHAR
STARTCHAR uni043E
ENCODING 1086
SWIDTH 600 0
DWIDTH 11 0
BBX 9 9 1 0
BITMAP
0BF400
291E00
B00740
A00380
E00380
A00380
700740
291E00
0BF400
ENDCHAR
STARTCHAR uni043F
ENCODING 1087
SWIDTH 600 0
DWIDTH 11 0
BBX 8 9 1 0
BITMAP
7FFF
7007
7007
7007
7007
7007
7007
7007
7007
ENDCHAR
STARTCHAR uni0440
ENCODING 1088
SWIDTH 600 0
DWIDTH 11 0
BBX 9 13 1 -4
BITMAP
72F800
791B00
740340
700380
700380
700380
700740
791E00
76F800
700000
700000
700000
700000
ENDCHAR
STARTCHAR uni0441
ENCODING 1089
SWIDTH 600 0
DWIDTH 11 0
BBX 9 9 1 0
BITMAP
06FE00
1E0640
380000
700000
B00000
700000
380000
1E0640
06FD00
ENDCHAR
STARTCHAR uni0442
ENCODING 1090
SWIDTH 600 0
DWIDTH 11 0
BBX 9 9 1 0
BITMAP
BFFF80
01C000
01C000
01C000
01C000
01C000
01C000
01C000
01C000
ENDCHAR
STARTCHAR uni0443
ENCODING 1091
SWIDTH 600 0
DWIDTH 11 0
BBX 9 13 1 -4
BITMAP
E00280
700340
340700
1C0A00
0D1C00
0A2800
033400
02B000
00E000
01D000
028000
074000
B90000
ENDCHAR
STARTCHAR uni0444
ENCODING 1092
SWIDTH 600 0
DWIDTH 11 0
BBX 11 17 0 -4
BITMAP
007000
007000
007000
007000
0BBB80
28B4E0
347070
707070
707074
707070
7470B0
2874E0
1BFF80
007000
007000
007000
007000
ENDCHAR
STARTCHAR uni0445
ENCODING 1093
SWIDTH 600 0
DWIDTH 11 0
BBX 9 9 1 0
BITMAP
740B00
2C1D00
0A2800
03B000
02D000
07B000
0D2800
280E00
700740
ENDCHAR
STARTCHAR uni0446
ENCODING 1094
SWIDTH 600 0
DWIDTH 11 0
BBX 10 13 1 -4
BITMAP
740B00
740B00
740B00
740B00
740B00
740B00
740B00
740B00
7FFFD0
0001D0
0001C0
0001C0
0001C0
ENDCHAR
STARTCHAR uni0447
ENCODING 1095
SWIDTH 600 0
DWIDTH 11 0
BBX 8 9 1 0
BITMAP
700A
700A
700A
740A
390A
0BFE
000A
000A
000A
ENDCHAR
STARTCHAR uni0448
ENCODING 1096
SWIDTH 600 0
DWIDTH 11 0
BBX 9 9 1 0
BITMAP
E1C280
E1C280
E1C280
E1C280
E1C280
E1C280
E1C280
E1C280
FFFF80
ENDCHAR
STARTCHAR uni0449
ENCODING 1097
SWIDTH 600 0
DWIDTH 11 0
BBX 10 13 1 -4
BITMAP
E1C380
E1C380
E1C380
E1C380
E1C380
E1C380
E1C380
E1C380
FFFFE0
0000A0
0000A0
0000A0
0000A0
ENDCHAR
STARTCHAR uni044A
ENCODING 1098
SWIDTH 600 0
DWIDTH 11 0
BBX 10 9 0 0
BITMAP
7FC000
01C000
01C000
01FF40
01C1E0
01C0B0
01C0A0
01C1E0
01FF40
ENDCHAR
STARTCHAR uni044B
ENCODING 1099
SWIDTH 600 0
DWIDTH 11 0
BBX 9 9 1 0
BITMAP
A00280
A00280
A00280
BF8280
A0A280
A07280
A07280
A0A280
BF8280
ENDCHAR
STARTCHAR uni044C
ENCODING 1100
SWIDTH 600 0
DWIDTH 11 0
BBX 8 9 2 0
BITMAP
A000
A000
A000
BFE0
A02C
A01D
A01D
A02C
BFE0
ENDCHAR
STARTCHAR uni044D
ENCODING 1101
SWIDTH 600 0
DWIDTH 11 0
BBX 9 9 1 0
BITMAP
2FE400
642D00
000B00
000740
0BFF40
000740
000B00
A02D00
6FE400
ENDCHAR
STARTCHAR uni044E
ENCODING 1102
SWIDTH 600 0
DWIDTH 11 0
BBX 10 9 0 0
BITMAP
742F80
74A1D0
74D0B0
75C070
7FC070
75C070
74D0B0
74A1D0
742F80
ENDCHAR
STARTCHAR uni044F
ENCODING 1103
SWIDTH 600 0
DWIDTH 11 0
BBX 8 9 1 0
BITMAP
1FFF
7407
B007
7407
1FFF
0A07
1D07
3807
B007
ENDCHAR
STARTCHAR uni0450
ENCODING 1104
SWIDTH 600 0
DWIDTH 11 0
BBX 9 14 1 0
BITMAP
060000
074000
01D000
006000
000000
06F800
2D0A00
740340
B00280
BFFF80
B00000
740000
2D0600
06F900
ENDCHAR
STARTCHAR uni0451
ENCODING 1105
SWIDTH 600 0
DWIDTH 11 0
BBX 9 13 1 0
BITMAP
0A1D00
0A1D00
000000
000000
06F800
2D0A00
740340
B00280
BFFF80
B00000
740000
2D0600
06F900
ENDCHAR
STARTCHAR uni0452
ENCODING 1106
SWIDTH 600 0
DWIDTH 11 0
BBX 10 17 0 -4
BITMAP
1C0000
1C0000
BFFC00
1C0000
1C0000
1C7E00
1E42C0
1D01D0
1C00E0
1C00E0
1C00E0
1C00E0
1C00E0
0000D0
0001D0
000780
003E00
ENDCHAR
STARTCHAR uni0453
ENCODING 1107
SWIDTH 600 0
DWIDTH 11 0
BBX 8 14 2 0
BITMAP
0024
00B4
01D0
0240
0000
7FFD
7000
7000
7000
7000
7000
7000
7000
7000
ENDCHAR
STARTCHAR uni0454
ENCODING 1108
SWIDTH 600 0
DWIDTH 11 0
BBX 9 9 1 0
BITMAP
06FE00
1E0640
340000
700000
BFF800
700000
740000
2D0640
06FE00
ENDCHAR
STARTCHAR uni0455
ENCODING 1109
SWIDTH 600 0
DWIDTH 11 0
BBX 9 9 1 0
BITMAP
0BF900
381A00
340000
2E4000
06F900
001B40
000340
740B00
1BF900
ENDCHAR
STARTCHAR uni0456
ENCODING 1110
SWIDTH 600 0
DWIDTH 11 0
BBX 7 13 1 0
BITMAP
00B4
00B4
0000
0000
7FF0
0070
0070
0070
0070
0070
0070
0070
0070
ENDCHAR
STARTCHAR uni0457
ENCODING 1111
SWIDTH 600 0
DWIDTH 11 0
BBX 8 13 1 0
BITMAP
074A
074A
0000
0000
7FF0
0070
0070
0070
0070
0070
0070
0070
0070
ENDCHAR
STARTCHAR uni0458
ENCODING 1112
SWIDTH 600 0
DWIDTH 11 0
BBX 7 17 1 -4
BITMAP
00B4
00B4
0000
0000
7FF0
0070
0070
0070
0070
0070
0070
0070
0070
0070
0070
41E0
BF80
ENDCHAR
STARTCHAR uni0459
ENCODING 1113
SWIDTH 600 0
DWIDTH 11 0
BBX 10 9 0 0
BITMAP
0FF400
0D3400
0D3400
1C3F80
1C34A0
1C3470
283470
3834A0
E03F80
ENDCHAR
STARTCHAR uni045A
ENCODING 1114
SWIDTH 600 0
DWIDTH 11 0
BBX 9 9 1 0
BITMAP
D1D000
D1D000
D1D000
EAFE00
E6D780
D1D1C0
D1D1C0
D1D780
D1FE00
ENDCHAR
STARTCHAR uni045B
ENCODING 1115
SWIDTH 600 0
DWIDTH 11 0
BBX 10 13 0 0
BITMAP
1C0000
1C0000
BFFC00
1C0000
1C0000
1C7E40
1E42C0
1D01D0
1C00D0
1C00D0
1C00D0
1C00D0
1C00D0
ENDCHAR
STARTCHAR uni045C
ENCODING 1116
SWIDTH 600 0
DWIDTH 11 0
BBX 8 14 2 0
BITMAP
0060
00E0
0280
0200
0000
D01E
D034
D060
D0D0
FFC0
D0E0
D074
D02C
D00E
ENDCHAR
STARTCHAR uni045D
ENCODING 1117
SWIDTH 600 0
DWIDTH 11 0
BBX 8 14 1 0
BITMAP
0600
0740
01D0
0050
0000
740B
741F
743B
74A7
75C7
7747
7A07
7C07
7407
ENDCHAR
STARTCHAR uni045E
ENCODING 1118
SWIDTH 600 0
DWIDTH 11 0
BBX 9 17 1 -4
BITMAP
1C0D00
0D1C00
06E400
000000
E00280
700340
340700
1C0A00
0D1C00
0A2800
033400
02B000
00E000
01D000
028000
074000
B90000
ENDCHAR
STARTCHAR uni045F
ENCODING 1119
SWIDTH 600 0
DWIDTH 11 0
BBX 7 13 2 -4
BITMAP
D02C
D02C
D02C
D02C
D02C
D02C
D02C
D02C
FFFC
07A8
0700
0700
0700
ENDCHAR
STARTCHAR uni0462
ENCODING 1122
SWIDTH 600 0
DWIDTH 11 0
BBX 10 12 0 0
BITMAP
034000
034000
BFFF40
034000
034000
03FE40
0342D0
0340A0
0340B0
0340A0
0342D0
03FE40
ENDCHAR
STARTCHAR uni0463
ENCODING 1123
SWIDTH 600 0
DWIDTH 11 0
BBX 10 11 0 0
BITMAP
02C000
02C000
7FFF40
02C000
02C000
02C000
02FF80
02C1E0
02C0A0
02C1E0
02FF80
ENDCHAR
STARTCHAR uni0472
ENCODING 1138
SWIDTH 600 0
DWIDTH 11 0
BBX 9 12 1 0
BITMAP
0BF400
291E00
700740
A00380
D00280
FFFFC0
D002C0
E00280
A00380
700740
2D1E00
0BF400
ENDCHAR
STARTCHAR uni0473
ENCODING 1139
SWIDTH 600 0
DWIDTH 11 0
BBX 9 9 1 0
BITMAP
0BF400
391E00
B00740
A00380
FFFF80
A00280
B00340
391E00
0BF400
ENDCHAR
STARTCHAR uni0474
ENCODING 1140
SWIDTH 600 0
DWIDTH 11 0
BBX 10 12 1 0
BITMAP
D001E0
E00340
B00700
740A00
380D00
2C1C00
1D2800
0D2800
0A3400
077000
03E000
02D000
ENDCHAR
STARTCHAR uni0475
ENCODING 1141
SWIDTH 600 0
DWIDTH 11 0
BBX 9 9 1 0
BITMAP
B002C0
740A00
380D00
1C1C00
0D2800
0A3400
077000
03A000
02D000
ENDCHAR
STARTCHAR uni0490
ENCODING 1168
SWIDTH 600 0
DWIDTH 11 0
BBX 8 15 2 0
BITMAP
000A
000A
000E
BFFD
B000
B000
B000
B000
B000
B000
B000
B000
B000
B000
B000
ENDCHAR
STARTCHAR uni0491
ENCODING 1169
SWIDTH 600 0
DWIDTH 11 0
BBX 6 12 3 0
BITMAP
0070
0070
0070
FFF0
D000
D000
D000
D000
D000
D000
D000
D000
ENDCHAR
STARTCHAR uni0492
ENCODING 1170
SWIDTH 600 0
DWIDTH 11 0
BBX 9 12 1 0
BITMAP
1FFF40
1C0000
1C0000
1C0000
1C0000
1C0000
FFF000
1C0000
1C0000
1C0000
1C0000
1C0000
ENDCHAR
STARTCHAR uni0493
ENCODING 1171
SWIDTH 600 0
DWIDTH 11 0
BBX 9 9 1 0
BITMAP
1FFF40
1C0000
1C0000
1C0000
BFF400
1C0000
1C0000
1C0000
1C0000
ENDCHAR
STARTCHAR uni0496
ENCODING 1174
SWIDTH 600 0
DWIDTH 11 0
BBX 11 16 0 -4
BITMAP
E07078
2870D0
1C71C0
0D7280
0A7240
0BFF40
0D7280
1C71C0
2870D0
3470A0
707070
A0703C
00000C
00000C
00000C
00000C
ENDCHAR
STARTCHAR uni0497
ENCODING 1175
SWIDTH 600 0
DWIDTH 11 0
BBX 11 13 0 -4
BITMAP
A07074
2870D0
0C71C0
0A7280
0BFF40
0D72C0
2C70D0
3470A0
B0703C
00001C
00001C
00001C
000018
ENDCHAR
STARTCHAR uni0498
ENCODING 1176
SWIDTH 600 0
DWIDTH 11 0
BBX 9 16 1 -4
BITMAP
1BF400
341E00
000700
000700
001E00
07F800
001B00
000380
000280
000380
B41B00
1BF800
01D000
01C000
01C000
01C000
ENDCHAR
STARTCHAR uni0499
ENCODING 1177
SWIDTH 600 0
DWIDTH 11 0
BBX 9 13 1 -4
BITMAP
2FE400
641E00
000A00
001D00
07F800
001B00
000740
A41B00
2FF800
02C000
02C000
028000
028000
ENDCHAR
STARTCHAR uni049A
ENCODING 1178
SWIDTH 600 0
DWIDTH 11 0
BBX 9 16 2 -4
BITMAP
D00B00
D02800
D07000
D0D000
D1C000
FF8000
D1C000
D0E000
D07400
D02800
D00D00
D00B80
000280
000280
000240
000240
ENDCHAR
STARTCHAR uni049B
ENCODING 1179
SWIDTH 600 0
DWIDTH 11 0
BBX 9 13 2 -4
BITMAP
D01E00
D03400
D06000
D0D000
FFC000
D0E000
D07400
D02C00
D00F40
000340
000340
000340
000340
ENDCHAR
STARTCHAR uni04A0
ENCODING 1184
SWIDTH 600 0
DWIDTH 11 0
BBX 11 12 0 0
BITMAP
BFC074
01C0D0
01C280
01C340
01CA00
01FD00
01CA00
01C340
01C1C0
01C0D0
01C070
01C038
ENDCHAR
STARTCHAR uni04A1
ENCODING 1185
SWIDTH 600 0
DWIDTH 11 0
BBX 11 9 0 0
BITMAP
7FC0B0
01C180
01C240
01C300
01FF00
01C340
01C1C0
01C0A0
01C074
ENDCHAR
STARTCHAR uni04A2
ENCODING 1186
SWIDTH 600 0
DWIDTH 11 0
BBX 10 16 1 -4
BITMAP
B00740
B00740
B00740
B00740
B00740
BFFF40
B00740
B00740
B00740
B00740
B00740
B007E0
0000A0
0000A0
000090
000090
ENDCHAR
STARTCHAR uni04A3
ENCODING 1187
SWIDTH 600 0
DWIDTH 11 0
BBX 10 13 1 -4
BITMAP
700B00
700B00
700B00
700B00
7FFF00
700B00
700B00
700B00
700BD0
0001D0
0001C0
0001C0
0001C0
ENDCHAR
STARTCHAR uni04AA
ENCODING 1194
SWIDTH 600 0
DWIDTH 11 0
BBX 9 16 1 -4
BITMAP
02FE00
1E0640
380000
700000
B00000
A00000
A00000
B00000
700000
380000
1E0680
06FE00
007000
007000
007000
007000
ENDCHAR
STARTCHAR uni04AB
ENCODING 1195
SWIDTH 600 0
DWIDTH 11 0
BBX 9 13 1 -4
BITMAP
06FE00
1E0640
380000
700000
B00000
700000
380000
1E0640
06FE00
00B000
00A000
00A000
00A000
ENDCHAR
STARTCHAR uni04AE
ENCODING 1198
SWIDTH 600 0
DWIDTH 11 0
BBX 9 12 1 0
BITMAP
E002C0
B00340
380A00
2C0D00
0D2800
077400
03E000
01D000
01C000
01C000
01C000
01C000
ENDCHAR
STARTCHAR uni04AF
ENCODING 1199
SWIDTH 600 0
DWIDTH 11 0
BBX 9 13 1 -4
BITMAP
E00280
700340
340B00
280D00
1D1C00
0A2800
073400
03B000
02D000
01D000
01D000
01D000
01D000
ENDCHAR
STARTCHAR uni04B0
ENCODING 1200
SWIDTH 600 0
DWIDTH 11 0
BBX 9 12 1 0
BITMAP
E002C0
B00340
380B00
2C0D00
0D2C00
0B7400
03F000
3FFF00
01C000
01C000
01C000
01C000
ENDCHAR
STARTCHAR uni04B1
ENCODING 1201
SWIDTH 600 0
DWIDTH 11 0
BBX 9 13 1 -4
BITMAP
E00280
700340
340B00
280D00
1D1C00
0A2800
073400
03B000
7FFF00
01D000
01D000
01D000
01D000
ENDCHAR
STARTCHAR uni04B2
ENCODING 1202
SWIDTH 600 0
DWIDTH 11 0
BBX 9 16 1 -4
BITMAP
B00740
380A00
1D1D00
0A2800
07B000
02E000
03E000
077400
0D2800
2C1D00
740A00
A003C0
0000C0
0000C0
0000C0
0000C0
ENDCHAR
STARTCHAR uni04B3
ENCODING 1203
SWIDTH 600 0
DWIDTH 11 0
BBX 9 13 1 -4
BITMAP
740B00
2C1D00
0A2800
03B000
02D000
07B000
0D2800
280D00
7007C0
0001C0
0001C0
0001C0
0001C0
ENDCHAR
STARTCHAR uni04B6
ENCODING 1206
SWIDTH 600 0
DWIDTH 11 0
BBX 10 16 1 -4
BITMAP
A00740
A00740
A00740
A00740
B00740
780740
1BFF40
000740
000740
000740
000740
0007D0
0000D0
0000D0
0000D0
0000D0
ENDCHAR
STARTCHAR uni04B7
ENCODING 1207
SWIDTH 600 0
DWIDTH 11 0
BBX 9 13 1 -4
BITMAP
700A00
700A00
700A00
740A00
380A00
0BFE00
000A00
000A00
000BC0
0001C0
0001C0
0001C0
0001C0
ENDCHAR
STARTCHAR uni04BA
ENCODING 1210
SWIDTH 600 0
DWIDTH 11 0
BBX 9 12 1 0
BITMAP
700000
700000
700000
700000
700000
7FF800
741B00
700340
700380
700380
700380
700380
ENDCHAR
STARTCHAR uni04BB
ENCODING 1211
SWIDTH 600 0
DWIDTH 11 0
BBX 9 13 1 0
BITMAP
700000
700000
700000
700000
71F900
790B00
740740
700340
700340
700340
700340
700340
700340
ENDCHAR
STARTCHAR uni04C0
ENCODING 1216
SWIDTH 600 0
DWIDTH 11 0
BBX 8 12 1 0
BITMAP
7FFF
01C0
01C0
01C0
01C0
01C0
01C0
01C0
01C0
01C0
01C0
7FFF
ENDCHAR
STARTCHAR uni04C1
ENCODING 1217
SWIDTH 600 0
DWIDTH 11 0
BBX 11 15 0 0
BITMAP
074700
01FD00
000000
E07078
2870D0
1C71C0
0D7280
0A7240
0BFF40
0D7280
1C71C0
2870D0
3470A0
707074
A07038
ENDCHAR
STARTCHAR uni04C2
ENCODING 1218
SWIDTH 600 0
DWIDTH 11 0
BBX 11 13 0 0
BITMAP
070300
034B00
01B800
000000
A07074
2870D0
0C71C0
0A7280
0BFF40
0D72C0
2C70D0
3470B0
B07034
ENDCHAR
STARTCHAR uni04CF
ENCODING 1231
SWIDTH 600 0
DWIDTH 11 0
BBX 9 13 1 0
BITMAP
BFC000
02C000
02C000
02C000
02C000
02C000
02C000
02C000
02C000
02C000
01C000
01D000
007F40
ENDCHAR
STARTCHAR uni04D0
ENCODING 1232
SWIDTH 600 0
DWIDTH 11 0
BBX 10 15 0 0
BITMAP
074700
01FD00
000000
00B400
00E800
01DC00
028D00
034A00
070700
0A0340
0FFF80
1C01C0
2800D0
3800A0
740070
ENDCHAR
STARTCHAR uni04D1
ENCODING 1233
SWIDTH 600 0
DWIDTH 11 0
BBX 9 13 1 0
BITMAP
0D0900
0A1D00
02F400
000000
1BF800
241E00
000700
01BF40
2E4740
740740
B00740
741B40
1FD340
ENDCHAR
STARTCHAR uni04D4
ENCODING 1236
SWIDTH 600 0
DWIDTH 11 0
BBX 11 12 0 0
BITMAP
007FF4
00FC00
01DC00
029C00
035C00
071FE0
0E1C00
1FFC00
281C00
341C00
701C00
A01FF8
ENDCHAR
STARTCHAR uni04D5
ENCODING 1237
SWIDTH 600 0
DWIDTH 11 0
BBX 11 9 0 0
BITMAP
2F87D0
20AC74
007428
06F028
2D7FF8
B03000
A03400
70AD10
2F4BE4
ENDCHAR
STARTCHAR uni04D6
ENCODING 1238
SWIDTH 600 0
DWIDTH 11 0
BBX 8 15 2 0
BITMAP
2828
0BE0
0000
FFFD
E000
E000
E000
E000
FFF4
E000
E000
E000
E000
E000
FFFE
ENDCHAR
STARTCHAR uni04D7
ENCODING 1239
SWIDTH 600 0
DWIDTH 11 0
BBX 9 13 1 0
BITMAP
0C0900
0A1C00
02F400
000000
06F800
2D0A00
740340
B00280
BFFF80
B00000
740000
2D0600
06F900
ENDCHAR
STARTCHAR uni04D8
ENCODING 1240
SWIDTH 600 0
DWIDTH 11 0
BBX 9 12 1 0
BITMAP
0BF400
181E00
000740
000380
000280
0002C0
FFFFC0
E00280
A00380
700700
2D1D00
0BE400
ENDCHAR
STARTCHAR uni04D9
ENCODING 1241
SWIDTH 600 0
DWIDTH 11 0
BBX 9 9 1 0
BITMAP
1BE400
241E00
000740
000380
BFFF80
A00380
700740
381E00
0BF400
ENDCHAR
STARTCHAR uni04E2
ENCODING 1250
SWIDTH 600 0
DWIDTH 11 0
BBX 9 14 1 0
BITMAP
0FFC00
000000
B00B40
B00F40
B02F40
B03740
B0B340
B0D340
A2C340
A34340
AB0340
AD0340
BC0340
B40340
ENDCHAR
STARTCHAR uni04E3
ENCODING 1251
SWIDTH 600 0
DWIDTH 11 0
BBX 8 12 1 0
BITMAP
0BFC
0000
0000
740B
741F
743B
74A7
75C7
7747
7A07
7C07
7407
ENDCHAR
STARTCHAR uni04E6
ENCODING 1254
SWIDTH 600 0
DWIDTH 11 0
BBX 9 15 1 0
BITMAP
0D2800
0D2800
000000
0BE400
2D1E00
700740
A00380
E00280
D002C0
D002C0
E00280
A00380
740740
2D1E00
0BE400
ENDCHAR
STARTCHAR uni04E7
ENCODING 1255
SWIDTH 600 0
DWIDTH 11 0
BBX 9 13 1 0
BITMAP
1D2C00
1D2C00
000000
000000
0BF400
291E00
B00740
A00380
E00380
A00380
700740
291E00
0BF400
ENDCHAR
STARTCHAR uni04E8
ENCODING 1256
SWIDTH 600 0
DWIDTH 11 0
BBX 9 12 1 0
BITMAP
0BF400
291E00
700740
A00380
D00280
FFFFC0
D002C0
E00280
A00380
700740
2D1E00
0BF400
ENDCHAR
STARTCHAR uni04E9
ENCODING 1257
SWIDTH 600 0
DWIDTH 11 0
BBX 9 9 1 0
BITMAP
0BF400
391E00
B00740
A00380
FFFF80
A00280
B00340
391E00
0BF400
ENDCHAR
STARTCHAR uni04EE
ENCODING 1262
SWIDTH 600 0
DWIDTH 11 0
BBX 9 14 1 0
BITMAP
0FFC00
000000
E00280
700340
340700
2C0E00
0D1D00
0A2800
077400
02F000
01E000
01D000
028000
2E0000
ENDCHAR
STARTCHAR uni04EF
ENCODING 1263
SWIDTH 600 0
DWIDTH 11 0
BBX 9 16 1 -4
BITMAP
0FFC00
000000
000000
E00280
700340
340700
1C0A00
0D1C00
0A2800
033400
02B000
00E000
01D000
028000
074000
B90000
ENDCHAR
STARTCHAR uni04F2
ENCODING 1266
SWIDTH 600 0
DWIDTH 11 0
BBX 9 16 1 0
BITMAP
018600
034D00
061400
000000
E00280
700340
340700
2C0E00
0D1D00
0A2800
077400
02F000
01E000
01D000
028000
2E0000
ENDCHAR
STARTCHAR uni04F3
ENCODING 1267
SWIDTH 600 0
DWIDTH 11 0
BBX 9 17 1 -4
BITMAP
008600
024D00
021800
000000
E00280
700340
340700
1C0A00
0D1C00
0A2800
033400
02B000
00E000
01D000
028000
074000
B90000
ENDCHAR
STARTCHAR a.sups
ENCODING 7491
SWIDTH 600 0
DWIDTH 11 0
BBX 5 6 3 7
BITMAP
6F40
51C0
2BC0
A5C0
D1C0
7D80
ENDCHAR
STARTCHAR b.sups
ENCODING 7495
SWIDTH 600 0
DWIDTH 11 0
BBX 6 9 3 7
BITMAP
4000
D000
D000
EF40
E1D0
D090
D090
D1C0
AF40
ENDCHAR
STARTCHAR d.sups
ENCODING 7496
SWIDTH 600 0
DWIDTH 11 0
BBX 6 9 2 7
BITMAP
0010
0070
0070
1FB0
74B0
6070
6070
74B0
1F60
ENDCHAR
STARTCHAR e.sups
ENCODING 7497
SWIDTH 600 0
DWIDTH 11 0
BBX 7 6 2 7
BITMAP
1B90
3870
7030
7FF4
2410
1BE0
ENDCHAR
STARTCHAR g.sups
ENCODING 7501
SWIDTH 600 0
DWIDTH 11 0
BBX 7 9 2 4
BITMAP
1BF8
3490
34A0
1F80
3000
2FF4
2028
7064
2FD0
ENDCHAR
STARTCHAR k.sups
ENCODING 7503
SWIDTH 600 0
DWIDTH 11 0
BBX 6 9 3 7
BITMAP
5000
A000
A000
A0D0
A340
AE00
B740
A1C0
5060
ENDCHAR
STARTCHAR m.sups
ENCODING 7504
SWIDTH 600 0
DWIDTH 11 0
BBX 9 6 1 7
BITMAP
AF6E00
A1D240
90C280
90C280
90C280
90C240
ENDCHAR
STARTCHAR o.sups
ENCODING 7506
SWIDTH 600 0
DWIDTH 11 0
BBX 6 6 2 7
BITMAP
1B80
34B0
6030
6030
34B0
1B80
ENDCHAR
STARTCHAR p.sups
ENCODING 7510
SWIDTH 600 0
DWIDTH 11 0
BBX 6 9 3 4
BITMAP
DF40
E1D0
D090
D090
D1C0
EF40
D000
D000
4000
ENDCHAR
STARTCHAR t.sups
ENCODING 7511
SWIDTH 600 0
DWIDTH 11 0
BBX 6 8 3 7
BITMAP
1400
2400
FFC0
2400
2400
2400
2800
0BD0
ENDCHAR
STARTCHAR u.sups
ENCODING 7512
SWIDTH 600 0
DWIDTH 11 0
BBX 5 6 3 7
BITMAP
C1C0
C1C0
C1C0
C1C0
D2C0
7D80
ENDCHAR
STARTCHAR v.sups
ENCODING 7515
SWIDTH 600 0
DWIDTH 11 0
BBX 6 6 2 7
BITMAP
7030
3460
2890
1CC0
0E80
0740
ENDCHAR
STARTCHAR c.sups
ENCODING 7580
SWIDTH 600 0
DWIDTH 11 0
BBX 5 6 3 7
BITMAP
1F80
7440
A000
A000
7440
1F80
ENDCHAR
STARTCHAR f.sups
ENCODING 7584
SWIDTH 600 0
DWIDTH 11 0
BBX 6 9 3 7
BITMAP
07E0
0D00
0C00
7FD0
0C00
0C00
0C00
0C00
0C00
ENDCHAR
STARTCHAR z.sups
ENCODING 7611
SWIDTH 600 0
DWIDTH 11 0
BBX 7 6 2 7
BITMAP
3FF0
00D0
0240
0A00
2800
7FF4
ENDCHAR
STARTCHAR uni1E06
ENCODING 7686
SWIDTH 600 0
DWIDTH 11 0
BBX 9 15 1 -3
BITMAP
7FF800
741E00
740700
740700
741E00
7FF800
740B40
740280
740280
740380
741B40
7FF800
000000
000000
0FFC00
ENDCHAR
STARTCHAR uni1E07
ENCODING 7687
SWIDTH 600 0
DWIDTH 11 0
BBX 9 16 1 -3
BITMAP
700000
700000
700000
700000
76F800
791B00
740340
700380
700380
700380
740740
791E00
72F800
000000
000000
0BFC00
ENDCHAR
STARTCHAR uni1E0C
ENCODING 7692
SWIDTH 600 0
DWIDTH 11 0
BBX 9 15 1 -3
BITMAP
7FE400
702D00
700740
700380
700280
7002C0
7002C0
700280
700380
700B00
702D00
7FE400
000000
02D000
02D000
ENDCHAR
STARTCHAR uni1E0D
ENCODING 7693
SWIDTH 600 0
DWIDTH 11 0
BBX 8 16 1 -3
BITMAP
0007
0007
0007
0007
0BE7
3D1F
B007
A007
E007
E007
B007
381F
1BE3
0000
01D0
01D0
ENDCHAR
STARTCHAR uni1E0E
ENCODING 7694
SWIDTH 600 0
DWIDTH 11 0
BBX 9 15 1 -3
BITMAP
7FE400
702D00
700740
700380
700280
7002C0
7002C0
700280
700380
700B00
702D00
7FE400
000000
000000
0FF800
ENDCHAR
STARTCHAR uni1E0F
ENCODING 7695
SWIDTH 600 0
DWIDTH 11 0
BBX 8 16 1 -3
BITMAP
0007
0007
0007
0007
0BE7
3D1F
B007
A007
E007
E007
B007
381F
1BE3
0000
0000
0FFC
ENDCHAR
STARTCHAR uni1E10
ENCODING 7696
SWIDTH 600 0
DWIDTH 11 0
BBX 9 17 1 -5
BITMAP
7FE400
702D00
700740
700380
700280
7002C0
7002C0
700280
700380
700B00
702D00
7FE400
014000
02C000
00A000
019000
074000
ENDCHAR
STARTCHAR uni1E11
ENCODING 7697
SWIDTH 600 0
DWIDTH 11 0
BBX 8 18 1 -5
BITMAP
0007
0007
0007
0007
0BE7
3D1F
B007
A007
E007
E007
B007
381F
1BE3
0180
02D0
00A0
00A0
0780
ENDCHAR
STARTCHAR uni1E16
ENCODING 7702
SWIDTH 600 0
DWIDTH 11 0
BBX 8 18 2 0
BITMAP
0060
01D0
0240
0000
1FF4
0000
FFFD
E000
E000
E000
E000
FFF4
E000
E000
E000
E000
E000
FFFE
ENDCHAR
STARTCHAR uni1E17
ENCODING 7703
SWIDTH 600 0
DWIDTH 11 0
BBX 9 15 1 0
BITMAP
006400
019000
000000
0BFC00
000000
000000
06F800
2D0A00
740340
B00280
BFFF80
B00000
740000
2D0600
06F900
ENDCHAR
STARTCHAR uni1E20
ENCODING 7712
SWIDTH 600 0
DWIDTH 11 0
BBX 9 14 1 0
BITMAP
07FD00
000000
06FD00
1D0700
740000
B00000
E00000
E00000
E03F80
E00280
B00280
740280
1D0780
06F900
ENDCHAR
STARTCHAR uni1E21
ENCODING 7713
SWIDTH 600 0
DWIDTH 11 0
BBX 9 16 1 -4
BITMAP
0FFC00
000000
000000
0BFFC0
2D2D00
340E00
340A00
281D00
1FF400
340000
340000
2FFE40
7002C0
A001C0
740780
1BF900
ENDCHAR
STARTCHAR uni1E24
ENCODING 7716
SWIDTH 600 0
DWIDTH 11 0
BBX 9 15 1 -3
BITMAP
B00340
B00340
B00340
B00340
B00340
BFFF40
B00340
B00340
B00340
B00340
B00340
B00340
000000
02D000
02D000
ENDCHAR
STARTCHAR uni1E25
ENCODING 7717
SWIDTH 600 0
DWIDTH 11 0
BBX 9 16 1 -3
BITMAP
700000
700000
700000
700000
71F900
790B00
740740
700340
700340
700340
700340
700340
700340
000000
01E000
01E000
ENDCHAR
STARTCHAR uni1E26
ENCODING 7718
SWIDTH 600 0
DWIDTH 11 0
BBX 9 15 1 0
BITMAP
0D2800
0D2800
000000
B00340
B00340
B00340
B00340
B00340
BFFF40
B00340
B00340
B00340
B00340
B00340
B00340
ENDCHAR
STARTCHAR uni1E27
ENCODING 7719
SWIDTH 600 0
DWIDTH 11 0
BBX 10 16 0 0
BITMAP
D28000
D28000
000000
1C0000
1C0000
1C0000
1C0000
1C7E40
1E42C0
1D01D0
1C00D0
1C00D0
1C00D0
1C00D0
1C00D0
1C00D0
ENDCHAR
STARTCHAR uni1E28
ENCODING 7720
SWIDTH 600 0
DWIDTH 11 0
BBX 10 17 0 -5
BITMAP
2C00D0
2C00D0
2C00D0
2C00D0
2C00D0
2FFFD0
2C00D0
2C00D0
2C00D0
2C00D0
2C00D0
2C00D0
180000
2D0000
0A0000
190000
780000
ENDCHAR
STARTCHAR uni1E29
ENCODING 7721
SWIDTH 600 0
DWIDTH 11 0
BBX 10 18 0 -5
BITMAP
1C0000
1C0000
1C0000
1C0000
1C7E40
1E42C0
1D01D0
1C00D0
1C00D0
1C00D0
1C00D0
1C00D0
1C00D0
080000
2D0000
0A0000
0A0000
780000
ENDCHAR
STARTCHAR uni1E2A
ENCODING 7722
SWIDTH 600 0
DWIDTH 11 0
BBX 9 16 1 -4
BITMAP
B00340
B00340
B00340
B00340
B00340
BFFF40
B00340
B00340
B00340
B00340
B00340
B00340
000000
180C00
0D2800
06E000
ENDCHAR
STARTCHAR uni1E2B
ENCODING 7723
SWIDTH 600 0
DWIDTH 11 0
BBX 9 17 1 -4
BITMAP
700000
700000
700000
700000
71F900
790B00
740740
700340
700340
700340
700340
700340
700340
000000
0C0900
0A1C00
02E400
ENDCHAR
STARTCHAR uni1E32
ENCODING 7730
SWIDTH 600 0
DWIDTH 11 0
BBX 10 15 1 -3
BITMAP
740780
740E00
742C00
74B400
75D000
7BE000
7E7400
782C00
741D00
740B00
740380
7402D0
000000
00B000
00B000
ENDCHAR
STARTCHAR uni1E33
ENCODING 7731
SWIDTH 600 0
DWIDTH 11 0
BBX 8 16 2 -3
BITMAP
D000
D000
D000
D000
D01D
D074
D1D0
D780
EEC0
F4A0
E074
D01D
D00B
0000
03C0
03C0
ENDCHAR
STARTCHAR uni1E34
ENCODING 7732
SWIDTH 600 0
DWIDTH 11 0
BBX 10 15 1 -3
BITMAP
740780
740E00
742C00
74B400
75D000
7BE000
7E7400
782C00
741D00
740B00
740380
7402D0
000000
000000
07FD00
ENDCHAR
STARTCHAR uni1E35
ENCODING 7733
SWIDTH 600 0
DWIDTH 11 0
BBX 8 16 2 -3
BITMAP
D000
D000
D000
D000
D01D
D074
D1D0
D780
EEC0
F4A0
E074
D01D
D00B
0000
0000
1FF4
ENDCHAR
STARTCHAR uni1E36
ENCODING 7734
SWIDTH 600 0
DWIDTH 11 0
BBX 8 15 2 -3
BITMAP
B000
B000
B000
B000
B000
B000
B000
B000
B000
B000
B000
BFFE
0000
02D0
02D0
ENDCHAR
STARTCHAR uni1E37
ENCODING 7735
SWIDTH 600 0
DWIDTH 11 0
BBX 9 16 1 -3
BITMAP
BFC000
02C000
02C000
02C000
02C000
02C000
02C000
02C000
02C000
02C000
01C000
01D000
007F40
000000
003800
003C00
ENDCHAR
STARTCHAR uni1E38
ENCODING 7736
SWIDTH 600 0
DWIDTH 11 0
BBX 9 17 1 -3
BITMAP
FF8000
000000
2C0000
2C0000
2C0000
2C0000
2C0000
2C0000
2C0000
2C0000
2C0000
2C0000
2C0000
2FFF80
000000
00B400
00B400
ENDCHAR
STARTCHAR uni1E39
ENCODING 7737
SWIDTH 600 0
DWIDTH 11 0
BBX 9 18 1 -3
BITMAP
1FF800
000000
BFC000
02C000
02C000
02C000
02C000
02C000
02C000
02C000
02C000
02C000
01C000
01D000
007F40
000000
003800
003C00
ENDCHAR
STARTCHAR uni1E3A
ENCODING 7738
SWIDTH 600 0
DWIDTH 11 0
BBX 8 15 2 -3
BITMAP
B000
B000
B000
B000
B000
B000
B000
B000
B000
B000
B000
BFFE
0000
0000
0FF8
ENDCHAR
STARTCHAR uni1E3B
ENCODING 7739
SWIDTH 600 0
DWIDTH 11 0
BBX 9 16 1 -3
BITMAP
BFC000
02C000
02C000
02C000
02C000
02C000
02C000
02C000
02C000
02C000
01C000
01D000
007F40
000000
000000
01FF40
ENDCHAR
STARTCHAR uni1E3E
ENCODING 7742
SWIDTH 600 0
DWIDTH 11 0
BBX 9 16 1 0
BITMAP
002400
00A000
018000
000000
B40780
B80B80
AC0E80
AD1A80
AA2780
A73380
A3A380
A2D380
A18380
A00380
A00380
A00380
ENDCHAR
STARTCHAR uni1E3F
ENCODING 7743
SWIDTH 600 0
DWIDTH 11 0
BBX 9 14 1 0
BITMAP
001800
007800
00E000
018000
000000
DB5F40
F1E2C0
E0D1C0
E0D1C0
E0D1C0
E0D1C0
E0D1C0
E0D1C0
E0D1C0
ENDCHAR
STARTCHAR uni1E40
ENCODING 7744
SWIDTH 600 0
DWIDTH 11 0
BBX 9 15 1 0
BITMAP
01D000
01D000
000000
B40780
B80B80
AC0E80
AD1A80
AA2780
A73380
A3A380
A2D380
A18380
A00380
A00380
A00380
ENDCHAR
STARTCHAR uni1E41
ENCODING 7745
SWIDTH 600 0
DWIDTH 11 0
BBX 9 13 1 0
BITMAP
01E000
01E000
000000
000000
DB5F40
F1E2C0
E0D1C0
E0D1C0
E0D1C0
E0D1C0
E0D1C0
E0D1C0
E0D1C0
ENDCHAR
STARTCHAR uni1E42
ENCODING 7746
SWIDTH 600 0
DWIDTH 11 0
BBX 9 15 1 -3
BITMAP
B40780
B80B80
AC0E80
AD1A80
AA2780
A73380
A3A380
A2D380
A18380
A00380
A00380
A00380
000000
02D000
02D000
ENDCHAR
STARTCHAR uni1E43
ENCODING 7747
SWIDTH 600 0
DWIDTH 11 0
BBX 9 12 1 -3
BITMAP
DB5F40
F1E2C0
E0D1C0
E0D1C0
E0D1C0
E0D1C0
E0D1C0
E0D1C0
E0D1C0
000000
01D000
01D000
ENDCHAR
STARTCHAR uni1E44
ENCODING 7748
SWIDTH 600 0
DWIDTH 11 0
BBX 9 15 1 0
BITMAP
01D000
01D000
000000
B40340
BC0340
AD0340
AB0340
B34340
B2C340
B0D340
B0B340
B03740
B02B40
B00F40
B00B40
ENDCHAR
STARTCHAR uni1E45
ENCODING 7749
SWIDTH 600 0
DWIDTH 11 0
BBX 9 13 1 0
BITMAP
01E000
01E000
000000
000000
71F900
790B00
740740
700340
700340
700340
700340
700340
700340
ENDCHAR
STARTCHAR uni1E46
ENCODING 7750
SWIDTH 600 0
DWIDTH 11 0
BBX 9 15 1 -3
BITMAP
B40340
BC0340
AD0340
AB0340
B34340
B2C340
B0D340
B0B340
B03740
B02B40
B00F40
B00B40
000000
02D000
02D000
ENDCHAR
STARTCHAR uni1E47
ENCODING 7751
SWIDTH 600 0
DWIDTH 11 0
BBX 9 12 1 -3
BITMAP
71F900
790B00
740740
700340
700340
700340
700340
700340
700340
000000
01E000
01E000
ENDCHAR
STARTCHAR uni1E48
ENCODING 7752
SWIDTH 600 0
DWIDTH 11 0
BBX 9 15 1 -3
BITMAP
B40340
BC0340
AD0340
AB0340
B34340
B2C340
B0D340
B0B340
B03740
B02B40
B00F40
B00B40
000000
000000
0FF800
ENDCHAR
STARTCHAR uni1E49
ENCODING 7753
SWIDTH 600 0
DWIDTH 11 0
BBX 9 12 1 -3
BITMAP
71F900
790B00
740740
700340
700340
700340
700340
700340
700340
000000
000000
0BFC00
ENDCHAR
STARTCHAR uni1E52
ENCODING 7762
SWIDTH 600 0
DWIDTH 11 0
BBX 9 18 1 0
BITMAP
002000
00A000
018000
000000
0FF800
000000
0BE400
2D1E00
700740
A00380
E00280
D002C0
D002C0
E00280
A00380
740740
2D1E00
0BE400
ENDCHAR
STARTCHAR uni1E53
ENCODING 7763
SWIDTH 600 0
DWIDTH 11 0
BBX 9 15 1 0
BITMAP
006000
018000
000000
0FF800
000000
000000
0BF400
291E00
B00740
A00380
E00380
A00380
700740
291E00
0BF400
ENDCHAR
STARTCHAR uni1E58
ENCODING 7768
SWIDTH 600 0
DWIDTH 11 0
BBX 9 15 1 0
BITMAP
01D000
01D000
000000
7FF800
741B00
740340
740380
740340
741B00
7FF800
747400
742C00
741D00
740B00
740380
ENDCHAR
STARTCHAR uni1E59
ENCODING 7769
SWIDTH 600 0
DWIDTH 11 0
BBX 8 13 2 0
BITMAP
02D0
02D0
0000
0000
71BD
7640
7800
7000
7000
7000
7000
7000
7000
ENDCHAR
STARTCHAR uni1E5A
ENCODING 7770
SWIDTH 600 0
DWIDTH 11 0
BBX 9 15 1 -3
BITMAP
7FF800
741B00
740340
740380
740340
741B00
7FF800
747400
742C00
741D00
740B00
740380
000000
01E000
01E000
ENDCHAR
STARTCHAR uni1E5B
ENCODING 7771
SWIDTH 600 0
DWIDTH 11 0
BBX 8 12 2 -3
BITMAP
71BD
7640
7800
7000
7000
7000
7000
7000
7000
0000
7400
7800
ENDCHAR
STARTCHAR uni1E5C
ENCODING 7772
SWIDTH 600 0
DWIDTH 11 0
BBX 9 17 1 -3
BITMAP
0FFC00
000000
7FF800
741B00
740340
740380
740340
741B00
7FF800
747400
742C00
741D00
740B00
740380
000000
01E000
01E000
ENDCHAR
STARTCHAR uni1E5D
ENCODING 7773
SWIDTH 600 0
DWIDTH 11 0
BBX 8 15 2 -3
BITMAP
1FF8
0000
0000
71BD
7640
7800
7000
7000
7000
7000
7000
7000
0000
7400
7800
ENDCHAR
STARTCHAR uni1E5E
ENCODING 7774
SWIDTH 600 0
DWIDTH 11 0
BBX 9 15 1 -3
BITMAP
7FF800
741B00
740340
740380
740340
741B00
7FF800
747400
742C00
741D00
740B00
740380
000000
000000
0BFC00
ENDCHAR
STARTCHAR uni1E5F
ENCODING 7775
SWIDTH 600 0
DWIDTH 11 0
BBX 9 12 1 -3
BITMAP
1C6F40
1D9000
1E0000
1C0000
1C0000
1C0000
1C0000
1C0000
1C0000
000000
000000
FFC000
ENDCHAR
STARTCHAR uni1E60
ENCODING 7776
SWIDTH 600 0
DWIDTH 11 0
BBX 9 15 1 0
BITMAP
01E000
01E000
000000
06F900
2D0700
340000
380000
2E0000
0BE400
00BE00
000B40
000380
100380
B80B00
1BF800
ENDCHAR
STARTCHAR uni1E61
ENCODING 7777
SWIDTH 600 0
DWIDTH 11 0
BBX 9 13 1 0
BITMAP
01D000
01D000
000000
000000
0BF900
381A00
340000
2E4000
06F900
001B40
000340
740B00
1BF900
ENDCHAR
STARTCHAR uni1E62
ENCODING 7778
SWIDTH 600 0
DWIDTH 11 0
BBX 9 15 1 -3
BITMAP
06F900
2D0700
340000
380000
2E0000
0BE400
00BE00
000B40
000380
100380
B80B00
1BF800
000000
01E000
01E000
ENDCHAR
STARTCHAR uni1E63
ENCODING 7779
SWIDTH 600 0
DWIDTH 11 0
BBX 9 12 1 -3
BITMAP
0BF900
381A00
340000
2E4000
06F900
001B40
000340
740B00
1BF900
000000
01D000
01E000
ENDCHAR
STARTCHAR uni1E6C
ENCODING 7788
SWIDTH 600 0
DWIDTH 11 0
BBX 10 15 0 -3
BITMAP
7FFFF0
007000
007000
007000
007000
007000
007000
007000
007000
007000
007000
007000
000000
00B400
00B400
ENDCHAR
STARTCHAR uni1E6D
ENCODING 7789
SWIDTH 600 0
DWIDTH 11 0
BBX 9 15 1 -3
BITMAP
034000
034000
074000
BFFF40
074000
074000
074000
074000
074000
034000
028040
00BF40
000000
007800
007800
ENDCHAR
STARTCHAR uni1E6E
ENCODING 7790
SWIDTH 600 0
DWIDTH 11 0
BBX 10 15 0 -3
BITMAP
7FFFF0
007000
007000
007000
007000
007000
007000
007000
007000
007000
007000
007000
000000
000000
03FE00
ENDCHAR
STARTCHAR uni1E6F
ENCODING 7791
SWIDTH 600 0
DWIDTH 11 0
BBX 9 15 1 -3
BITMAP
034000
034000
074000
BFFF40
074000
074000
074000
074000
074000
034000
028040
00BF40
000000
000000
02FF40
ENDCHAR
STARTCHAR uni1E7E
ENCODING 7806
SWIDTH 600 0
DWIDTH 11 0
BBX 9 15 1 -3
BITMAP
E002C0
A00380
700740
340B00
280E00
2C1D00
1D1C00
0E2800
0B3400
07B000
03E000
02D000
000000
02D000
02D000
ENDCHAR
STARTCHAR uni1E7F
ENCODING 7807
SWIDTH 600 0
DWIDTH 11 0
BBX 9 12 1 -3
BITMAP
E00280
700340
340B00
280D00
1D1C00
0A2800
073400
03B000
02D000
000000
02D000
02D000
ENDCHAR
STARTCHAR Wgrave
ENCODING 7808
SWIDTH 600 0
DWIDTH 11 0
BBX 11 16 0 0
BITMAP
018000
01E000
002400
000000
B00038
B00074
700074
747470
34B870
38E8A0
38DCA0
29CDA0
2A8AD0
1F4AD0
1F47C0
0F03C0
ENDCHAR
STARTCHAR wgrave
ENCODING 7809
SWIDTH 600 0
DWIDTH 11 0
BBX 11 14 0 0
BITMAP
014000
02D000
00B000
002400
000000
A01028
B0B434
70A870
34DC70
39DCA0
298DA0
1E8AD0
1F47C0
0F07C0
ENDCHAR
STARTCHAR Wacute
ENCODING 7810
SWIDTH 600 0
DWIDTH 11 0
BBX 11 16 0 0
BITMAP
000900
002800
006000
000000
B00038
B00074
700074
747470
34B870
38E8A0
38DCA0
29CDA0
2A8AD0
1F4AD0
1F47C0
0F03C0
ENDCHAR
STARTCHAR wacute
ENCODING 7811
SWIDTH 600 0
DWIDTH 11 0
BBX 11 14 0 0
BITMAP
000900
001D00
007400
005000
000000
A01028
B0B434
70A870
34DC70
39DCA0
298DA0
1E8AD0
1F47C0
0F07C0
ENDCHAR
STARTCHAR Wdieresis
ENCODING 7812
SWIDTH 600 0
DWIDTH 11 0
BBX 11 15 0 0
BITMAP
034A00
034A00
000000
B00038
B00074
700074
747470
34B870
38E8A0
38DCA0
29CDA0
2A8AD0
1F4AD0
1F47C0
0F03C0
ENDCHAR
STARTCHAR wdieresis
ENCODING 7813
SWIDTH 600 0
DWIDTH 11 0
BBX 11 13 0 0
BITMAP
074B00
074B00
000000
000000
A01028
B0B434
70A870
34DC70
39DCA0
298DA0
1E8AD0
1F47C0
0F07C0
ENDCHAR
STARTCHAR uni1E8E
ENCODING 7822
SWIDTH 600 0
DWIDTH 11 0
BBX 9 15 1 0
BITMAP
01D000
01D000
000000
E002C0
B00340
380A00
2C0D00
0D2800
077400
03E000
01D000
01C000
01C000
01C000
01C000
ENDCHAR
STARTCHAR uni1E8F
ENCODING 7823
SWIDTH 600 0
DWIDTH 11 0
BBX 9 17 1 -4
BITMAP
01D000
01D000
000000
000000
E00280
700340
340700
1C0A00
0D1C00
0A2800
033400
02B000
00E000
01D000
028000
074000
B90000
ENDCHAR
STARTCHAR uni1E90
ENCODING 7824
SWIDTH 600 0
DWIDTH 11 0
BBX 9 15 1 0
BITMAP
01E000
076800
090800
7FFF80
000B00
001D00
002800
007400
00E000
02C000
074000
0E0000
2C0000
740000
BFFF80
ENDCHAR
STARTCHAR uni1E91
ENCODING 7825
SWIDTH 600 0
DWIDTH 11 0
BBX 9 13 1 0
BITMAP
01F000
076800
090900
000000
3FFF40
001E00
003800
00B000
02D000
074000
1E0000
380000
BFFF80
ENDCHAR
STARTCHAR uni1E92
ENCODING 7826
SWIDTH 600 0
DWIDTH 11 0
BBX 9 15 1 -3
BITMAP
7FFF80
000B00
001D00
002800
007400
00E000
02C000
074000
0E0000
2C0000
740000
BFFF80
000000
01E000
01E000
ENDCHAR
STARTCHAR uni1E93
ENCODING 7827
SWIDTH 600 0
DWIDTH 11 0
BBX 9 12 1 -3
BITMAP
3FFF40
001E00
003800
00B000
02D000
074000
1E0000
380000
BFFF80
000000
01E000
01E000
ENDCHAR
STARTCHAR uni1E94
ENCODING 7828
SWIDTH 600 0
DWIDTH 11 0
BBX 9 15 1 -3
BITMAP
7FFF80
000B00
001D00
002800
007400
00E000
02C000
074000
0E0000
2C0000
740000
BFFF80
000000
000000
0BFC00
ENDCHAR
STARTCHAR uni1E95
ENCODING 7829
SWIDTH 600 0
DWIDTH 11 0
BBX 9 12 1 -3
BITMAP
3FFF40
001E00
003800
00B000
02D000
074000
1E0000
380000
BFFF80
000000
000000
0BFC00
ENDCHAR
STARTCHAR uni1E96
ENCODING 7830
SWIDTH 600 0
DWIDTH 11 0
BBX 9 16 1 -3
BITMAP
700000
700000
700000
700000
71F900
790B00
740740
700340
700340
700340
700340
700340
700340
000000
000000
0BFC00
ENDCHAR
STARTCHAR uni1E97
ENCODING 7831
SWIDTH 600 0
DWIDTH 11 0
BBX 9 15 1 0
BITMAP
287400
287400
000000
034000
034000
074000
BFFF40
074000
074000
074000
074000
074000
034000
028040
00BF40
ENDCHAR
STARTCHAR uni1E9E
ENCODING 7838
SWIDTH 600 0
DWIDTH 11 0
BBX 10 12 1 0
BITMAP
0BF400
2D1E00
740700
B00E00
B03800
B07800
B02F40
B003C0
B001D0
B001C0
B24380
B1BE00
ENDCHAR
STARTCHAR uni1EA0
ENCODING 7840
SWIDTH 600 0
DWIDTH 11 0
BBX 10 15 0 -3
BITMAP
00B400
00E800
01DC00
028D00
034A00
070700
0A0340
0FFF80
1C01C0
2800D0
3800A0
740070
000000
00B400
00B400
ENDCHAR
STARTCHAR uni1EA1
ENCODING 7841
SWIDTH 600 0
DWIDTH 11 0
BBX 9 12 1 -3
BITMAP
1BF800
241E00
000700
01BF40
2E4740
740740
B00740
741B40
1FD340
000000
02D000
02D000
ENDCHAR
STARTCHAR uni1EA2
ENCODING 7842
SWIDTH 600 0
DWIDTH 11 0
BBX 10 16 0 0
BITMAP
00A400
002800
002800
006000
00B400
00E800
01DC00
028D00
034A00
070700
0A0340
0FFF80
1C01C0
2800D0
3800A0
740070
ENDCHAR
STARTCHAR uni1EA3
ENCODING 7843
SWIDTH 600 0
DWIDTH 11 0
BBX 9 14 1 0
BITMAP
01D000
007000
007000
009000
000000
1BF800
241E00
000700
01BF40
2E4740
740740
B00740
741B40
1FD340
ENDCHAR
STARTCHAR uni1EA4
ENCODING 7844
SWIDTH 600 0
DWIDTH 11 0
BBX 10 16 0 0
BITMAP
000080
00BA40
024900
000000
00B400
00E800
01DC00
028D00
034A00
070700
0A0340
0FFF80
1C01C0
2800D0
3800A0
740070
ENDCHAR
STARTCHAR uni1EA5
ENCODING 7845
SWIDTH 600 0
DWIDTH 11 0
BBX 9 14 1 0
BITMAP
000180
000240
01F600
061800
000000
1BF800
241E00
000700
01BF40
2E4740
740740
B00740
741B40
1FD340
ENDCHAR
STARTCHAR uni1EA6
ENCODING 7846
SWIDTH 600 0
DWIDTH 11 0
BBX 10 16 0 0
BITMAP
080000
06B800
024900
000000
00B400
00E800
01DC00
028D00
034A00
070700
0A0340
0FFF80
1C01C0
2800D0
3800A0
740070
ENDCHAR
STARTCHAR uni1EA7
ENCODING 7847
SWIDTH 600 0
DWIDTH 11 0
BBX 9 14 1 0
BITMAP
600000
340000
19F000
061800
000000
1BF800
241E00
000700
01BF40
2E4740
740740
B00740
741B40
1FD340
ENDCHAR
STARTCHAR uni1EA8
ENCODING 7848
SWIDTH 600 0
DWIDTH 11 0
BBX 10 16 0 0
BITMAP
000380
00B9C0
024B80
000000
00B400
00E800
01DC00
028D00
034A00
070700
0A0340
0FFF80
1C01C0
2800D0
3800A0
740070
ENDCHAR
STARTCHAR uni1EA9
ENCODING 7849
SWIDTH 600 0
DWIDTH 11 0
BBX 9 14 1 0
BITMAP
000A00
000240
01F600
061800
000000
1BF800
241E00
000700
01BF40
2E4740
740740
B00740
741B40
1FD340
ENDCHAR
STARTCHAR uni1EAA
ENCODING 7850
SWIDTH 600 0
DWIDTH 11 0
BBX 10 17 0 0
BITMAP
02D200
022E00
00B800
024900
000000
00B400
00E800
01DC00
028D00
034A00
070700
0A0340
0FFF80
1C01C0
2800D0
3800A0
740070
ENDCHAR
STARTCHAR uni1EAB
ENCODING 7851
SWIDTH 600 0
DWIDTH 11 0
BBX 9 15 1 0
BITMAP
068800
097800
000000
01F000
061800
000000
1BF800
241E00
000700
01BF40
2E4740
740740
B00740
741B40
1FD340
ENDCHAR
STARTCHAR uni1EAC
ENCODING 7852
SWIDTH 600 0
DWIDTH 11 0
BBX 10 18 0 -3
BITMAP
00B800
029D00
020200
00B400
00E800
01DC00
028D00
034A00
070700
0A0340
0FFF80
1C01C0
2800D0
3800A0
740070
000000
00B400
00B400
ENDCHAR
STARTCHAR uni1EAD
ENCODING 7853
SWIDTH 600 0
DWIDTH 11 0
BBX 9 16 1 -3
BITMAP
01F000
076800
090900
000000
1BF800
241E00
000700
01BF40
2E4740
740740
B00740
741B40
1FD340
000000
02D000
02D000
ENDCHAR
STARTCHAR uni1EAE
ENCODING 7854
SWIDTH 600 0
DWIDTH 11 0
BBX 10 18 0 0
BITMAP
000800
002800
002000
034700
01F900
000000
00B400
00E800
01DC00
028D00
034A00
070700
0A0340
0FFF80
1C01C0
2800D0
3800A0
740070
ENDCHAR
STARTCHAR uni1EAF
ENCODING 7855
SWIDTH 600 0
DWIDTH 11 0
BBX 9 15 1 0
BITMAP
002400
007000
0C8500
0A1C00
02F400
000000
1BF800
241E00
000700
01BF40
2E4740
740740
B00740
741B40
1FD340
ENDCHAR
STARTCHAR uni1EB0
ENCODING 7856
SWIDTH 600 0
DWIDTH 11 0
BBX 10 18 0 0
BITMAP
018000
00D000
002000
034700
01F900
000000
00B400
00E800
01DC00
028D00
034A00
070700
0A0340
0FFF80
1C01C0
2800D0
3800A0
740070
ENDCHAR
STARTCHAR uni1EB1
ENCODING 7857
SWIDTH 600 0
DWIDTH 11 0
BBX 9 15 1 0
BITMAP
024000
01C000
0C9500
0A1C00
02F400
000000
1BF800
241E00
000700
01BF40
2E4740
740740
B00740
741B40
1FD340
ENDCHAR
STARTCHAR uni1EB2
ENCODING 7858
SWIDTH 600 0
DWIDTH 11 0
BBX 10 18 0 0
BITMAP
00A400
002800
003400
034700
01F900
000000
00B400
00E800
01DC00
028D00
034A00
070700
0A0340
0FFF80
1C01C0
2800D0
3800A0
740070
ENDCHAR
STARTCHAR uni1EB3
ENCODING 7859
SWIDTH 600 0
DWIDTH 11 0
BBX 9 15 1 0
BITMAP
01D000
007000
0C9500
0A1C00
02F400
000000
1BF800
241E00
000700
01BF40
2E4740
740740
B00740
741B40
1FD340
ENDCHAR
STARTCHAR uni1EB4
ENCODING 7860
SWIDTH 600 0
DWIDTH 11 0
BBX 10 17 0 0
BITMAP
02D200
022E00
034600
01F900
000000
00B400
00E800
01DC00
028D00
034A00
070700
0A0340
0FFF80
1C01C0
2800D0
3800A0
740070
ENDCHAR
STARTCHAR uni1EB5
ENCODING 7861
SWIDTH 600 0
DWIDTH 11 0
BBX 9 15 1 0
BITMAP
068800
097800
000000
090900
02F400
000000
1BF800
241E00
000700
01BF40
2E4740
740740
B00740
741B40
1FD340
ENDCHAR
STARTCHAR uni1EB6
ENCODING 7862
SWIDTH 600 0
DWIDTH 11 0
BBX 10 19 0 -3
BITMAP
020300
034A00
01B800
000000
00B400
00E800
01DC00
028D00
034A00
070700
0A0340
0FFF80
1C01C0
2800D0
3800A0
740070
000000
00B400
00B400
ENDCHAR
STARTCHAR uni1EB7
ENCODING 7863
SWIDTH 600 0
DWIDTH 11 0
BBX 9 16 1 -3
BITMAP
0C0900
0A1C00
02F400
000000
1BF800
241E00
000700
01BF40
2E4740
740740
B00740
741B40
1FD340
000000
02D000
02D000
ENDCHAR
STARTCHAR uni1EB8
ENCODING 7864
SWIDTH 600 0
DWIDTH 11 0
BBX 8 15 2 -3
BITMAP
FFFD
E000
E000
E000
E000
FFF4
E000
E000
E000
E000
E000
FFFE
0000
03C0
03C0
ENDCHAR
STARTCHAR uni1EB9
ENCODING 7865
SWIDTH 600 0
DWIDTH 11 0
BBX 9 12 1 -3
BITMAP
06F800
2D0A00
740340
B00280
BFFF80
B00000
740000
2D0600
06F900
000000
01E000
01E000
ENDCHAR
STARTCHAR uni1EBA
ENCODING 7866
SWIDTH 600 0
DWIDTH 11 0
BBX 8 16 2 0
BITMAP
0780
00D0
00D0
0280
FFFD
E000
E000
E000
E000
FFF4
E000
E000
E000
E000
E000
FFFE
ENDCHAR
STARTCHAR uni1EBB
ENCODING 7867
SWIDTH 600 0
DWIDTH 11 0
BBX 9 14 1 0
BITMAP
01D000
007000
007000
00D000
000000
06F800
2D0A00
740340
B00280
BFFF80
B00000
740000
2D0600
06F900
ENDCHAR
STARTCHAR uni1EBC
ENCODING 7868
SWIDTH 600 0
DWIDTH 11 0
BBX 8 15 2 0
BITMAP
2E4C
31B8
0000
FFFD
E000
E000
E000
E000
FFF4
E000
E000
E000
E000
E000
FFFE
ENDCHAR
STARTCHAR uni1EBD
ENCODING 7869
SWIDTH 600 0
DWIDTH 11 0
BBX 9 13 1 0
BITMAP
010100
0ED600
187D00
000000
06F800
2D0A00
740340
B00280
BFFF80
B00000
740000
2D0600
06F900
ENDCHAR
STARTCHAR uni1EBE
ENCODING 7870
SWIDTH 600 0
DWIDTH 11 0
BBX 8 16 2 0
BITMAP
0006
07D8
0860
0000
FFFD
E000
E000
E000
E000
FFF4
E000
E000
E000
E000
E000
FFFE
ENDCHAR
STARTCHAR uni1EBF
ENCODING 7871
SWIDTH 600 0
DWIDTH 11 0
BBX 9 14 1 0
BITMAP
000180
000340
02E500
061800
000000
06F800
2D0A00
740340
B00280
BFFF80
B00000
740000
2D0600
06F900
ENDCHAR
STARTCHAR uni1EC0
ENCODING 7872
SWIDTH 600 0
DWIDTH 11 0
BBX 8 16 2 0
BITMAP
9000
27D0
0860
0000
FFFD
E000
E000
E000
E000
FFF4
E000
E000
E000
E000
E000
FFFE
ENDCHAR
STARTCHAR uni1EC1
ENCODING 7873
SWIDTH 600 0
DWIDTH 11 0
BBX 9 14 1 0
BITMAP
500000
340000
1AE000
061800
000000
06F800
2D0A00
740340
B00280
BFFF80
B00000
740000
2D0600
06F900
ENDCHAR
STARTCHAR uni1EC2
ENCODING 7874
SWIDTH 600 0
DWIDTH 11 0
BBX 8 16 2 0
BITMAP
0029
07DA
086D
0000
FFFD
E000
E000
E000
E000
FFF4
E000
E000
E000
E000
E000
FFFE
ENDCHAR
STARTCHAR uni1EC3
ENCODING 7875
SWIDTH 600 0
DWIDTH 11 0
BBX 9 14 1 0
BITMAP
000A00
000240
02E600
061800
000000
06F800
2D0A00
740340
B00280
BFFF80
B00000
740000
2D0600
06F900
ENDCHAR
STARTCHAR uni1EC4
ENCODING 7876
SWIDTH 600 0
DWIDTH 11 0
BBX 8 17 2 0
BITMAP
1E54
25F0
07D0
0860
0000
FFFD
E000
E000
E000
E000
FFF4
E000
E000
E000
E000
E000
FFFE
ENDCHAR
STARTCHAR uni1EC5
ENCODING 7877
SWIDTH 600 0
DWIDTH 11 0
BBX 9 15 1 0
BITMAP
068800
09B800
000000
02E000
061800
000000
06F800
2D0A00
740340
B00280
BFFF80
B00000
740000
2D0600
06F900
ENDCHAR
STARTCHAR uni1EC6
ENCODING 7878
SWIDTH 600 0
DWIDTH 11 0
BBX 8 18 2 -3
BITMAP
07C0
0DB0
1424
FFFD
E000
E000
E000
E000
FFF4
E000
E000
E000
E000
E000
FFFE
0000
03C0
03C0
ENDCHAR
STARTCHAR uni1EC7
ENCODING 7879
SWIDTH 600 0
DWIDTH 11 0
BBX 9 16 1 -3
BITMAP
01E000
076800
080900
000000
06F800
2D0A00
740340
B00280
BFFF80
B00000
740000
2D0600
06F900
000000
01E000
01E000
ENDCHAR
STARTCHAR uni1EC8
ENCODING 7880
SWIDTH 600 0
DWIDTH 11 0
BBX 8 16 1 0
BITMAP
0290
00A0
00A0
0180
7FFF
01C0
01C0
01C0
01C0
01C0
01C0
01C0
01C0
01C0
01C0
7FFF
ENDCHAR
STARTCHAR uni1EC9
ENCODING 7881
SWIDTH 600 0
DWIDTH 11 0
BBX 7 14 1 0
BITMAP
00E0
0028
0028
0060
0000
7FF0
0070
0070
0070
0070
0070
0070
0070
0070
ENDCHAR
STARTCHAR uni1ECA
ENCODING 7882
SWIDTH 600 0
DWIDTH 11 0
BBX 8 15 1 -3
BITMAP
7FFF
01C0
01C0
01C0
01C0
01C0
01C0
01C0
01C0
01C0
01C0
7FFF
0000
02D0
02D0
ENDCHAR
STARTCHAR uni1ECB
ENCODING 7883
SWIDTH 600 0
DWIDTH 11 0
BBX 7 16 1 -3
BITMAP
00B4
00B4
0000
0000
7FF0
0070
0070
0070
0070
0070
0070
0070
0070
0000
00B4
00B4
ENDCHAR
STARTCHAR uni1ECC
ENCODING 7884
SWIDTH 600 0
DWIDTH 11 0
BBX 9 15 1 -3
BITMAP
0BE400
2D1E00
700740
A00380
E00280
D002C0
D002C0
E00280
A00380
740740
2D1E00
0BE400
000000
02D000
02D000
ENDCHAR
STARTCHAR uni1ECD
ENCODING 7885
SWIDTH 600 0
DWIDTH 11 0
BBX 9 12 1 -3
BITMAP
0BF400
291E00
B00740
A00380
E00380
A00380
700740
291E00
0BF400
000000
02D000
02D000
ENDCHAR
STARTCHAR uni1ECE
ENCODING 7886
SWIDTH 600 0
DWIDTH 11 0
BBX 9 16 1 0
BITMAP
029000
00A000
00A000
018000
0BE400
2D1E00
700740
A00380
E00280
D002C0
D002C0
E00280
A00380
740740
2D1E00
0BE400
ENDCHAR
STARTCHAR uni1ECF
ENCODING 7887
SWIDTH 600 0
DWIDTH 11 0
BBX 9 14 1 0
BITMAP
029000
00A000
00A000
018000
000000
0BF400
291E00
B00740
A00380
E00380
A00380
700740
291E00
0BF400
ENDCHAR
STARTCHAR uni1ED0
ENCODING 7888
SWIDTH 600 0
DWIDTH 11 0
BBX 9 16 1 0
BITMAP
000200
02E900
092400
000000
0BE400
2D1E00
700740
A00380
E00280
D002C0
D002C0
E00280
A00380
740740
2D1E00
0BE400
ENDCHAR
STARTCHAR uni1ED1
ENCODING 7889
SWIDTH 600 0
DWIDTH 11 0
BBX 9 14 1 0
BITMAP
000240
000700
02E900
092800
000000
0BF400
291E00
B00740
A00380
E00380
A00380
700740
291E00
0BF400
ENDCHAR
STARTCHAR uni1ED2
ENCODING 7890
SWIDTH 600 0
DWIDTH 11 0
BBX 9 16 1 0
BITMAP
200000
1AE000
092400
000000
0BE400
2D1E00
700740
A00380
E00280
D002C0
D002C0
E00280
A00380
740740
2D1E00
0BE400
ENDCHAR
STARTCHAR uni1ED3
ENCODING 7891
SWIDTH 600 0
DWIDTH 11 0
BBX 9 14 1 0
BITMAP
900000
700000
16E000
092800
000000
0BF400
291E00
B00740
A00380
E00380
A00380
700740
291E00
0BF400
ENDCHAR
STARTCHAR uni1ED4
ENCODING 7892
SWIDTH 600 0
DWIDTH 11 0
BBX 9 16 1 0
BITMAP
000E00
02E700
092E00
000000
0BE400
2D1E00
700740
A00380
E00280
D002C0
D002C0
E00280
A00380
740740
2D1E00
0BE400
ENDCHAR
STARTCHAR uni1ED5
ENCODING 7893
SWIDTH 600 0
DWIDTH 11 0
BBX 9 14 1 0
BITMAP
000E00
000700
02EA00
092800
000000
0BF400
291E00
B00740
A00380
E00380
A00380
700740
291E00
0BF400
ENDCHAR
STARTCHAR uni1ED6
ENCODING 7894
SWIDTH 600 0
DWIDTH 11 0
BBX 9 17 1 0
BITMAP
0B4800
08B800
02E000
092400
000000
0BE400
2D1E00
700740
A00380
E00280
D002C0
D002C0
E00280
A00380
740740
2D1E00
0BE400
ENDCHAR
STARTCHAR uni1ED7
ENCODING 7895
SWIDTH 600 0
DWIDTH 11 0
BBX 9 15 1 0
BITMAP
064800
09B400
000000
02E000
092800
000000
0BF400
291E00
B00740
A00380
E00380
A00380
700740
291E00
0BF400
ENDCHAR
STARTCHAR uni1ED8
ENCODING 7896
SWIDTH 600 0
DWIDTH 11 0
BBX 9 18 1 -3
BITMAP
02E000
0A7400
080800
0BE400
2D1E00
700740
A00380
E00280
D002C0
D002C0
E00280
A00380
740740
2D1E00
0BE400
000000
02D000
02D000
ENDCHAR
STARTCHAR uni1ED9
ENCODING 7897
SWIDTH 600 0
DWIDTH 11 0
BBX 9 16 1 -3
BITMAP
02E000
0A7400
080800
000000
0BF400
291E00
B00740
A00380
E00380
A00380
700740
291E00
0BF400
000000
02D000
02D000
ENDCHAR
STARTCHAR uni1EDA
ENCODING 7898
SWIDTH 600 0
DWIDTH 11 0
BBX 9 16 1 0
BITMAP
002400
00A180
0181C0
0001C0
0BEA40
2D1E00
700740
A00380
E002C0
D002C0
D002C0
E00280
A00380
740700
2D1E00
0BE400
ENDCHAR
STARTCHAR uni1EDB
ENCODING 7899
SWIDTH 600 0
DWIDTH 11 0
BBX 9 14 1 0
BITMAP
002400
007400
01D180
0141C0
000180
0BFA00
291E00
B00740
A00380
E00380
A00380
700740
291E00
0BF400
ENDCHAR
STARTCHAR uni1EDC
ENCODING 7900
SWIDTH 600 0
DWIDTH 11 0
BBX 9 16 1 0
BITMAP
060000
078180
0091C0
0001C0
0BEA40
2D1E00
700740
A00380
E002C0
D002C0
D002C0
E00280
A00380
740700
2D1E00
0BE400
ENDCHAR
STARTCHAR uni1EDD
ENCODING 7901
SWIDTH 600 0
DWIDTH 11 0
BBX 9 14 1 0
BITMAP
050000
0B4000
02C180
0091C0
000180
0BFA00
291E00
B00740
A00380
E00380
A00380
700740
291E00
0BF400
ENDCHAR
STARTCHAR uni1EDE
ENCODING 7902
SWIDTH 600 0
DWIDTH 11 0
BBX 9 16 1 0
BITMAP
029000
00A180
00A1C0
0181C0
0BEA40
2D1E00
700740
A00380
E002C0
D002C0
D002C0
E00280
A00380
740700
2D1E00
0BE400
ENDCHAR
STARTCHAR uni1EDF
ENCODING 7903
SWIDTH 600 0
DWIDTH 11 0
BBX 9 14 1 0
BITMAP
029000
00A000
00A180
0181C0
000180
0BFA00
291E00
B00740
A00380
E00380
A00380
700740
291E00
0BF400
ENDCHAR
STARTCHAR uni1EE0
ENCODING 7904
SWIDTH 600 0
DWIDTH 11 0
BBX 9 15 1 0
BITMAP
1E4980
31B9C0
0001C0
0BEA40
2D1E00
700740
A00380
E002C0
D002C0
D002C0
E00280
A00380
740700
2D1E00
0BE400
ENDCHAR
STARTCHAR uni1EE1
ENCODING 7905
SWIDTH 600 0
DWIDTH 11 0
BBX 9 13 1 0
BITMAP
050400
2B4D80
30B5C0
000180
0BFA00
291E00
B00740
A00380
E00380
A00380
700740
291E00
0BF400
ENDCHAR
STARTCHAR uni1EE2
ENCODING 7906
SWIDTH 600 0
DWIDTH 11 0
BBX 9 18 1 -3
BITMAP
000180
0001C0
0001C0
0BEA40
2D1E00
700740
A00380
E002C0
D002C0
D002C0
E00280
A00380
740700
2D1E00
0BE400
000000
02D000
02D000
ENDCHAR
STARTCHAR uni1EE3
ENCODING 7907
SWIDTH 600 0
DWIDTH 11 0
BBX 9 15 1 -3
BITMAP
000180
0001C0
000180
0BFA00
291E00
B00740
A00380
E00380
A00380
700740
291E00
0BF400
000000
02D000
02D000
ENDCHAR
STARTCHAR uni1EE4
ENCODING 7908
SWIDTH 600 0
DWIDTH 11 0
BBX 9 15 1 -3
BITMAP
B00340
B00340
B00340
B00340
B00340
B00340
B00340
B00340
700340
740700
2D1E00
0BE400
000000
02D000
02D000
ENDCHAR
STARTCHAR uni1EE5
ENCODING 7909
SWIDTH 600 0
DWIDTH 11 0
BBX 8 12 1 -3
BITMAP
B007
B007
B007
B007
B007
B007
700B
782B
1F93
0000
01D0
01D0
ENDCHAR
STARTCHAR uni1EE6
ENCODING 7910
SWIDTH 600 0
DWIDTH 11 0
BBX 9 16 1 0
BITMAP
029000
00A000
00A000
018000
B00340
B00340
B00340
B00340
B00340
B00340
B00340
B00340
700340
740700
2D1E00
0BE400
ENDCHAR
STARTCHAR uni1EE7
ENCODING 7911
SWIDTH 600 0
DWIDTH 11 0
BBX 8 14 1 0
BITMAP
0280
00A0
00A0
0180
0000
B007
B007
B007
B007
B007
B007
700B
782B
1F93
ENDCHAR
STARTCHAR uni1EE8
ENCODING 7912
SWIDTH 600 0
DWIDTH 11 0
BBX 11 16 1 0
BITMAP
002400
00A020
018034
000070
B003D0
B00340
B00340
B00340
B00340
B00340
B00340
B00340
700340
740700
2D1E00
0BF800
ENDCHAR
STARTCHAR uni1EE9
ENCODING 7913
SWIDTH 600 0
DWIDTH 11 0
BBX 10 14 1 0
BITMAP
002400
007400
01D060
0240A0
0001E0
B00780
B00700
B00700
B00700
B00700
B00700
700B00
782B00
1F9300
ENDCHAR
STARTCHAR uni1EEA
ENCODING 7914
SWIDTH 600 0
DWIDTH 11 0
BBX 11 16 1 0
BITMAP
060000
078020
009034
000070
B003D0
B00340
B00340
B00340
B00340
B00340
B00340
B00340
700340
740700
2D1E00
0BF800
ENDCHAR
STARTCHAR uni1EEB
ENCODING 7915
SWIDTH 600 0
DWIDTH 11 0
BBX 10 14 1 0
BITMAP
090000
0B0000
02C060
0090A0
0001E0
B00780
B00700
B00700
B00700
B00700
B00700
700B00
782B00
1F9300
ENDCHAR
STARTCHAR uni1EEC
ENCODING 7916
SWIDTH 600 0
DWIDTH 11 0
BBX 11 16 1 0
BITMAP
029000
00A020
00A034
018070
B003D0
B00340
B00340
B00340
B00340
B00340
B00340
B00340
700340
740700
2D1E00
0BF800
ENDCHAR
STARTCHAR uni1EED
ENCODING 7917
SWIDTH 600 0
DWIDTH 11 0
BBX 10 14 1 0
BITMAP
028000
00A000
00A060
0180A0
0001E0
B00780
B00700
B00700
B00700
B00700
B00700
700B00
782B00
1F9300
ENDCHAR
STARTCHAR uni1EEE
ENCODING 7918
SWIDTH 600 0
DWIDTH 11 0
BBX 11 15 1 0
BITMAP
1F8920
24B834
000070
B003D0
B00340
B00340
B00340
B00340
B00340
B00340
B00340
700340
740700
2D1E00
0BF800
ENDCHAR
STARTCHAR uni1EEF
ENCODING 7919
SWIDTH 600 0
DWIDTH 11 0
BBX 10 13 1 0
BITMAP
050400
2A8C60
20B8A0
0001E0
B00780
B00700
B00700
B00700
B00700
B00700
700B00
782B00
1F9300
ENDCHAR
STARTCHAR uni1EF0
ENCODING 7920
SWIDTH 600 0
DWIDTH 11 0
BBX 11 18 1 -3
BITMAP
000020
000034
000070
B003D0
B00340
B00340
B00340
B00340
B00340
B00340
B00340
700340
740700
2D1E00
0BF800
000000
02D000
02D000
ENDCHAR
STARTCHAR uni1EF1
ENCODING 7921
SWIDTH 600 0
DWIDTH 11 0
BBX 10 15 1 -3
BITMAP
000060
0000A0
0001E0
B00780
B00700
B00700
B00700
B00700
B00700
700B00
782B00
1F9300
000000
01D000
01D000
ENDCHAR
STARTCHAR Ygrave
ENCODING 7922
SWIDTH 600 0
DWIDTH 11 0
BBX 9 16 1 0
BITMAP
060000
078000
009000
000000
E002C0
B00340
380A00
2C0D00
0D2800
077400
03E000
01D000
01C000
01C000
01C000
01C000
ENDCHAR
STARTCHAR ygrave
ENCODING 7923
SWIDTH 600 0
DWIDTH 11 0
BBX 9 18 1 -4
BITMAP
050000
0B4000
02C000
009000
000000
E00280
700340
340700
1C0A00
0D1C00
0A2800
033400
02B000
00E000
01D000
028000
074000
B90000
ENDCHAR
STARTCHAR uni1EF4
ENCODING 7924
SWIDTH 600 0
DWIDTH 11 0
BBX 9 15 1 -3
BITMAP
E002C0
B00340
380A00
2C0D00
0D2800
077400
03E000
01D000
01C000
01C000
01C000
01C000
000000
02D000
02D000
ENDCHAR
STARTCHAR uni1EF5
ENCODING 7925
SWIDTH 600 0
DWIDTH 11 0
BBX 9 13 1 -4
BITMAP
E00280
700340
340700
1C0A00
0D1C00
0A2800
033400
02B000
00E000
01D000
028B40
074B40
B90000
ENDCHAR
STARTCHAR uni1EF6
ENCODING 7926
SWIDTH 600 0
DWIDTH 11 0
BBX 9 16 1 0
BITMAP
029000
00A000
00A000
018000
E002C0
B00340
380A00
2C0D00
0D2800
077400
03E000
01D000
01C000
01C000
01C000
01C000
ENDCHAR
STARTCHAR uni1EF7
ENCODING 7927
SWIDTH 600 0
DWIDTH 11 0
BBX 9 18 1 -4
BITMAP
029000
00A000
00A000
019000
000000
E00280
700340
340700
1C0A00
0D1C00
0A2800
033400
02B000
00E000
01D000
028000
074000
B90000
ENDCHAR
STARTCHAR uni1EF8
ENCODING 7928
SWIDTH 600 0
DWIDTH 11 0
BBX 9 15 1 0
BITMAP
1F8900
24B800
000000
E002C0
B00340
380A00
2C0D00
0D2800
077400
03E000
01D000
01C000
01C000
01C000
01C000
ENDCHAR
STARTCHAR uni1EF9
ENCODING 7929
SWIDTH 600 0
DWIDTH 11 0
BBX 9 17 1 -4
BITMAP
050100
1E8900
247800
000000
E00280
700340
340700
1C0A00
0D1C00
0A2800
033400
02B000
00E000
01D000
028000
074000
B90000
ENDCHAR
STARTCHAR uni1FBD
ENCODING 8125
SWIDTH 600 0
DWIDTH 11 0
BBX 3 4 4 10
BITMAP
A4
28
28
60
ENDCHAR
STARTCHAR uni1FBE
ENCODING 8126
SWIDTH 600 0
DWIDTH 11 0
BBX 3 7 4 0
BITMAP
70
70
70
70
70
70
3C
ENDCHAR
STARTCHAR uni1FBF
ENCODING 8127
SWIDTH 600 0
DWIDTH 11 0
BBX 3 4 4 10
BITMAP
A4
28
28
60
ENDCHAR
STARTCHAR uni1FC0
ENCODING 8128
SWIDTH 600 0
DWIDTH 11 0
BBX 7 3 2 10
BITMAP
1410
7A24
91E0
ENDCHAR
STARTCHAR uni1FC1
ENCODING 8129
SWIDTH 600 0
DWIDTH 11 0
BBX 6 5 2 10
BITMAP
2D20
62E0
0000
3460
3460
ENDCHAR
STARTCHAR uni1FCD
ENCODING 8141
SWIDTH 600 0
DWIDTH 11 0
BBX 6 4 2 10
BITMAP
75C0
1DC0
1CD0
2490
ENDCHAR
STARTCHAR uni1FCE
ENCODING 8142
SWIDTH 600 0
DWIDTH 11 0
BBX 6 4 2 10
BITMAP
74A0
1CD0
1CC0
2580
ENDCHAR
STARTCHAR uni1FCF
ENCODING 8143
SWIDTH 600 0
DWIDTH 11 0
BBX 5 5 3 10
BITMAP
A480
DB40
2900
0A00
0800
ENDCHAR
STARTCHAR uni1FDD
ENCODING 8157
SWIDTH 600 0
DWIDTH 11 0
BBX 6 4 2 10
BITMAP
2A80
61C0
60C0
2490
ENDCHAR
STARTCHAR uni1FDE
ENCODING 8158
SWIDTH 600 0
DWIDTH 11 0
BBX 6 4 2 10
BITMAP
2CD0
70D0
71C0
2580
ENDCHAR
STARTCHAR uni1FDF
ENCODING 8159
SWIDTH 600 0
DWIDTH 11 0
BBX 5 5 3 10
BITMAP
A480
DB40
1D00
2800
1800
ENDCHAR
STARTCHAR uni1FED
ENCODING 8173
SWIDTH 600 0
DWIDTH 11 0
BBX 6 4 2 10
BITMAP
0900
0600
7330
7270
ENDCHAR
STARTCHAR uni1FEE
ENCODING 8174
SWIDTH 600 0
DWIDTH 11 0
BBX 6 4 2 10
BITMAP
0280
7270
7370
0600
ENDCHAR
STARTCHAR uni1FEF
ENCODING 8175
SWIDTH 600 0
DWIDTH 11 0
BBX 2 4 4 10
BITMAP
D0
E0
A0
70
ENDCHAR
STARTCHAR uni1FFD
ENCODING 8189
SWIDTH 600 0
DWIDTH 11 0
BBX 2 4 5 10
BITMAP
60
A0
D0
C0
ENDCHAR
STARTCHAR uni1FFE
ENCODING 8190
SWIDTH 600 0
DWIDTH 11 0
BBX 3 4 4 10
BITMAP
68
D0
D0
70
ENDCHAR
STARTCHAR uni2007
ENCODING 8199
SWIDTH 600 0
DWIDTH 11 0
BBX 1 1 0 0
BITMAP
00
ENDCHAR
STARTCHAR uni2010
ENCODING 8208
SWIDTH 600 0
DWIDTH 11 0
BBX 9 1 1 5
BITMAP
7FFF40
ENDCHAR
STARTCHAR figuredash
ENCODING 8210
SWIDTH 600 0
DWIDTH 11 0
BBX 9 1 1 4
BITMAP
BFFF40
ENDCHAR
STARTCHAR endash
ENCODING 8211
SWIDTH 600 0
DWIDTH 11 0
BBX 9 1 1 4
BITMAP
BFFF40
ENDCHAR
STARTCHAR emdash
ENCODING 8212
SWIDTH 600 0
DWIDTH 11 0
BBX 11 1 0 4
BITMAP
FFFFF8
ENDCHAR
STARTCHAR uni2015
ENCODING 8213
SWIDTH 600 0
DWIDTH 11 0
BBX 11 1 0 4
BITMAP
FFFFF8
ENDCHAR
STARTCHAR uni2016
ENCODING 8214
SWIDTH 600 0
DWIDTH 11 0
BBX 6 18 2 -5
BITMAP
7070
7070
7070
7070
7070
7070
7070
7070
7070
7070
7070
7070
7070
7070
7070
7070
7070
7070
ENDCHAR
STARTCHAR underscoredbl
ENCODING 8215
SWIDTH 600 0
DWIDTH 11 0
BBX 9 4 1 -5
BITMAP
FFFF80
000000
000000
FFFF80
ENDCHAR
STARTCHAR quoteleft
ENCODING 8216
SWIDTH 600 0
DWIDTH 11 0
BBX 4 7 3 6
BITMAP
01
0D
28
30
7D
3E
2D
ENDCHAR
STARTCHAR quoteright
ENCODING 8217
SWIDTH 600 0
DWIDTH 11 0
BBX 3 7 4 6
BITMAP
B4
FC
BC
1C
24
A0
40
ENDCHAR
STARTCHAR quotesinglbase
ENCODING 8218
SWIDTH 600 0
DWIDTH 11 0
BBX 3 7 4 -4
BITMAP
B4
FC
BC
1C
24
A0
40
ENDCHAR
STARTCHAR quotereversed
ENCODING 8219
SWIDTH 600 0
DWIDTH 11 0
BBX 3 7 4 6
BITMAP
B4
F8
F4
C0
A0
34
04
ENDCHAR
STARTCHAR quotedblleft
ENCODING 8220
SWIDTH 600 0
DWIDTH 11 0
BBX 8 7 1 6
BITMAP
0101
0D0E
2828
3034
7D3D
3E3E
2D2D
ENDCHAR
STARTCHAR quotedblright
ENCODING 8221
SWIDTH 600 0
DWIDTH 11 0
BBX 7 7 2 6
BITMAP
B474
F8FC
BCBC
181C
2428
A0A0
4040
ENDCHAR
STARTCHAR quotedblbase
ENCODING 8222
SWIDTH 600 0
DWIDTH 11 0
BBX 7 7 2 -4
BITMAP
B474
F8FC
BCBC
181C
2428
A0A0
4040
ENDCHAR
STARTCHAR dagger
ENCODING 8224
SWIDTH 600 0
DWIDTH 11 0
BBX 7 15 2 -2
BITMAP
0700
0700
0700
BFF8
0300
0300
0300
0700
0700
0700
0700
0700
0700
0700
0100
ENDCHAR
STARTCHAR daggerdbl
ENCODING 8225
SWIDTH 600 0
DWIDTH 11 0
BBX 7 15 2 -2
BITMAP
0700
0700
0700
BFF8
0700
0700
0700
0700
0700
0700
0700
BFF8
0700
0700
0700
ENDCHAR
STARTCHAR bullet
ENCODING 8226
SWIDTH 600 0
DWIDTH 11 0
BBX 6 5 2 2
BITMAP
1B80
3FE0
7FF0
3FE0
1B80
ENDCHAR
STARTCHAR ellipsis
ENCODING 8230
SWIDTH 600 0
DWIDTH 11 0
BBX 11 3 0 0
BITMAP
3874E0
7CB9F4
3874A0
ENDCHAR
STARTCHAR uni202F
ENCODING 8239
SWIDTH 600 0
DWIDTH 11 0
BBX 1 1 0 0
BITMAP
00
ENDCHAR
STARTCHAR perthousand
ENCODING 8240
SWIDTH 600 0
DWIDTH 11 0
BBX 10 11 1 0
BITMAP
7D0000
C70000
C702D0
7D6E40
069000
240000
7D1F40
D73180
C360C0
D73180
7D1F40
ENDCHAR
STARTCHAR uni2032
ENCODING 8242
SWIDTH 600 0
DWIDTH 11 0
BBX 3 5 4 8
BITMAP
34
34
70
70
60
ENDCHAR
STARTCHAR uni2033
ENCODING 8243
SWIDTH 600 0
DWIDTH 11 0
BBX 5 5 3 8
BITMAP
B1C0
A2C0
A280
9240
C240
ENDCHAR
STARTCHAR uni2035
ENCODING 8245
SWIDTH 600 0
DWIDTH 11 0
BBX 2 5 4 8
BITMAP
A0
70
70
30
30
ENDCHAR
STARTCHAR guilsinglleft
ENCODING 8249
SWIDTH 600 0
DWIDTH 11 0
BBX 4 7 3 1
BITMAP
06
1D
78
70
78
1D
06
ENDCHAR
STARTCHAR guilsinglright
ENCODING 8250
SWIDTH 600 0
DWIDTH 11 0
BBX 4 7 4 1
BITMAP
80
B0
2C
0D
2C
70
80
ENDCHAR
STARTCHAR exclamdbl
ENCODING 8252
SWIDTH 600 0
DWIDTH 11 0
BBX 8 12 1 0
BITMAP
280D
280D
280D
280D
280C
280C
280C
0000
0000
2C1D
7D2F
2C1D
ENDCHAR
STARTCHAR uni203D
ENCODING 8253
SWIDTH 600 0
DWIDTH 11 0
BBX 7 12 2 0
BITMAP
6F90
D074
0028
0A34
0AA0
0B40
0600
0000
0000
0B00
0F40
0B00
ENDCHAR
STARTCHAR uni203E
ENCODING 8254
SWIDTH 600 0
DWIDTH 11 0
BBX 9 1 1 10
BITMAP
FFFF80
ENDCHAR
STARTCHAR uni203F
ENCODING 8255
SWIDTH 600 0
DWIDTH 11 0
BBX 17 3 -3 -4
BITMAP
A000000640
1E5001A900
01AFFE4000
ENDCHAR
STARTCHAR fraction
ENCODING 8260
SWIDTH 600 0
DWIDTH 11 0
BBX 10 11 0 0
BITMAP
000020
0000A0
000280
000600
000000
000000
000000
020000
090000
280000
600000
ENDCHAR
STARTCHAR uni2047
ENCODING 8263
SWIDTH 600 0
DWIDTH 11 0
BBX 11 12 0 0
BITMAP
6F5BD0
52D470
01C074
0280A0
0701D0
0D0340
0C0300
000000
000000
1E0780
2F0BC0
1E0780
ENDCHAR
STARTCHAR uni2048
ENCODING 8264
SWIDTH 600 0
DWIDTH 11 0
BBX 10 12 0 0
BITMAP
6F4280
52C280
01C280
028280
070280
0D0240
0C0240
000000
000000
1E0380
2F07D0
1E0380
ENDCHAR
STARTCHAR uni2049
ENCODING 8265
SWIDTH 600 0
DWIDTH 11 0
BBX 10 12 1 0
BITMAP
286F40
2851C0
2801D0
280280
240740
240D00
240C00
000000
000000
381E00
7C2F00
381E00
ENDCHAR
STARTCHAR zero.sups
ENCODING 8304
SWIDTH 600 0
DWIDTH 11 0
BBX 7 7 2 7
BITMAP
1B80
34A0
6030
6034
6030
34A0
1B80
ENDCHAR
STARTCHAR i.sups
ENCODING 8305
SWIDTH 600 0
DWIDTH 11 0
BBX 4 8 3 7
BITMAP
06
00
FF
07
07
07
07
06
ENDCHAR
STARTCHAR four.sups
ENCODING 8308
SWIDTH 600 0
DWIDTH 11 0
BBX 7 7 2 7
BITMAP
0200
0A00
1C90
2490
7FF4
0090
0090
ENDCHAR
STARTCHAR five.sups
ENCODING 8309
SWIDTH 600 0
DWIDTH 11 0
BBX 6 7 2 7
BITMAP
1FE0
2400
2400
2FD0
1470
6070
1F90
ENDCHAR
STARTCHAR six.sups
ENCODING 8310
SWIDTH 600 0
DWIDTH 11 0
BBX 6 7 2 7
BITMAP
0BD0
2810
3140
7AE0
7030
3470
0B90
ENDCHAR
STARTCHAR seven.sups
ENCODING 8311
SWIDTH 600 0
DWIDTH 11 0
BBX 6 7 2 7
BITMAP
7FF0
0090
01C0
0240
0300
0700
0600
ENDCHAR
STARTCHAR eight.sups
ENCODING 8312
SWIDTH 600 0
DWIDTH 11 0
BBX 6 7 2 7
BITMAP
1F90
3460
28A0
1FC0
34A0
7070
1F90
ENDCHAR
STARTCHAR nine.sups
ENCODING 8313
SWIDTH 600 0
DWIDTH 11 0
BBX 6 7 2 7
BITMAP
1F80
70A0
6070
3AF0
0570
1090
2F80
ENDCHAR
STARTCHAR parenleft.sups
ENCODING 8317
SWIDTH 600 0
DWIDTH 11 0
BBX 3 10 4 5
BITMAP
18
34
60
A0
90
90
A0
60
34
18
ENDCHAR
STARTCHAR parenright.sups
ENCODING 8318
SWIDTH 600 0
DWIDTH 11 0
BBX 3 10 4 5
BITMAP
80
60
30
24
28
28
24
30
60
80
ENDCHAR
STARTCHAR n.sups
ENCODING 8319
SWIDTH 600 0
DWIDTH 11 0
BBX 6 6 3 7
BITMAP
DB80
E1C0
D0D0
D0D0
D0D0
90D0
ENDCHAR
STARTCHAR zero.subs
ENCODING 8320
SWIDTH 600 0
DWIDTH 11 0
BBX 7 7 2 -3
BITMAP
1B80
34A0
6030
6034
6030
34A0
1B80
ENDCHAR
STARTCHAR one.subs
ENCODING 8321
SWIDTH 600 0
DWIDTH 11 0
BBX 6 7 3 -3
BITMAP
6E00
0A00
0A00
0A00
0A00
0A00
FFE0
ENDCHAR
STARTCHAR two.subs
ENCODING 8322
SWIDTH 600 0
DWIDTH 11 0
BBX 5 7 3 -3
BITMAP
7E00
8280
0280
0340
0900
7400
FFC0
ENDCHAR
STARTCHAR three.subs
ENCODING 8323
SWIDTH 600 0
DWIDTH 11 0
BBX 6 7 2 -3
BITMAP
1F80
24A0
00A0
0B80
0070
6470
1F90
ENDCHAR
STARTCHAR four.subs
ENCODING 8324
SWIDTH 600 0
DWIDTH 11 0
BBX 7 7 2 -3
BITMAP
0200
0A00
1C90
2490
7FF4
0090
0090
ENDCHAR
STARTCHAR five.subs
ENCODING 8325
SWIDTH 600 0
DWIDTH 11 0
BBX 6 7 2 -3
BITMAP
1FE0
2400
2400
2FD0
1470
6070
1F90
ENDCHAR
STARTCHAR six.subs
ENCODING 8326
SWIDTH 600 0
DWIDTH 11 0
BBX 6 7 2 -3
BITMAP
0BD0
2810
3140
7AE0
7030
3470
0B90
ENDCHAR
STARTCHAR seven.subs
ENCODING 8327
SWIDTH 600 0
DWIDTH 11 0
BBX 6 7 2 -3
BITMAP
7FF0
0090
01C0
0240
0300
0700
0600
ENDCHAR
STARTCHAR eight.subs
ENCODING 8328
SWIDTH 600 0
DWIDTH 11 0
BBX 6 7 2 -3
BITMAP
1F90
3460
28A0
1FC0
34A0
7070
1F90
ENDCHAR
STARTCHAR nine.subs
ENCODING 8329
SWIDTH 600 0
DWIDTH 11 0
BBX 6 7 2 -3
BITMAP
1F80
70A0
6070
3AF0
0570
1090
2F80
ENDCHAR
STARTCHAR parenleft.subs
ENCODING 8333
SWIDTH 600 0
DWIDTH 11 0
BBX 3 10 4 -5
BITMAP
18
34
60
A0
90
90
A0
60
34
18
ENDCHAR
STARTCHAR parenright.subs
ENCODING 8334
SWIDTH 600 0
DWIDTH 11 0
BBX 3 10 4 -5
BITMAP
80
60
30
24
28
28
24
30
60
80
ENDCHAR
STARTCHAR uni0259.sups
ENCODING 8340
SWIDTH 600 0
DWIDTH 11 0
BBX 6 6 2 7
BITMAP
2F80
10A0
0030
7FF0
6060
1F80
ENDCHAR
STARTCHAR colonmonetary
ENCODING 8353
SWIDTH 600 0
DWIDTH 11 0
BBX 9 15 1 -2
BITMAP
005500
009500
06FE00
0E8A40
2CCC00
38CC00
348800
759800
759800
395400
2E6400
0F6680
07FE00
033000
022000
ENDCHAR
STARTCHAR franc
ENCODING 8355
SWIDTH 600 0
DWIDTH 11 0
BBX 9 11 1 0
BITMAP
1FFF80
1C0000
1C0000
1C0000
1C0000
1FFE00
1C0000
1C0000
BFF000
1C0000
1C0000
ENDCHAR
STARTCHAR lira
ENCODING 8356
SWIDTH 600 0
DWIDTH 11 0
BBX 9 11 1 0
BITMAP
02FE00
0E0640
1C0000
1C0000
BFFC00
0A0000
BFFC00
070000
0A0000
1C0000
7FFF80
ENDCHAR
STARTCHAR uni20A6
ENCODING 8358
SWIDTH 600 0
DWIDTH 11 0
BBX 9 11 1 0
BITMAP
2C0A00
2D0A00
260A00
270A00
FFFFC0
24C600
FFFFC0
246600
243600
242E00
240E00
ENDCHAR
STARTCHAR peseta
ENCODING 8359
SWIDTH 600 0
DWIDTH 11 0
BBX 11 11 0 0
BITMAP
0BF900
0A0780
0A01C0
7FFFF8
0A01C0
0A0780
0BF900
0A0000
0A0000
0A0000
0A0000
ENDCHAR
STARTCHAR uni20A9
ENCODING 8361
SWIDTH 600 0
DWIDTH 11 0
BBX 11 11 0 0
BITMAP
2810A0
28B4A0
28A8D0
1CA8D0
1CE8D0
7FFFF4
0DCDC0
0D8D80
0A8E80
0B8B80
0B4B40
ENDCHAR
STARTCHAR dong
ENCODING 8363
SWIDTH 600 0
DWIDTH 11 0
BBX 8 12 2 0
BITMAP
0034
0BFE
0034
1FB4
7474
D034
D034
D034
B474
2FA4
0000
BFFC
ENDCHAR
STARTCHAR Euro
ENCODING 8364
SWIDTH 600 0
DWIDTH 11 0
BBX 9 11 1 0
BITMAP
01BE00
0B4280
1D0000
2C0000
FFFF00
380000
FFFD00
2C0000
1D0000
0B42C0
01FE00
ENDCHAR
STARTCHAR uni20AE
ENCODING 8366
SWIDTH 600 0
DWIDTH 11 0
BBX 9 11 1 0
BITMAP
FFFF80
01C000
01C000
01DA00
02E400
2EDA00
11E400
1BC000
21C000
01C000
01C000
ENDCHAR
STARTCHAR uni20B1
ENCODING 8369
SWIDTH 600 0
DWIDTH 11 0
BBX 11 11 0 0
BITMAP
0BFD00
0A0780
6FABF4
0B55D0
6FABE4
0B5780
0BA900
0A0000
0A0000
0A0000
0A0000
ENDCHAR
STARTCHAR uni20B2
ENCODING 8370
SWIDTH 600 0
DWIDTH 11 0
BBX 9 15 1 -2
BITMAP
006000
006000
06FD00
1E0700
280000
740000
700000
703F40
700340
740340
380340
1E0740
06F900
006000
006000
ENDCHAR
STARTCHAR uni20B4
ENCODING 8372
SWIDTH 600 0
DWIDTH 11 0
BBX 9 11 1 0
BITMAP
0BE400
281D00
000D00
001D00
FFFF80
07D000
FFFF80
2C0000
280000
1D0B00
06F900
ENDCHAR
STARTCHAR uni20B5
ENCODING 8373
SWIDTH 600 0
DWIDTH 11 0
BBX 9 15 1 -2
BITMAP
003000
003000
02FE00
0E7640
2C3000
383000
743000
743000
743000
383000
2C3000
0E7680
02FE00
003000
003000
ENDCHAR
STARTCHAR uni20B8
ENCODING 8376
SWIDTH 600 0
DWIDTH 11 0
BBX 9 11 1 0
BITMAP
FFFF80
000000
FFFF80
01C000
01C000
01C000
01C000
01C000
01C000
01C000
01C000
ENDCHAR
STARTCHAR uni20B9
ENCODING 8377
SWIDTH 600 0
DWIDTH 11 0
BBX 8 11 2 0
BITMAP
FFFD
01D0
00B0
FFFD
0070
01E0
FE40
0E00
0780
01D0
0074
ENDCHAR
STARTCHAR uni20BA
ENCODING 8378
SWIDTH 600 0
DWIDTH 11 0
BBX 9 11 1 0
BITMAP
0D0000
0D1800
0EE000
2E1400
AEA400
1E4000
AD0280
0D0280
0D0740
0D6E00
0FA400
ENDCHAR
STARTCHAR uni20BD
ENCODING 8381
SWIDTH 600 0
DWIDTH 11 0
BBX 10 11 0 0
BITMAP
03FE40
0341E0
034070
034070
0341E0
7FFE40
034000
7FFFC0
034000
034000
034000
ENDCHAR
STARTCHAR uni2105
ENCODING 8453
SWIDTH 600 0
DWIDTH 11 0
BBX 11 11 0 0
BITMAP
1F4070
7440D0
600240
704500
2F4000
000BD0
011870
062434
1C2434
741870
100BD0
ENDCHAR
STARTCHAR uni2113
ENCODING 8467
SWIDTH 600 0
DWIDTH 11 0
BBX 7 13 2 0
BITMAP
06E0
0E34
1D28
1C24
1C34
1CA0
1DC0
1E00
2C00
AC00
1D00
0A14
02F4
ENDCHAR
STARTCHAR uni2116
ENCODING 8470
SWIDTH 600 0
DWIDTH 11 0
BBX 11 11 0 0
BITMAP
7435E0
787368
6C731C
6D731C
6A7368
7671E0
737000
72B2F4
71B000
70F000
E0B000
ENDCHAR
STARTCHAR uni2117
ENCODING 8471
SWIDTH 600 0
DWIDTH 11 0
BBX 11 11 0 0
BITMAP
02FD00
0D0280
2400A0
62F930
528724
528724
52F924
228030
2400A0
0D0280
02FD00
ENDCHAR
STARTCHAR uni2120
ENCODING 8480
SWIDTH 600 0
DWIDTH 11 0
BBX 11 6 0 6
BITMAP
2E2834
6129A4
3426A4
0A2664
532424
7E2414
ENDCHAR
STARTCHAR trademark
ENCODING 8482
SWIDTH 600 0
DWIDTH 11 0
BBX 11 5 0 7
BITMAP
FF6834
1829A4
1826A4
182664
182424
ENDCHAR
STARTCHAR uni2126
ENCODING 8486
SWIDTH 600 0
DWIDTH 11 0
BBX 10 12 0 0
BITMAP
02F900
0B4780
1C01D0
2800E0
3800A0
3400B0
3400B0
3800A0
2C00D0
1D02C0
0B0740
7F4BF0
ENDCHAR
STARTCHAR estimated
ENCODING 8494
SWIDTH 600 0
DWIDTH 11 0
BBX 11 12 0 0
BITMAP
01F900
0A4640
2800D0
3800E0
7800F0
7800F4
7FFFF4
780000
380000
280080
090640
02F800
ENDCHAR
STARTCHAR uni2150
ENCODING 8528
SWIDTH 600 0
DWIDTH 11 0
BBX 11 11 0 0
BITMAP
1F0020
0700A0
070280
070600
070000
001FF4
000060
0200C0
090180
280240
600340
ENDCHAR
STARTCHAR uni2151
ENCODING 8529
SWIDTH 600 0
DWIDTH 11 0
BBX 10 11 0 0
BITMAP
1F0020
0700A0
070280
070600
070000
000B90
001C70
021C70
090BB0
2804A0
600B80
ENDCHAR
STARTCHAR uni2152
ENCODING 8530
SWIDTH 600 0
DWIDTH 11 0
BBX 10 11 1 0
BITMAP
BC0000
0C0000
0C02D0
0C6E40
069000
240000
001F40
BC3180
0C60C0
0C3180
0C1F40
ENDCHAR
STARTCHAR onethird
ENCODING 8531
SWIDTH 600 0
DWIDTH 11 0
BBX 10 11 0 0
BITMAP
1F0020
0700A0
070280
070600
070000
000BD0
0004A0
0200A0
0902D0
280470
600BE0
ENDCHAR
STARTCHAR twothirds
ENCODING 8532
SWIDTH 600 0
DWIDTH 11 0
BBX 10 12 0 0
BITMAP
2F4000
128020
0180A0
070280
1D0600
7FC000
000BD0
0004A0
0200A0
0902D0
280470
600BE0
ENDCHAR
STARTCHAR uni2155
ENCODING 8533
SWIDTH 600 0
DWIDTH 11 0
BBX 10 11 0 0
BITMAP
1F0020
0700A0
070280
070600
070000
000BF0
000900
020BE0
090070
280470
600BD0
ENDCHAR
STARTCHAR uni2156
ENCODING 8534
SWIDTH 600 0
DWIDTH 11 0
BBX 10 12 0 0
BITMAP
2F4000
128020
0180A0
070280
1D0600
7FC000
000BF0
000900
020BE0
090070
280470
600BD0
ENDCHAR
STARTCHAR uni2157
ENCODING 8535
SWIDTH 600 0
DWIDTH 11 0
BBX 10 12 0 0
BITMAP
2F4000
128020
0280A0
0B4280
11C600
2F4000
000BF0
000900
020BE0
090070
280470
600BD0
ENDCHAR
STARTCHAR uni2158
ENCODING 8536
SWIDTH 600 0
DWIDTH 11 0
BBX 10 12 0 0
BITMAP
090000
0C0020
2540A0
328280
7FD600
028000
000BF0
000900
020BE0
090070
280470
600BD0
ENDCHAR
STARTCHAR uni2159
ENCODING 8537
SWIDTH 600 0
DWIDTH 11 0
BBX 11 11 0 0
BITMAP
1F0020
0700A0
070280
070600
070000
0006E0
000D10
021C00
091FE0
280D34
6007E0
ENDCHAR
STARTCHAR uni215A
ENCODING 8538
SWIDTH 600 0
DWIDTH 11 0
BBX 11 12 0 0
BITMAP
2F8000
240020
3F40A0
01C280
11C600
2F4000
0006E0
000D10
021C00
091FE0
280D34
6007E0
ENDCHAR
STARTCHAR oneeighth
ENCODING 8539
SWIDTH 600 0
DWIDTH 11 0
BBX 10 11 0 0
BITMAP
1F0020
0700A0
070280
070600
070000
000BD0
000C70
020A90
0909A0
281C30
600BD0
ENDCHAR
STARTCHAR threeeighths
ENCODING 8540
SWIDTH 600 0
DWIDTH 11 0
BBX 10 12 0 0
BITMAP
2F4000
128020
0280A0
0B4280
11C600
2F4000
000BD0
000C70
020A90
0909A0
281C30
600BD0
ENDCHAR
STARTCHAR fiveeighths
ENCODING 8541
SWIDTH 600 0
DWIDTH 11 0
BBX 10 12 0 0
BITMAP
2F8000
240020
3F40A0
01C280
11C600
2F4000
000BD0
000C70
020A90
0909A0
281C30
600BD0
ENDCHAR
STARTCHAR seveneighths
ENCODING 8542
SWIDTH 600 0
DWIDTH 11 0
BBX 10 12 0 0
BITMAP
7FC000
018020
0300A0
0A0280
090600
0D0000
000BD0
000C70
020A90
0909A0
281C30
600BD0
ENDCHAR
STARTCHAR uni2189
ENCODING 8585
SWIDTH 600 0
DWIDTH 11 0
BBX 10 12 0 0
BITMAP
1F4000
75D020
6090A0
609280
75D600
1F4000
000BD0
0004A0
0200A0
0902D0
280470
600BE0
ENDCHAR
STARTCHAR uni2190
ENCODING 8592
SWIDTH 600 0
DWIDTH 11 0
BBX 11 9 0 0
BITMAP
00A000
02C000
0B0000
280000
7FFFF4
280000
0B0000
02C000
00A000
ENDCHAR
STARTCHAR arrowup
ENCODING 8593
SWIDTH 600 0
DWIDTH 11 0
BBX 9 10 1 0
BITMAP
018000
07E000
0EE800
35CA00
E1C280
41C040
01C000
01C000
01C000
01C000
ENDCHAR
STARTCHAR uni2192
ENCODING 8594
SWIDTH 600 0
DWIDTH 11 0
BBX 11 9 0 0
BITMAP
003400
001D00
000740
0001D0
7FFFF4
0001D0
000740
001D00
003400
ENDCHAR
STARTCHAR arrowdown
ENCODING 8595
SWIDTH 600 0
DWIDTH 11 0
BBX 9 10 1 0
BITMAP
01C000
01C000
01C000
01C000
41C040
E1C280
35CA00
0EE800
03E000
018000
ENDCHAR
STARTCHAR arrowboth
ENCODING 8596
SWIDTH 600 0
DWIDTH 11 0
BBX 11 7 0 1
BITMAP
0A0240
2800D0
700074
FFFFF8
700074
2800D0
0A0240
ENDCHAR
STARTCHAR arrowupdn
ENCODING 8597
SWIDTH 600 0
DWIDTH 11 0
BBX 8 11 1 -1
BITMAP
0180
07F4
29DD
61C2
01C0
01C0
01C0
61C2
29DD
07F4
0190
ENDCHAR
STARTCHAR uni2196
ENCODING 8598
SWIDTH 600 0
DWIDTH 11 0
BBX 8 7 1 1
BITMAP
7FFE
7D00
6B40
62D0
70B4
702D
200B
ENDCHAR
STARTCHAR uni2197
ENCODING 8599
SWIDTH 600 0
DWIDTH 11 0
BBX 8 8 1 0
BITMAP
3FFF
001F
0077
01D3
0747
1D07
7406
1000
ENDCHAR
STARTCHAR uni2198
ENCODING 8600
SWIDTH 600 0
DWIDTH 11 0
BBX 8 8 1 1
BITMAP
1000
7402
1D03
0743
01D3
0077
041F
2FFF
ENDCHAR
STARTCHAR uni2199
ENCODING 8601
SWIDTH 600 0
DWIDTH 11 0
BBX 7 8 2 1
BITMAP
0004
C01C
C074
C1D0
C740
DD00
F400
FFF8
ENDCHAR
STARTCHAR arrowupdnbse
ENCODING 8616
SWIDTH 600 0
DWIDTH 11 0
BBX 9 12 1 -2
BITMAP
01D000
0BF400
29DD00
61C200
01C000
01C000
01C000
61C200
29DD00
07F400
01D000
FFFF80
ENDCHAR
STARTCHAR uni21D0
ENCODING 8656
SWIDTH 600 0
DWIDTH 11 0
BBX 11 11 0 -1
BITMAP
001000
00E000
024000
0BFFF4
240000
700000
240000
0BFFF4
024000
00E000
001000
ENDCHAR
STARTCHAR uni21D1
ENCODING 8657
SWIDTH 600 0
DWIDTH 11 0
BBX 9 10 1 0
BITMAP
018000
07A000
0D2800
3D1E00
E91A80
491840
091800
091800
091800
091800
ENDCHAR
STARTCHAR uni21D2
ENCODING 8658
SWIDTH 600 0
DWIDTH 11 0
BBX 11 11 0 -1
BITMAP
001000
002800
000A00
7FFF80
0000A0
000034
0000A0
7FFF80
000A00
002800
001000
ENDCHAR
STARTCHAR uni21D3
ENCODING 8659
SWIDTH 600 0
DWIDTH 11 0
BBX 9 10 1 0
BITMAP
091800
091800
091800
091800
491840
E91A80
3D1E00
0D2800
03A000
018000
ENDCHAR
STARTCHAR uni2200
ENCODING 8704
SWIDTH 600 0
DWIDTH 11 0
BBX 10 12 0 0
BITMAP
740070
3800A0
2C00D0
1D01C0
0FFF80
0B0340
070700
034A00
028D00
01DC00
00E800
00B400
ENDCHAR
STARTCHAR partialdiff
ENCODING 8706
SWIDTH 600 0
DWIDTH 11 0
BBX 9 12 1 0
BITMAP
07F400
091D00
000B00
000740
000340
0BE740
391B40
700740
A00700
B00D00
386800
1BE000
ENDCHAR
STARTCHAR uni2203
ENCODING 8707
SWIDTH 600 0
DWIDTH 11 0
BBX 8 12 1 0
BITMAP
BFFE
000A
000A
000A
000A
2FFE
000A
000A
000A
000A
000A
BFFE
ENDCHAR
STARTCHAR uni2206
ENCODING 8710
SWIDTH 600 0
DWIDTH 11 0
BBX 10 12 0 0
BITMAP
00B400
00E800
01DC00
028D00
034A00
070700
0A0340
0E0280
1D01C0
2C00D0
3800B0
7FFFF0
ENDCHAR
STARTCHAR product
ENCODING 8719
SWIDTH 600 0
DWIDTH 11 0
BBX 9 13 1 -2
BITMAP
FFFFC0
D002C0
D002C0
D002C0
D002C0
D002C0
D002C0
D002C0
D002C0
D002C0
D002C0
D002C0
D002C0
ENDCHAR
STARTCHAR summation
ENCODING 8721
SWIDTH 600 0
DWIDTH 11 0
BBX 9 13 1 -2
BITMAP
BFFF40
380000
1D0000
0B0000
028000
01D000
00B000
01D000
038000
0B0000
1D0000
340000
BFFFC0
ENDCHAR
STARTCHAR minus
ENCODING 8722
SWIDTH 600 0
DWIDTH 11 0
BBX 9 1 1 5
BITMAP
7FFF40
ENDCHAR
STARTCHAR uni2215
ENCODING 8725
SWIDTH 600 0
DWIDTH 11 0
BBX 10 11 0 0
BITMAP
000020
0000A0
000280
000600
000000
000000
000000
020000
090000
280000
600000
ENDCHAR
STARTCHAR uni2219
ENCODING 8729
SWIDTH 600 0
DWIDTH 11 0
BBX 3 3 4 5
BITMAP
B4
F8
B4
ENDCHAR
STARTCHAR radical
ENCODING 8730
SWIDTH 600 0
DWIDTH 11 0
BBX 10 16 1 -1
BITMAP
000090
0000C0
0000C0
000180
000240
000340
000300
040600
780900
4C0900
090C00
061800
031400
026400
00B000
00A000
ENDCHAR
STARTCHAR infinity
ENCODING 8734
SWIDTH 600 0
DWIDTH 11 0
BBX 11 6 0 3
BITMAP
2E0BE0
A2E834
C0E018
D0B018
A1A824
2E0BE0
ENDCHAR
STARTCHAR orthogonal
ENCODING 8735
SWIDTH 600 0
DWIDTH 11 0
BBX 9 8 1 2
BITMAP
600000
600000
600000
600000
600000
600000
600000
7FFF40
ENDCHAR
STARTCHAR intersection
ENCODING 8745
SWIDTH 600 0
DWIDTH 11 0
BBX 8 9 1 1
BITMAP
0BE4
291D
3407
7003
7003
7003
7003
7003
1001
ENDCHAR
STARTCHAR integral
ENCODING 8747
SWIDTH 600 0
DWIDTH 11 0
BBX 5 17 3 -3
BITMAP
07C0
0D00
1C00
1C00
1C00
1C00
1C00
0D00
0D00
0D00
0A00
0A00
0A00
0A00
0A00
0D00
B800
ENDCHAR
STARTCHAR uni2237
ENCODING 8759
SWIDTH 600 0
DWIDTH 11 0
BBX 9 10 1 1
BITMAP
781E00
BD2F40
781F00
000000
000000
000000
000000
781E00
BD2F40
781F00
ENDCHAR
STARTCHAR approxequal
ENCODING 8776
SWIDTH 600 0
DWIDTH 11 0
BBX 9 6 1 3
BITMAP
2F8240
61BD00
000000
000000
2F8240
61BD00
ENDCHAR
STARTCHAR notequal
ENCODING 8800
SWIDTH 600 0
DWIDTH 11 0
BBX 9 9 1 1
BITMAP
000900
001800
7FFF40
009000
00C000
024000
7FFF40
0D0000
240000
ENDCHAR
STARTCHAR equivalence
ENCODING 8801
SWIDTH 600 0
DWIDTH 11 0
BBX 9 9 1 1
BITMAP
7FFF40
000000
000000
000000
7FFF40
000000
000000
000000
7FFF40
ENDCHAR
STARTCHAR lessequal
ENCODING 8804
SWIDTH 600 0
DWIDTH 11 0
BBX 9 10 1 0
BITMAP
000640
007900
1B8000
780000
1B8000
00B900
000640
000000
000000
7FFF40
ENDCHAR
STARTCHAR greaterequal
ENCODING 8805
SWIDTH 600 0
DWIDTH 11 0
BBX 9 10 1 0
BITMAP
640000
1E4000
01B900
000B40
01B900
1E4000
640000
000000
000000
7FFF40
ENDCHAR
STARTCHAR house
ENCODING 8962
SWIDTH 600 0
DWIDTH 11 0
BBX 9 12 1 0
BITMAP
02D000
077000
0D2800
280E00
700740
D00280
C001C0
C001C0
C001C0
C001C0
C001C0
FFFFC0
ENDCHAR
STARTCHAR revlogicalnot
ENCODING 8976
SWIDTH 600 0
DWIDTH 11 0
BBX 9 5 1 1
BITMAP
7FFF40
600000
600000
600000
500000
ENDCHAR
STARTCHAR uni231C
ENCODING 8988
SWIDTH 600 0
DWIDTH 11 0
BBX 5 13 4 0
BITMAP
FFC0
D000
D000
D000
D000
D000
D000
D000
D000
D000
D000
D000
8000
ENDCHAR
STARTCHAR uni231D
ENCODING 8989
SWIDTH 600 0
DWIDTH 11 0
BBX 6 13 1 0
BITMAP
7FE0
0060
0060
0060
0060
0060
0060
0060
0060
0060
0060
0060
0050
ENDCHAR
STARTCHAR uni231E
ENCODING 8990
SWIDTH 600 0
DWIDTH 11 0
BBX 5 14 4 -2
BITMAP
4000
D000
D000
D000
D000
D000
D000
D000
D000
D000
D000
D000
D000
FFC0
ENDCHAR
STARTCHAR uni231F
ENCODING 8991
SWIDTH 600 0
DWIDTH 11 0
BBX 6 13 1 -2
BITMAP
0060
0060
0060
0060
0060
0060
0060
0060
0060
0060
0060
0060
7FE0
ENDCHAR
STARTCHAR integraltp
ENCODING 8992
SWIDTH 600 0
DWIDTH 11 0
BBX 4 22 4 -8
BITMAP
1F
38
34
70
70
70
70
70
70
70
70
70
70
70
70
70
70
70
70
70
70
10
ENDCHAR
STARTCHAR integralbt
ENCODING 8993
SWIDTH 600 0
DWIDTH 11 0
BBX 3 21 3 -3
BITMAP
08
1C
1C
1C
1C
1C
1C
1C
1C
1C
1C
1C
1C
1C
1C
1C
1C
1C
1C
28
F4
ENDCHAR
STARTCHAR uni2500
ENCODING 9472
SWIDTH 600 0
DWIDTH 11 0
BBX 13 1 -1 5
BITMAP
BFFFFF80
ENDCHAR
STARTCHAR uni2501
ENCODING 9473
SWIDTH 600 0
DWIDTH 11 0
BBX 13 3 -1 4
BITMAP
BFFFFF80
BFFFFF80
BFFFFF80
ENDCHAR
STARTCHAR uni2502
ENCODING 9474
SWIDTH 600 0
DWIDTH 11 0
BBX 2 25 4 -7
BITMAP
70
70
70
70
70
70
70
70
70
70
70
70
70
70
70
70
70
70
70
70
70
70
70
70
70
ENDCHAR
STARTCHAR uni2503
ENCODING 9475
SWIDTH 600 0
DWIDTH 11 0
BBX 3 25 4 -7
BITMAP
F8
F8
F8
F8
F8
F8
F8
F8
F8
F8
F8
F8
F8
F8
F8
F8
F8
F8
F8
F8
F8
F8
F8
F8
F8
ENDCHAR
STARTCHAR uni2504
ENCODING 9476
SWIDTH 600 0
DWIDTH 11 0
BBX 11 1 0 5
BITMAP
7CB9F4
ENDCHAR
STARTCHAR uni2505
ENCODING 9477
SWIDTH 600 0
DWIDTH 11 0
BBX 11 3 0 4
BITMAP
7CB9F4
7CB9F4
7CB9F4
ENDCHAR
STARTCHAR uni2506
ENCODING 9478
SWIDTH 600 0
DWIDTH 11 0
BBX 2 20 4 -5
BITMAP
70
70
70
70
70
00
00
60
70
70
70
70
00
00
60
70
70
70
70
10
ENDCHAR
STARTCHAR uni2507
ENCODING 9479
SWIDTH 600 0
DWIDTH 11 0
BBX 3 19 4 -4
BITMAP
F8
F8
F8
F8
F8
00
00
F8
F8
F8
F8
F8
00
00
F8
F8
F8
F8
F8
ENDCHAR
STARTCHAR uni2508
ENCODING 9480
SWIDTH 600 0
DWIDTH 11 0
BBX 11 1 0 5
BITMAP
B7DEB4
ENDCHAR
STARTCHAR uni2509
ENCODING 9481
SWIDTH 600 0
DWIDTH 11 0
BBX 11 3 0 4
BITMAP
B7DEB4
B7DEB4
B7DEB4
ENDCHAR
STARTCHAR uni250A
ENCODING 9482
SWIDTH 600 0
DWIDTH 11 0
BBX 2 21 4 -5
BITMAP
70
70
70
70
00
00
70
70
70
70
00
70
70
70
70
00
00
70
70
70
70
ENDCHAR
STARTCHAR uni250B
ENCODING 9483
SWIDTH 600 0
DWIDTH 11 0
BBX 3 21 4 -5
BITMAP
F8
F8
F8
F8
00
00
F8
F8
F8
F8
00
F8
F8
F8
F8
00
00
F8
F8
F8
F8
ENDCHAR
STARTCHAR uni250C
ENCODING 9484
SWIDTH 600 0
DWIDTH 11 0
BBX 8 13 4 -7
BITMAP
7FFE
7000
7000
7000
7000
7000
7000
7000
7000
7000
7000
7000
7000
ENDCHAR
STARTCHAR uni250D
ENCODING 9485
SWIDTH 600 0
DWIDTH 11 0
BBX 8 15 4 -8
BITMAP
7FFE
7FFE
7FFE
7000
7000
7000
7000
7000
7000
7000
7000
7000
7000
7000
1000
ENDCHAR
STARTCHAR uni250E
ENCODING 9486
SWIDTH 600 0
DWIDTH 11 0
BBX 8 13 4 -7
BITMAP
FFFE
F800
F800
F800
F800
F800
F800
F800
F800
F800
F800
F800
F800
ENDCHAR
STARTCHAR uni250F
ENCODING 9487
SWIDTH 600 0
DWIDTH 11 0
BBX 8 15 4 -8
BITMAP
FFFE
FFFE
FFFE
F800
F800
F800
F800
F800
F800
F800
F800
F800
F800
F800
5000
ENDCHAR
STARTCHAR uni2510
ENCODING 9488
SWIDTH 600 0
DWIDTH 11 0
BBX 7 13 -1 -7
BITMAP
BFFC
001C
001C
001C
001C
001C
001C
001C
001C
001C
001C
001C
001C
ENDCHAR
STARTCHAR uni2511
ENCODING 9489
SWIDTH 600 0
DWIDTH 11 0
BBX 7 15 -1 -8
BITMAP
BFFC
BFFC
BFFC
001C
001C
001C
001C
001C
001C
001C
001C
001C
001C
001C
0004
ENDCHAR
STARTCHAR uni2512
ENCODING 9490
SWIDTH 600 0
DWIDTH 11 0
BBX 8 13 -1 -7
BITMAP
BFFE
003E
003E
003E
003E
003E
003E
003E
003E
003E
003E
003E
003E
ENDCHAR
STARTCHAR uni2513
ENCODING 9491
SWIDTH 600 0
DWIDTH 11 0
BBX 8 15 -1 -8
BITMAP
BFFE
BFFE
BFFE
003E
003E
003E
003E
003E
003E
003E
003E
003E
003E
003E
0014
ENDCHAR
STARTCHAR uni2514
ENCODING 9492
SWIDTH 600 0
DWIDTH 11 0
BBX 8 13 4 5
BITMAP
7000
7000
7000
7000
7000
7000
7000
7000
7000
7000
7000
7000
7FFE
ENDCHAR
STARTCHAR uni2515
ENCODING 9493
SWIDTH 600 0
DWIDTH 11 0
BBX 8 15 4 4
BITMAP
1000
7000
7000
7000
7000
7000
7000
7000
7000
7000
7000
7000
7FFE
7FFE
7FFE
ENDCHAR
STARTCHAR uni2516
ENCODING 9494
SWIDTH 600 0
DWIDTH 11 0
BBX 8 13 4 5
BITMAP
F800
F800
F800
F800
F800
F800
F800
F800
F800
F800
F800
F800
FFFE
ENDCHAR
STARTCHAR uni2517
ENCODING 9495
SWIDTH 600 0
DWIDTH 11 0
BBX 8 15 4 4
BITMAP
5000
F800
F800
F800
F800
F800
F800
F800
F800
F800
F800
F800
FFFE
FFFE
FFFE
ENDCHAR
STARTCHAR uni2518
ENCODING 9496
SWIDTH 600 0
DWIDTH 11 0
BBX 7 13 -1 5
BITMAP
001C
001C
001C
001C
001C
001C
001C
001C
001C
001C
001C
001C
BFFC
ENDCHAR
STARTCHAR uni2519
ENCODING 9497
SWIDTH 600 0
DWIDTH 11 0
BBX 7 15 -1 4
BITMAP
0004
001C
001C
001C
001C
001C
001C
001C
001C
001C
001C
001C
BFFC
BFFC
BFFC
ENDCHAR
STARTCHAR uni251A
ENCODING 9498
SWIDTH 600 0
DWIDTH 11 0
BBX 8 13 -1 5
BITMAP
003E
003E
003E
003E
003E
003E
003E
003E
003E
003E
003E
003E
BFFE
ENDCHAR
STARTCHAR uni251B
ENCODING 9499
SWIDTH 600 0
DWIDTH 11 0
BBX 8 15 -1 4
BITMAP
0014
003E
003E
003E
003E
003E
003E
003E
003E
003E
003E
003E
BFFE
BFFE
BFFE
ENDCHAR
STARTCHAR uni251C
ENCODING 9500
SWIDTH 600 0
DWIDTH 11 0
BBX 8 25 4 -7
BITMAP
7000
7000
7000
7000
7000
7000
7000
7000
7000
7000
7000
7000
7FFE
7000
7000
7000
7000
7000
7000
7000
7000
7000
7000
7000
7000
ENDCHAR
STARTCHAR uni251D
ENCODING 9501
SWIDTH 600 0
DWIDTH 11 0
BBX 8 27 4 -8
BITMAP
1000
7000
7000
7000
7000
7000
7000
7000
7000
7000
7000
7000
7FFE
7FFE
7FFE
7000
7000
7000
7000
7000
7000
7000
7000
7000
7000
7000
1000
ENDCHAR
STARTCHAR uni251E
ENCODING 9502
SWIDTH 600 0
DWIDTH 11 0
BBX 8 25 4 -7
BITMAP
F800
F800
F800
F800
F800
F800
F800
F800
F800
F800
F800
F800
FFFE
7000
7000
7000
7000
7000
7000
7000
7000
7000
7000
7000
7000
ENDCHAR
STARTCHAR uni251F
ENCODING 9503
SWIDTH 600 0
DWIDTH 11 0
BBX 8 25 4 -7
BITMAP
7000
7000
7000
7000
7000
7000
7000
7000
7000
7000
7000
7000
FFFE
F800
F800
F800
F800
F800
F800
F800
F800
F800
F800
F800
F800
ENDCHAR
STARTCHAR uni2520
ENCODING 9504
SWIDTH 600 0
DWIDTH 11 0
BBX 8 25 4 -7
BITMAP
F800
F800
F800
F800
F800
F800
F800
F800
F800
F800
F800
F800
FFFE
F800
F800
F800
F800
F800
F800
F800
F800
F800
F800
F800
F800
ENDCHAR
STARTCHAR uni2521
ENCODING 9505
SWIDTH 600 0
DWIDTH 11 0
BBX 8 27 4 -8
BITMAP
5000
F800
F800
F800
F800
F800
F800
F800
F800
F800
F800
F800
FFFE
FFFE
FFFE
7000
7000
7000
7000
7000
7000
7000
7000
7000
7000
7000
1000
ENDCHAR
STARTCHAR uni2522
ENCODING 9506
SWIDTH 600 0
DWIDTH 11 0
BBX 8 27 4 -8
BITMAP
1000
7000
7000
7000
7000
7000
7000
7000
7000
7000
7000
7000
FFFE
FFFE
FFFE
F800
F800
F800
F800
F800
F800
F800
F800
F800
F800
F800
5000
ENDCHAR
STARTCHAR uni2523
ENCODING 9507
SWIDTH 600 0
DWIDTH 11 0
BBX 8 27 4 -8
BITMAP
5000
F800
F800
F800
F800
F800
F800
F800
F800
F800
F800
F800
FFFE
FFFE
FFFE
F800
F800
F800
F800
F800
F800
F800
F800
F800
F800
F800
5000
ENDCHAR
STARTCHAR uni2524
ENCODING 9508
SWIDTH 600 0
DWIDTH 11 0
BBX 7 25 -1 -7
BITMAP
001C
001C
001C
001C
001C
001C
001C
001C
001C
001C
001C
001C
BFFC
001C
001C
001C
001C
001C
001C
001C
001C
001C
001C
001C
001C
ENDCHAR
STARTCHAR uni2525
ENCODING 9509
SWIDTH 600 0
DWIDTH 11 0
BBX 7 27 -1 -8
BITMAP
0004
001C
001C
001C
001C
001C
001C
001C
001C
001C
001C
001C
BFFC
BFFC
BFFC
001C
001C
001C
001C
001C
001C
001C
001C
001C
001C
001C
0004
ENDCHAR
STARTCHAR uni2526
ENCODING 9510
SWIDTH 600 0
DWIDTH 11 0
BBX 8 25 -1 -7
BITMAP
003E
003E
003E
003E
003E
003E
003E
003E
003E
003E
003E
003E
BFFE
001C
001C
001C
001C
001C
001C
001C
001C
001C
001C
001C
001C
ENDCHAR
STARTCHAR uni2527
ENCODING 9511
SWIDTH 600 0
DWIDTH 11 0
BBX 8 25 -1 -7
BITMAP
001C
001C
001C
001C
001C
001C
001C
001C
001C
001C
001C
001C
BFFE
003E
003E
003E
003E
003E
003E
003E
003E
003E
003E
003E
003E
ENDCHAR
STARTCHAR uni2528
ENCODING 9512
SWIDTH 600 0
DWIDTH 11 0
BBX 8 25 -1 -7
BITMAP
003E
003E
003E
003E
003E
003E
003E
003E
003E
003E
003E
003E
BFFE
003E
003E
003E
003E
003E
003E
003E
003E
003E
003E
003E
003E
ENDCHAR
STARTCHAR uni2529
ENCODING 9513
SWIDTH 600 0
DWIDTH 11 0
BBX 8 27 -1 -8
BITMAP
0014
003E
003E
003E
003E
003E
003E
003E
003E
003E
003E
003E
BFFE
BFFE
BFFE
001C
001C
001C
001C
001C
001C
001C
001C
001C
001C
001C
0004
ENDCHAR
STARTCHAR uni252A
ENCODING 9514
SWIDTH 600 0
DWIDTH 11 0
BBX 8 27 -1 -8
BITMAP
0004
001C
001C
001C
001C
001C
001C
001C
001C
001C
001C
001C
BFFE
BFFE
BFFE
003E
003E
003E
003E
003E
003E
003E
003E
003E
003E
003E
0014
ENDCHAR
STARTCHAR uni252B
ENCODING 9515
SWIDTH 600 0
DWIDTH 11 0
BBX 8 27 -1 -8
BITMAP
0014
003E
003E
003E
003E
003E
003E
003E
003E
003E
003E
003E
BFFE
BFFE
BFFE
003E
003E
003E
003E
003E
003E
003E
003E
003E
003E
003E
0014
ENDCHAR
STARTCHAR uni252C
ENCODING 9516
SWIDTH 600 0
DWIDTH 11 0
BBX 13 13 -1 -7
BITMAP
BFFFFF80
001C0000
001C0000
001C0000
001C0000
001C0000
001C0000
001C0000
001C0000
001C0000
001C0000
001C0000
001C0000
ENDCHAR
STARTCHAR uni252D
ENCODING 9517
SWIDTH 600 0
DWIDTH 11 0
BBX 13 15 -1 -8
BITMAP
BFFC0000
BFFFFF80
BFFC0000
001C0000
001C0000
001C0000
001C0000
001C0000
001C0000
001C0000
001C0000
001C0000
001C0000
001C0000
00040000
ENDCHAR
STARTCHAR uni252E
ENCODING 9518
SWIDTH 600 0
DWIDTH 11 0
BBX 13 15 -1 -8
BITMAP
001FFF80
BFFFFF80
001FFF80
001C0000
001C0000
001C0000
001C0000
001C0000
001C0000
001C0000
001C0000
001C0000
001C0000
001C0000
00040000
ENDCHAR
STARTCHAR uni252F
ENCODING 9519
SWIDTH 600 0
DWIDTH 11 0
BBX 13 15 -1 -8
BITMAP
BFFFFF80
BFFFFF80
BFFFFF80
001C0000
001C0000
001C0000
001C0000
001C0000
001C0000
001C0000
001C0000
001C0000
001C0000
001C0000
00040000
ENDCHAR
STARTCHAR uni2530
ENCODING 9520
SWIDTH 600 0
DWIDTH 11 0
BBX 13 13 -1 -7
BITMAP
BFFFFF80
003E0000
003E0000
003E0000
003E0000
003E0000
003E0000
003E0000
003E0000
003E0000
003E0000
003E0000
003E0000
ENDCHAR
STARTCHAR uni2531
ENCODING 9521
SWIDTH 600 0
DWIDTH 11 0
BBX 13 15 -1 -8
BITMAP
BFFE0000
BFFFFF80
BFFE0000
003E0000
003E0000
003E0000
003E0000
003E0000
003E0000
003E0000
003E0000
003E0000
003E0000
003E0000
00140000
ENDCHAR
STARTCHAR uni2532
ENCODING 9522
SWIDTH 600 0
DWIDTH 11 0
BBX 13 15 -1 -8
BITMAP
003FFF80
BFFFFF80
003FFF80
003E0000
003E0000
003E0000
003E0000
003E0000
003E0000
003E0000
003E0000
003E0000
003E0000
003E0000
00140000
ENDCHAR
STARTCHAR uni2533
ENCODING 9523
SWIDTH 600 0
DWIDTH 11 0
BBX 13 15 -1 -8
BITMAP
BFFFFF80
BFFFFF80
BFFFFF80
003E0000
003E0000
003E0000
003E0000
003E0000
003E0000
003E0000
003E0000
003E0000
003E0000
003E0000
00140000
ENDCHAR
STARTCHAR uni2534
ENCODING 9524
SWIDTH 600 0
DWIDTH 11 0
BBX 13 13 -1 5
BITMAP
001C0000
001C0000
001C0000
001C0000
001C0000
001C0000
001C0000
001C0000
001C0000
001C0000
001C0000
001C0000
BFFFFF80
ENDCHAR
STARTCHAR uni2535
ENCODING 9525
SWIDTH 600 0
DWIDTH 11 0
BBX 13 15 -1 4
BITMAP
00040000
001C0000
001C0000
001C0000
001C0000
001C0000
001C0000
001C0000
001C0000
001C0000
001C0000
001C0000
BFFC0000
BFFFFF80
BFFC0000
ENDCHAR
STARTCHAR uni2536
ENCODING 9526
SWIDTH 600 0
DWIDTH 11 0
BBX 13 15 -1 4
BITMAP
00040000
001C0000
001C0000
001C0000
001C0000
001C0000
001C0000
001C0000
001C0000
001C0000
001C0000
001C0000
001FFF80
BFFFFF80
001FFF80
ENDCHAR
STARTCHAR uni2537
ENCODING 9527
SWIDTH 600 0
DWIDTH 11 0
BBX 13 15 -1 4
BITMAP
00040000
001C0000
001C0000
001C0000
001C0000
001C0000
001C0000
001C0000
001C0000
001C0000
001C0000
001C0000
BFFFFF80
BFFFFF80
BFFFFF80
ENDCHAR
STARTCHAR uni2538
ENCODING 9528
SWIDTH 600 0
DWIDTH 11 0
BBX 13 13 -1 5
BITMAP
003E0000
003E0000
003E0000
003E0000
003E0000
003E0000
003E0000
003E0000
003E0000
003E0000
003E0000
003E0000
BFFFFF80
ENDCHAR
STARTCHAR uni2539
ENCODING 9529
SWIDTH 600 0
DWIDTH 11 0
BBX 13 15 -1 4
BITMAP
00140000
003E0000
003E0000
003E0000
003E0000
003E0000
003E0000
003E0000
003E0000
003E0000
003E0000
003E0000
BFFE0000
BFFFFF80
BFFE0000
ENDCHAR
STARTCHAR uni253A
ENCODING 9530
SWIDTH 600 0
DWIDTH 11 0
BBX 13 15 -1 4
BITMAP
00140000
003E0000
003E0000
003E0000
003E0000
003E0000
003E0000
003E0000
003E0000
003E0000
003E0000
003E0000
003FFF80
BFFFFF80
003FFF80
ENDCHAR
STARTCHAR uni253B
ENCODING 9531
SWIDTH 600 0
DWIDTH 11 0
BBX 13 15 -1 4
BITMAP
00140000
003E0000
003E0000
003E0000
003E0000
003E0000
003E0000
003E0000
003E0000
003E0000
003E0000
003E0000
BFFFFF80
BFFFFF80
BFFFFF80
ENDCHAR
STARTCHAR uni253C
ENCODING 9532
SWIDTH 600 0
DWIDTH 11 0
BBX 13 25 -1 -7
BITMAP
001C0000
001C0000
001C0000
001C0000
001C0000
001C0000
001C0000
001C0000
001C0000
001C0000
001C0000
001C0000
BFFFFF80
001C0000
001C0000
001C0000
001C0000
001C0000
001C0000
001C0000
001C0000
001C0000
001C0000
001C0000
001C0000
ENDCHAR
STARTCHAR uni253D
ENCODING 9533
SWIDTH 600 0
DWIDTH 11 0
BBX 13 27 -1 -8
BITMAP
00040000
001C0000
001C0000
001C0000
001C0000
001C0000
001C0000
001C0000
001C0000
001C0000
001C0000
001C0000
BFFC0000
BFFFFF80
BFFC0000
001C0000
001C0000
001C0000
001C0000
001C0000
001C0000
001C0000
001C0000
001C0000
001C0000
001C0000
00040000
ENDCHAR
STARTCHAR uni253E
ENCODING 9534
SWIDTH 600 0
DWIDTH 11 0
BBX 13 27 -1 -8
BITMAP
00040000
001C0000
001C0000
001C0000
001C0000
001C0000
001C0000
001C0000
001C0000
001C0000
001C0000
001C0000
001FFF80
BFFFFF80
001FFF80
001C0000
001C0000
001C0000
001C0000
001C0000
001C0000
001C0000
001C0000
001C0000
001C0000
001C0000
00040000
ENDCHAR
STARTCHAR uni253F
ENCODING 9535
SWIDTH 600 0
DWIDTH 11 0
BBX 13 27 -1 -8
BITMAP
00040000
001C0000
001C0000
001C0000
001C0000
001C0000
001C0000
001C0000
001C0000
001C0000
001C0000
001C0000
BFFFFF80
BFFFFF80
BFFFFF80
001C0000
001C0000
001C0000
001C0000
001C0000
001C0000
001C0000
001C0000
001C0000
001C0000
001C0000
00040000
ENDCHAR
STARTCHAR uni2540
ENCODING 9536
SWIDTH 600 0
DWIDTH 11 0
BBX 13 25 -1 -7
BITMAP
003E0000
003E0000
003E0000
003E0000
003E0000
003E0000
003E0000
003E0000
003E0000
003E0000
003E0000
003E0000
BFFFFF80
001C0000
001C0000
001C0000
001C0000
001C0000
001C0000
001C0000
001C0000
001C0000
001C0000
001C0000
001C0000
ENDCHAR
STARTCHAR uni2541
ENCODING 9537
SWIDTH 600 0
DWIDTH 11 0
BBX 13 25 -1 -7
BITMAP
001C0000
001C0000
001C0000
001C0000
001C0000
001C0000
001C0000
001C0000
001C0000
001C0000
001C0000
001C0000
BFFFFF80
003E0000
003E0000
003E0000
003E0000
003E0000
003E0000
003E0000
003E0000
003E0000
003E0000
003E0000
003E0000
ENDCHAR
STARTCHAR uni2542
ENCODING 9538
SWIDTH 600 0
DWIDTH 11 0
BBX 13 25 -1 -7
BITMAP
003E0000
003E0000
003E0000
003E0000
003E0000
003E0000
003E0000
003E0000
003E0000
003E0000
003E0000
003E0000
BFFFFF80
003E0000
003E0000
003E0000
003E0000
003E0000
003E0000
003E0000
003E0000
003E0000
003E0000
003E0000
003E0000
ENDCHAR
STARTCHAR uni2543
ENCODING 9539
SWIDTH 600 0
DWIDTH 11 0
BBX 13 27 -1 -8
BITMAP
00140000
003E0000
003E0000
003E0000
003E0000
003E0000
003E0000
003E0000
003E0000
003E0000
003E0000
003E0000
BFFE0000
BFFFFF80
BFFE0000
001C0000
001C0000
001C0000
001C0000
001C0000
001C0000
001C0000
001C0000
001C0000
001C0000
001C0000
00040000
ENDCHAR
STARTCHAR uni2544
ENCODING 9540
SWIDTH 600 0
DWIDTH 11 0
BBX 13 27 -1 -8
BITMAP
00140000
003E0000
003E0000
003E0000
003E0000
003E0000
003E0000
003E0000
003E0000
003E0000
003E0000
003E0000
003FFF80
BFFFFF80
003FFF80
001C0000
001C0000
001C0000
001C0000
001C0000
001C0000
001C0000
001C0000
001C0000
001C0000
001C0000
00040000
ENDCHAR
STARTCHAR uni2545
ENCODING 9541
SWIDTH 600 0
DWIDTH 11 0
BBX 13 27 -1 -8
BITMAP
00040000
001C0000
001C0000
001C0000
001C0000
001C0000
001C0000
001C0000
001C0000
001C0000
001C0000
001C0000
BFFE0000
BFFFFF80
BFFE0000
003E0000
003E0000
003E0000
003E0000
003E0000
003E0000
003E0000
003E0000
003E0000
003E0000
003E0000
00140000
ENDCHAR
STARTCHAR uni2546
ENCODING 9542
SWIDTH 600 0
DWIDTH 11 0
BBX 13 27 -1 -8
BITMAP
00040000
001C0000
001C0000
001C0000
001C0000
001C0000
001C0000
001C0000
001C0000
001C0000
001C0000
001C0000
003FFF80
BFFFFF80
003FFF80
003E0000
003E0000
003E0000
003E0000
003E0000
003E0000
003E0000
003E0000
003E0000
003E0000
003E0000
00140000
ENDCHAR
STARTCHAR uni2547
ENCODING 9543
SWIDTH 600 0
DWIDTH 11 0
BBX 13 27 -1 -8
BITMAP
00140000
003E0000
003E0000
003E0000
003E0000
003E0000
003E0000
003E0000
003E0000
003E0000
003E0000
003E0000
BFFFFF80
BFFFFF80
BFFFFF80
001C0000
001C0000
001C0000
001C0000
001C0000
001C0000
001C0000
001C0000
001C0000
001C0000
001C0000
00040000
ENDCHAR
STARTCHAR uni2548
ENCODING 9544
SWIDTH 600 0
DWIDTH 11 0
BBX 13 27 -1 -8
BITMAP
00040000
001C0000
001C0000
001C0000
001C0000
001C0000
001C0000
001C0000
001C0000
001C0000
001C0000
001C0000
BFFFFF80
BFFFFF80
BFFFFF80
003E0000
003E0000
003E0000
003E0000
003E0000
003E0000
003E0000
003E0000
003E0000
003E0000
003E0000
00140000
ENDCHAR
STARTCHAR uni2549
ENCODING 9545
SWIDTH 600 0
DWIDTH 11 0
BBX 13 27 -1 -8
BITMAP
00140000
003E0000
003E0000
003E0000
003E0000
003E0000
003E0000
003E0000
003E0000
003E0000
003E0000
003E0000
BFFE0000
BFFFFF80
BFFE0000
003E0000
003E0000
003E0000
003E0000
003E0000
003E0000
003E0000
003E0000
003E0000
003E0000
003E0000
00140000
ENDCHAR
STARTCHAR uni254A
ENCODING 9546
SWIDTH 600 0
DWIDTH 11 0
BBX 13 27 -1 -8
BITMAP
00140000
003E0000
003E0000
003E0000
003E0000
003E0000
003E0000
003E0000
003E0000
003E0000
003E0000
003E0000
003FFF80
BFFFFF80
003FFF80
003E0000
003E0000
003E0000
003E0000
003E0000
003E0000
003E0000
003E0000
003E0000
003E0000
003E0000
00140000
ENDCHAR
STARTCHAR uni254B
ENCODING 9547
SWIDTH 600 0
DWIDTH 11 0
BBX 13 27 -1 -8
BITMAP
00140000
003E0000
003E0000
003E0000
003E0000
003E0000
003E0000
003E0000
003E0000
003E0000
003E0000
003E0000
BFFFFF80
BFFFFF80
BFFFFF80
003E0000
003E0000
003E0000
003E0000
003E0000
003E0000
003E0000
003E0000
003E0000
003E0000
003E0000
00140000
ENDCHAR
STARTCHAR uni254C
ENCODING 9548
SWIDTH 600 0
DWIDTH 11 0
BBX 9 1 1 5
BITMAP
BC1F40
ENDCHAR
STARTCHAR uni254D
ENCODING 9549
SWIDTH 600 0
DWIDTH 11 0
BBX 9 3 1 4
BITMAP
BC1F40
BC1F40
BC1F40
ENDCHAR
STARTCHAR uni254E
ENCODING 9550
SWIDTH 600 0
DWIDTH 11 0
BBX 2 16 4 -3
BITMAP
70
70
70
70
70
10
00
00
00
00
10
70
70
70
70
70
ENDCHAR
STARTCHAR uni254F
ENCODING 9551
SWIDTH 600 0
DWIDTH 11 0
BBX 3 16 4 -3
BITMAP
F8
F8
F8
F8
F8
00
00
00
00
00
A8
F8
F8
F8
F8
A8
ENDCHAR
STARTCHAR uni2550
ENCODING 9552
SWIDTH 600 0
DWIDTH 11 0
BBX 13 4 -1 3
BITMAP
BFFFFF80
00000000
00000000
BFFFFF80
ENDCHAR
STARTCHAR uni2551
ENCODING 9553
SWIDTH 600 0
DWIDTH 11 0
BBX 5 25 3 -7
BITMAP
A380
A380
A380
A380
A380
A380
A380
A380
A380
A380
A380
A380
A380
A380
A380
A380
A380
A380
A380
A380
A380
A380
A380
A380
A380
ENDCHAR
STARTCHAR uni2552
ENCODING 9554
SWIDTH 600 0
DWIDTH 11 0
BBX 8 15 4 -8
BITMAP
7FFE
7000
7000
7FFE
7000
7000
7000
7000
7000
7000
7000
7000
7000
7000
2000
ENDCHAR
STARTCHAR uni2553
ENCODING 9555
SWIDTH 600 0
DWIDTH 11 0
BBX 9 13 3 -7
BITMAP
BFFF80
A38000
A38000
A38000
A38000
A38000
A38000
A38000
A38000
A38000
A38000
A38000
A24000
ENDCHAR
STARTCHAR uni2554
ENCODING 9556
SWIDTH 600 0
DWIDTH 11 0
BBX 9 15 3 -8
BITMAP
BFFF80
A00000
A00000
A3FF80
A38000
A38000
A38000
A38000
A38000
A38000
A38000
A38000
A38000
A38000
514000
ENDCHAR
STARTCHAR uni2555
ENCODING 9557
SWIDTH 600 0
DWIDTH 11 0
BBX 7 15 -1 -8
BITMAP
BFFC
001C
001C
BFFC
001C
001C
001C
001C
001C
001C
001C
001C
001C
001C
0008
ENDCHAR
STARTCHAR uni2556
ENCODING 9558
SWIDTH 600 0
DWIDTH 11 0
BBX 9 13 -1 -7
BITMAP
BFFF80
00A380
00A380
00A380
00A380
00A380
00A380
00A380
00A380
00A380
00A380
00A380
00A240
ENDCHAR
STARTCHAR uni2557
ENCODING 9559
SWIDTH 600 0
DWIDTH 11 0
BBX 9 15 -1 -8
BITMAP
BFFF80
000380
000380
BFE380
00A380
00A380
00A380
00A380
00A380
00A380
00A380
00A380
00A380
00A380
005100
ENDCHAR
STARTCHAR uni2558
ENCODING 9560
SWIDTH 600 0
DWIDTH 11 0
BBX 8 15 4 3
BITMAP
2000
7000
7000
7000
7000
7000
7000
7000
7000
7000
7000
7FFE
7000
7000
7FFE
ENDCHAR
STARTCHAR uni2559
ENCODING 9561
SWIDTH 600 0
DWIDTH 11 0
BBX 9 13 3 5
BITMAP
A24000
A38000
A38000
A38000
A38000
A38000
A38000
A38000
A38000
A38000
A38000
A38000
BFFF80
ENDCHAR
STARTCHAR uni255A
ENCODING 9562
SWIDTH 600 0
DWIDTH 11 0
BBX 9 15 3 3
BITMAP
514000
A38000
A38000
A38000
A38000
A38000
A38000
A38000
A38000
A38000
A38000
A3FF80
A00000
A00000
BFFF80
ENDCHAR
STARTCHAR uni255B
ENCODING 9563
SWIDTH 600 0
DWIDTH 11 0
BBX 7 15 -1 3
BITMAP
0008
001C
001C
001C
001C
001C
001C
001C
001C
001C
001C
BFFC
001C
001C
BFFC
ENDCHAR
STARTCHAR uni255C
ENCODING 9564
SWIDTH 600 0
DWIDTH 11 0
BBX 9 13 -1 5
BITMAP
00A240
00A380
00A380
00A380
00A380
00A380
00A380
00A380
00A380
00A380
00A380
00A380
BFFF80
ENDCHAR
STARTCHAR uni255D
ENCODING 9565
SWIDTH 600 0
DWIDTH 11 0
BBX 9 15 -1 3
BITMAP
005100
00A380
00A380
00A380
00A380
00A380
00A380
00A380
00A380
00A380
00A380
BFE380
000380
000380
BFFF80
ENDCHAR
STARTCHAR uni255E
ENCODING 9566
SWIDTH 600 0
DWIDTH 11 0
BBX 8 26 4 -8
BITMAP
2000
7000
7000
7000
7000
7000
7000
7000
7000
7000
7000
7FFE
7000
7000
7FFE
7000
7000
7000
7000
7000
7000
7000
7000
7000
7000
2000
ENDCHAR
STARTCHAR uni255F
ENCODING 9567
SWIDTH 600 0
DWIDTH 11 0
BBX 9 25 3 -7
BITMAP
A24000
A38000
A38000
A38000
A38000
A38000
A38000
A38000
A38000
A38000
A38000
A38000
A3FF80
A38000
A38000
A38000
A38000
A38000
A38000
A38000
A38000
A38000
A38000
A38000
A24000
ENDCHAR
STARTCHAR uni2560
ENCODING 9568
SWIDTH 600 0
DWIDTH 11 0
BBX 9 26 3 -8
BITMAP
A14000
A38000
A38000
A38000
A38000
A38000
A38000
A38000
A38000
A38000
A38000
A3FF80
A00000
A00000
A3FF80
A38000
A38000
A38000
A38000
A38000
A38000
A38000
A38000
A38000
A38000
014000
ENDCHAR
STARTCHAR uni2561
ENCODING 9569
SWIDTH 600 0
DWIDTH 11 0
BBX 7 26 -1 -8
BITMAP
0008
001C
001C
001C
001C
001C
001C
001C
001C
001C
001C
BFFC
001C
001C
BFFC
001C
001C
001C
001C
001C
001C
001C
001C
001C
001C
0008
ENDCHAR
STARTCHAR uni2562
ENCODING 9570
SWIDTH 600 0
DWIDTH 11 0
BBX 9 26 -1 -8
BITMAP
00A380
00A380
00A380
00A380
00A380
00A380
00A380
00A380
00A380
00A380
00A380
00A380
BFE380
00A380
00A380
00A380
00A380
00A380
00A380
00A380
00A380
00A380
00A380
00A380
00A380
000100
ENDCHAR
STARTCHAR uni2563
ENCODING 9571
SWIDTH 600 0
DWIDTH 11 0
BBX 9 26 -1 -8
BITMAP
005380
00A380
00A380
00A380
00A380
00A380
00A380
00A380
00A380
00A380
00A380
BFE380
000380
000380
BFE380
00A380
00A380
00A380
00A380
00A380
00A380
00A380
00A380
00A380
00A380
005100
ENDCHAR
STARTCHAR uni2564
ENCODING 9572
SWIDTH 600 0
DWIDTH 11 0
BBX 13 15 -1 -8
BITMAP
BFFFFF80
00000000
00000000
BFFFFF80
001C0000
001C0000
001C0000
001C0000
001C0000
001C0000
001C0000
001C0000
001C0000
001C0000
00080000
ENDCHAR
STARTCHAR uni2565
ENCODING 9573
SWIDTH 600 0
DWIDTH 11 0
BBX 13 13 -1 -7
BITMAP
BFFFFF80
00A38000
00A38000
00A38000
00A38000
00A38000
00A38000
00A38000
00A38000
00A38000
00A38000
00A38000
00A24000
ENDCHAR
STARTCHAR uni2566
ENCODING 9574
SWIDTH 600 0
DWIDTH 11 0
BBX 13 15 -1 -8
BITMAP
BFFFFF80
00000000
00000000
BFE3FF80
00A38000
00A38000
00A38000
00A38000
00A38000
00A38000
00A38000
00A38000
00A38000
00A38000
00514000
ENDCHAR
STARTCHAR uni2567
ENCODING 9575
SWIDTH 600 0
DWIDTH 11 0
BBX 13 15 -1 3
BITMAP
00080000
001C0000
001C0000
001C0000
001C0000
001C0000
001C0000
001C0000
001C0000
001C0000
001C0000
BFFFFF80
00000000
00000000
BFFFFF80
ENDCHAR
STARTCHAR uni2568
ENCODING 9576
SWIDTH 600 0
DWIDTH 11 0
BBX 13 13 -1 5
BITMAP
00A24000
00A38000
00A38000
00A38000
00A38000
00A38000
00A38000
00A38000
00A38000
00A38000
00A38000
00A38000
BFFFFF80
ENDCHAR
STARTCHAR uni2569
ENCODING 9577
SWIDTH 600 0
DWIDTH 11 0
BBX 13 15 -1 3
BITMAP
00514000
00A38000
00A38000
00A38000
00A38000
00A38000
00A38000
00A38000
00A38000
00A38000
00A38000
BFE3FF80
00000000
00000000
BFFFFF80
ENDCHAR
STARTCHAR uni256A
ENCODING 9578
SWIDTH 600 0
DWIDTH 11 0
BBX 13 26 -1 -8
BITMAP
00080000
001C0000
001C0000
001C0000
001C0000
001C0000
001C0000
001C0000
001C0000
001C0000
001C0000
BFFFFF80
001C0000
001C0000
BFFFFF80
001C0000
001C0000
001C0000
001C0000
001C0000
001C0000
001C0000
001C0000
001C0000
001C0000
00080000
ENDCHAR
STARTCHAR uni256B
ENCODING 9579
SWIDTH 600 0
DWIDTH 11 0
BBX 13 25 -1 -7
BITMAP
00A24000
00A38000
00A38000
00A38000
00A38000
00A38000
00A38000
00A38000
00A38000
00A38000
00A38000
00A38000
BFFFFF80
00A38000
00A38000
00A38000
00A38000
00A38000
00A38000
00A38000
00A38000
00A38000
00A38000
00A38000
00A24000
ENDCHAR
STARTCHAR uni256C
ENCODING 9580
SWIDTH 600 0
DWIDTH 11 0
BBX 13 26 -1 -8
BITMAP
00514000
00A38000
00A38000
00A38000
00A38000
00A38000
00A38000
00A38000
00A38000
00A38000
00A38000
BFE3FF80
00000000
00000000
BFE3FF80
00A38000
00A38000
00A38000
00A38000
00A38000
00A38000
00A38000
00A38000
00A38000
00A38000
00514000
ENDCHAR
STARTCHAR uni256D
ENCODING 9581
SWIDTH 600 0
DWIDTH 11 0
BBX 8 13 4 -7
BITMAP
01BE
0B90
1D00
3800
3400
7000
7000
7000
7000
7000
7000
7000
7000
ENDCHAR
STARTCHAR uni256E
ENCODING 9582
SWIDTH 600 0
DWIDTH 11 0
BBX 7 13 -1 -7
BITMAP
BE00
06D0
00B4
0038
001C
001C
001C
001C
001C
001C
001C
001C
001C
ENDCHAR
STARTCHAR uni256F
ENCODING 9583
SWIDTH 600 0
DWIDTH 11 0
BBX 7 13 -1 5
BITMAP
001C
001C
001C
001C
001C
001C
001C
001C
001C
0038
00B4
06D0
BE00
ENDCHAR
STARTCHAR uni2570
ENCODING 9584
SWIDTH 600 0
DWIDTH 11 0
BBX 8 13 4 5
BITMAP
7000
7000
7000
7000
7000
7000
7000
7000
3400
3800
1D00
0B90
01BE
ENDCHAR
STARTCHAR uni2571
ENCODING 9585
SWIDTH 600 0
DWIDTH 11 0
BBX 11 22 0 -6
BITMAP
000018
000028
000074
0000B0
0001D0
0002C0
000740
000B00
000D00
002C00
003400
00B000
00D000
02C000
034000
0B0000
0D0000
2C0000
340000
B00000
E00000
C00000
ENDCHAR
ENDFONT
